%TF.GenerationSoftware,KiCad,Pcbnew,9.0.6*%
%TF.CreationDate,2025-11-12T16:56:55+01:00*%
%TF.ProjectId,left_finished,6c656674-5f66-4696-9e69-736865642e6b,1*%
%TF.SameCoordinates,Original*%
%TF.FileFunction,Legend,Bot*%
%TF.FilePolarity,Positive*%
%FSLAX46Y46*%
G04 Gerber Fmt 4.6, Leading zero omitted, Abs format (unit mm)*
G04 Created by KiCad (PCBNEW 9.0.6) date 2025-11-12 16:56:55*
%MOMM*%
%LPD*%
G01*
G04 APERTURE LIST*
%ADD10C,0.100000*%
%ADD11R,1.752600X1.752600*%
%ADD12C,1.752600*%
G04 APERTURE END LIST*
D10*
%TO.C,D18*%
X242012050Y-143382250D02*
X242812050Y-143382250D01*
X242412050Y-143382250D02*
X242412050Y-142882250D01*
X242412050Y-143982250D02*
X241862050Y-143982250D01*
X242412050Y-143982250D02*
X242012050Y-143382250D01*
X242412050Y-143982250D02*
X242962050Y-143982250D01*
X242412050Y-144382250D02*
X242412050Y-143982250D01*
X242812050Y-143382250D02*
X242412050Y-143982250D01*
%TO.C,D1*%
X166012050Y-187382250D02*
X166812050Y-187382250D01*
X166412050Y-187382250D02*
X166412050Y-186882250D01*
X166412050Y-187982250D02*
X165862050Y-187982250D01*
X166412050Y-187982250D02*
X166012050Y-187382250D01*
X166412050Y-187982250D02*
X166962050Y-187982250D01*
X166412050Y-188382250D02*
X166412050Y-187982250D01*
X166812050Y-187382250D02*
X166412050Y-187982250D01*
%TO.C,D11*%
X204012050Y-123382250D02*
X204812050Y-123382250D01*
X204412050Y-123382250D02*
X204412050Y-122882250D01*
X204412050Y-123982250D02*
X203862050Y-123982250D01*
X204412050Y-123982250D02*
X204012050Y-123382250D01*
X204412050Y-123982250D02*
X204962050Y-123982250D01*
X204412050Y-124382250D02*
X204412050Y-123982250D01*
X204812050Y-123382250D02*
X204412050Y-123982250D01*
%TO.C,D24*%
X261012050Y-139882250D02*
X261812050Y-139882250D01*
X261412050Y-139882250D02*
X261412050Y-139382250D01*
X261412050Y-140482250D02*
X260862050Y-140482250D01*
X261412050Y-140482250D02*
X261012050Y-139882250D01*
X261412050Y-140482250D02*
X261962050Y-140482250D01*
X261412050Y-140882250D02*
X261412050Y-140482250D01*
X261812050Y-139882250D02*
X261412050Y-140482250D01*
%TO.C,D16*%
X242012050Y-181382250D02*
X242812050Y-181382250D01*
X242412050Y-181382250D02*
X242412050Y-180882250D01*
X242412050Y-181982250D02*
X241862050Y-181982250D01*
X242412050Y-181982250D02*
X242012050Y-181382250D01*
X242412050Y-181982250D02*
X242962050Y-181982250D01*
X242412050Y-182382250D02*
X242412050Y-181982250D01*
X242812050Y-181382250D02*
X242412050Y-181982250D01*
%TO.C,D25*%
X261012050Y-152382250D02*
X261812050Y-152382250D01*
X261412050Y-152382250D02*
X261412050Y-151882250D01*
X261412050Y-152982250D02*
X260862050Y-152982250D01*
X261412050Y-152982250D02*
X261012050Y-152382250D01*
X261412050Y-152982250D02*
X261962050Y-152982250D01*
X261412050Y-153382250D02*
X261412050Y-152982250D01*
X261812050Y-152382250D02*
X261412050Y-152982250D01*
%TO.C,D6*%
X185012050Y-149382250D02*
X185812050Y-149382250D01*
X185412050Y-149382250D02*
X185412050Y-148882250D01*
X185412050Y-149982250D02*
X184862050Y-149982250D01*
X185412050Y-149982250D02*
X185012050Y-149382250D01*
X185412050Y-149982250D02*
X185962050Y-149982250D01*
X185412050Y-150382250D02*
X185412050Y-149982250D01*
X185812050Y-149382250D02*
X185412050Y-149982250D01*
%TO.C,D14*%
X223012050Y-137382250D02*
X223812050Y-137382250D01*
X223412050Y-137382250D02*
X223412050Y-136882250D01*
X223412050Y-137982250D02*
X222862050Y-137982250D01*
X223412050Y-137982250D02*
X223012050Y-137382250D01*
X223412050Y-137982250D02*
X223962050Y-137982250D01*
X223412050Y-138382250D02*
X223412050Y-137982250D01*
X223812050Y-137382250D02*
X223412050Y-137982250D01*
%TO.C,D13*%
X223012050Y-156382250D02*
X223812050Y-156382250D01*
X223412050Y-156382250D02*
X223412050Y-155882250D01*
X223412050Y-156982250D02*
X222862050Y-156982250D01*
X223412050Y-156982250D02*
X223012050Y-156382250D01*
X223412050Y-156982250D02*
X223962050Y-156982250D01*
X223412050Y-157382250D02*
X223412050Y-156982250D01*
X223812050Y-156382250D02*
X223412050Y-156982250D01*
%TO.C,D3*%
X166012050Y-130382250D02*
X166812050Y-130382250D01*
X166412050Y-130382250D02*
X166412050Y-129882250D01*
X166412050Y-130982250D02*
X165862050Y-130982250D01*
X166412050Y-130982250D02*
X166012050Y-130382250D01*
X166412050Y-130982250D02*
X166962050Y-130982250D01*
X166412050Y-131382250D02*
X166412050Y-130982250D01*
X166812050Y-130382250D02*
X166412050Y-130982250D01*
%TO.C,D20*%
X242012050Y-105382250D02*
X242812050Y-105382250D01*
X242412050Y-105382250D02*
X242412050Y-104882250D01*
X242412050Y-105982250D02*
X241862050Y-105982250D01*
X242412050Y-105982250D02*
X242012050Y-105382250D01*
X242412050Y-105982250D02*
X242962050Y-105982250D01*
X242412050Y-106382250D02*
X242412050Y-105982250D01*
X242812050Y-105382250D02*
X242412050Y-105982250D01*
%TO.C,D28*%
X204012050Y-135382250D02*
X204812050Y-135382250D01*
X204412050Y-135382250D02*
X204412050Y-134882250D01*
X204412050Y-135982250D02*
X203862050Y-135982250D01*
X204412050Y-135982250D02*
X204012050Y-135382250D01*
X204412050Y-135982250D02*
X204962050Y-135982250D01*
X204412050Y-136382250D02*
X204412050Y-135982250D01*
X204812050Y-135382250D02*
X204412050Y-135982250D01*
%TO.C,D10*%
X204012050Y-161382250D02*
X204812050Y-161382250D01*
X204412050Y-161382250D02*
X204412050Y-160882250D01*
X204412050Y-161982250D02*
X203862050Y-161982250D01*
X204412050Y-161982250D02*
X204012050Y-161382250D01*
X204412050Y-161982250D02*
X204962050Y-161982250D01*
X204412050Y-162382250D02*
X204412050Y-161982250D01*
X204812050Y-161382250D02*
X204412050Y-161982250D01*
%TO.C,D8*%
X185012050Y-111382250D02*
X185812050Y-111382250D01*
X185412050Y-111382250D02*
X185412050Y-110882250D01*
X185412050Y-111982250D02*
X184862050Y-111982250D01*
X185412050Y-111982250D02*
X185012050Y-111382250D01*
X185412050Y-111982250D02*
X185962050Y-111982250D01*
X185412050Y-112382250D02*
X185412050Y-111982250D01*
X185812050Y-111382250D02*
X185412050Y-111982250D01*
%TO.C,D31*%
X264204210Y-208567200D02*
X264955964Y-208840816D01*
X264238067Y-209643700D02*
X264374875Y-209267823D01*
X264374875Y-209267823D02*
X263858044Y-209079712D01*
X264374875Y-209267823D02*
X264204210Y-208567200D01*
X264374875Y-209267823D02*
X264891706Y-209455934D01*
X264580087Y-208704008D02*
X264751097Y-208234162D01*
X264955964Y-208840816D02*
X264374875Y-209267823D01*
%TO.C,D23*%
X261012050Y-108382250D02*
X261812050Y-108382250D01*
X261412050Y-108382250D02*
X261412050Y-107882250D01*
X261412050Y-108982250D02*
X260862050Y-108982250D01*
X261412050Y-108982250D02*
X261012050Y-108382250D01*
X261412050Y-108982250D02*
X261962050Y-108982250D01*
X261412050Y-109382250D02*
X261412050Y-108982250D01*
X261812050Y-108382250D02*
X261412050Y-108982250D01*
%TO.C,D30*%
X223012050Y-119382250D02*
X223812050Y-119382250D01*
X223412050Y-119382250D02*
X223412050Y-118882250D01*
X223412050Y-119982250D02*
X222862050Y-119982250D01*
X223412050Y-119982250D02*
X223012050Y-119382250D01*
X223412050Y-119982250D02*
X223962050Y-119982250D01*
X223412050Y-120382250D02*
X223412050Y-119982250D01*
X223812050Y-119382250D02*
X223412050Y-119982250D01*
%TO.C,D32*%
X281408531Y-216850999D02*
X282160285Y-217124615D01*
X281442388Y-217927499D02*
X281579196Y-217551622D01*
X281579196Y-217551622D02*
X281062365Y-217363511D01*
X281579196Y-217551622D02*
X281408531Y-216850999D01*
X281579196Y-217551622D02*
X282096027Y-217739733D01*
X281784408Y-216987807D02*
X281955418Y-216517961D01*
X282160285Y-217124615D02*
X281579196Y-217551622D01*
%TO.C,D7*%
X185012050Y-130382250D02*
X185812050Y-130382250D01*
X185412050Y-130382250D02*
X185412050Y-129882250D01*
X185412050Y-130982250D02*
X184862050Y-130982250D01*
X185412050Y-130982250D02*
X185012050Y-130382250D01*
X185412050Y-130982250D02*
X185962050Y-130982250D01*
X185412050Y-131382250D02*
X185412050Y-130982250D01*
X185812050Y-130382250D02*
X185412050Y-130982250D01*
%TO.C,D21*%
X261012050Y-184382250D02*
X261812050Y-184382250D01*
X261412050Y-184382250D02*
X261412050Y-183882250D01*
X261412050Y-184982250D02*
X260862050Y-184982250D01*
X261412050Y-184982250D02*
X261012050Y-184382250D01*
X261412050Y-184982250D02*
X261962050Y-184982250D01*
X261412050Y-185382250D02*
X261412050Y-184982250D01*
X261812050Y-184382250D02*
X261412050Y-184982250D01*
%TO.C,D27*%
X166012050Y-104382250D02*
X166812050Y-104382250D01*
X166412050Y-104382250D02*
X166412050Y-103882250D01*
X166412050Y-104982250D02*
X165862050Y-104982250D01*
X166412050Y-104982250D02*
X166012050Y-104382250D01*
X166412050Y-104982250D02*
X166962050Y-104982250D01*
X166412050Y-105382250D02*
X166412050Y-104982250D01*
X166812050Y-104382250D02*
X166412050Y-104982250D01*
%TO.C,D17*%
X242012050Y-162382250D02*
X242812050Y-162382250D01*
X242412050Y-162382250D02*
X242412050Y-161882250D01*
X242412050Y-162982250D02*
X241862050Y-162982250D01*
X242412050Y-162982250D02*
X242012050Y-162382250D01*
X242412050Y-162982250D02*
X242962050Y-162982250D01*
X242412050Y-163382250D02*
X242412050Y-162982250D01*
X242812050Y-162382250D02*
X242412050Y-162982250D01*
%TO.C,D22*%
X261012050Y-165382250D02*
X261812050Y-165382250D01*
X261412050Y-165382250D02*
X261412050Y-164882250D01*
X261412050Y-165982250D02*
X260862050Y-165982250D01*
X261412050Y-165982250D02*
X261012050Y-165382250D01*
X261412050Y-165982250D02*
X261962050Y-165982250D01*
X261412050Y-166382250D02*
X261412050Y-165982250D01*
X261812050Y-165382250D02*
X261412050Y-165982250D01*
%TO.C,D9*%
X204012050Y-180382250D02*
X204812050Y-180382250D01*
X204412050Y-180382250D02*
X204412050Y-179882250D01*
X204412050Y-180982250D02*
X203862050Y-180982250D01*
X204412050Y-180982250D02*
X204012050Y-180382250D01*
X204412050Y-180982250D02*
X204962050Y-180982250D01*
X204412050Y-181382250D02*
X204412050Y-180982250D01*
X204812050Y-180382250D02*
X204412050Y-180982250D01*
%TO.C,D29*%
X223012050Y-176382250D02*
X223812050Y-176382250D01*
X223412050Y-176382250D02*
X223412050Y-175882250D01*
X223412050Y-176982250D02*
X222862050Y-176982250D01*
X223412050Y-176982250D02*
X223012050Y-176382250D01*
X223412050Y-176982250D02*
X223962050Y-176982250D01*
X223412050Y-177382250D02*
X223412050Y-176982250D01*
X223812050Y-176382250D02*
X223412050Y-176982250D01*
%TO.C,D12*%
X204012050Y-104382250D02*
X204812050Y-104382250D01*
X204412050Y-104382250D02*
X204412050Y-103882250D01*
X204412050Y-104982250D02*
X203862050Y-104982250D01*
X204412050Y-104982250D02*
X204012050Y-104382250D01*
X204412050Y-104982250D02*
X204962050Y-104982250D01*
X204412050Y-105382250D02*
X204412050Y-104982250D01*
X204812050Y-104382250D02*
X204412050Y-104982250D01*
%TO.C,D19*%
X242012050Y-124382250D02*
X242812050Y-124382250D01*
X242412050Y-124382250D02*
X242412050Y-123882250D01*
X242412050Y-124982250D02*
X241862050Y-124982250D01*
X242412050Y-124982250D02*
X242012050Y-124382250D01*
X242412050Y-124982250D02*
X242962050Y-124982250D01*
X242412050Y-125382250D02*
X242412050Y-124982250D01*
X242812050Y-124382250D02*
X242412050Y-124982250D01*
%TO.C,D5*%
X185012050Y-168382250D02*
X185812050Y-168382250D01*
X185412050Y-168382250D02*
X185412050Y-167882250D01*
X185412050Y-168982250D02*
X184862050Y-168982250D01*
X185412050Y-168982250D02*
X185012050Y-168382250D01*
X185412050Y-168982250D02*
X185962050Y-168982250D01*
X185412050Y-169382250D02*
X185412050Y-168982250D01*
X185812050Y-168382250D02*
X185412050Y-168982250D01*
%TO.C,D26*%
X166012050Y-161382250D02*
X166812050Y-161382250D01*
X166412050Y-161382250D02*
X166412050Y-160882250D01*
X166412050Y-161982250D02*
X165862050Y-161982250D01*
X166412050Y-161982250D02*
X166012050Y-161382250D01*
X166412050Y-161982250D02*
X166962050Y-161982250D01*
X166412050Y-162382250D02*
X166412050Y-161982250D01*
X166812050Y-161382250D02*
X166412050Y-161982250D01*
%TO.C,D2*%
X166012050Y-149382250D02*
X166812050Y-149382250D01*
X166412050Y-149382250D02*
X166412050Y-148882250D01*
X166412050Y-149982250D02*
X165862050Y-149982250D01*
X166412050Y-149982250D02*
X166012050Y-149382250D01*
X166412050Y-149982250D02*
X166962050Y-149982250D01*
X166412050Y-150382250D02*
X166412050Y-149982250D01*
X166812050Y-149382250D02*
X166412050Y-149982250D01*
%TO.C,D15*%
X223012050Y-99382250D02*
X223812050Y-99382250D01*
X223412050Y-99382250D02*
X223412050Y-98882250D01*
X223412050Y-99982250D02*
X222862050Y-99982250D01*
X223412050Y-99982250D02*
X223012050Y-99382250D01*
X223412050Y-99982250D02*
X223962050Y-99982250D01*
X223412050Y-100382250D02*
X223412050Y-99982250D01*
X223812050Y-99382250D02*
X223412050Y-99982250D01*
%TO.C,D4*%
X185012050Y-187382250D02*
X185812050Y-187382250D01*
X185412050Y-187382250D02*
X185412050Y-186882250D01*
X185412050Y-187982250D02*
X184862050Y-187982250D01*
X185412050Y-187982250D02*
X185012050Y-187382250D01*
X185412050Y-187982250D02*
X185962050Y-187982250D01*
X185412050Y-188382250D02*
X185412050Y-187982250D01*
X185812050Y-187382250D02*
X185412050Y-187982250D01*
%TD*%
D11*
%TO.C,MCU1*%
X258582050Y-99012250D03*
D12*
X256042050Y-99012250D03*
X253502050Y-99012250D03*
X250962050Y-99012250D03*
X248422050Y-99012250D03*
X245882050Y-99012250D03*
X243342050Y-99012250D03*
X240802050Y-99012250D03*
X238262050Y-99012250D03*
X235722050Y-99012250D03*
X233182050Y-99012250D03*
X230642050Y-99012250D03*
X258582050Y-114252250D03*
X256042050Y-114252250D03*
X253502050Y-114252250D03*
X250962050Y-114252250D03*
X248422050Y-114252250D03*
X245882050Y-114252250D03*
X243342050Y-114252250D03*
X240802050Y-114252250D03*
X238262050Y-114252250D03*
X235722050Y-114252250D03*
X233182050Y-114252250D03*
X230642050Y-114252250D03*
%TD*%
M02*
