%TF.GenerationSoftware,KiCad,Pcbnew,9.0.6*%
%TF.CreationDate,2025-11-12T16:56:55+01:00*%
%TF.ProjectId,left_finished,6c656674-5f66-4696-9e69-736865642e6b,1*%
%TF.SameCoordinates,Original*%
%TF.FileFunction,Paste,Bot*%
%TF.FilePolarity,Positive*%
%FSLAX46Y46*%
G04 Gerber Fmt 4.6, Leading zero omitted, Abs format (unit mm)*
G04 Created by KiCad (PCBNEW 9.0.6) date 2025-11-12 16:56:55*
%MOMM*%
%LPD*%
G01*
G04 APERTURE LIST*
G04 Aperture macros list*
%AMRotRect*
0 Rectangle, with rotation*
0 The origin of the aperture is its center*
0 $1 length*
0 $2 width*
0 $3 Rotation angle, in degrees counterclockwise*
0 Add horizontal line*
21,1,$1,$2,0,0,$3*%
G04 Aperture macros list end*
%ADD10R,2.600000X2.600000*%
%ADD11R,1.200000X0.900000*%
%ADD12RotRect,0.900000X1.200000X70.000000*%
%ADD13RotRect,2.600000X2.600000X160.000000*%
G04 APERTURE END LIST*
D10*
%TO.C,S11*%
X199887050Y-183082250D03*
X188337050Y-180882250D03*
%TD*%
D11*
%TO.C,D18*%
X242412050Y-145282250D03*
X242412050Y-141982250D03*
%TD*%
D10*
%TO.C,S4*%
X161887050Y-133082250D03*
X150337050Y-130882250D03*
%TD*%
%TO.C,S26*%
X256887050Y-187082250D03*
X245337050Y-184882250D03*
%TD*%
%TO.C,S6*%
X180887050Y-190082250D03*
X169337050Y-187882250D03*
%TD*%
%TO.C,S9*%
X180887050Y-133082250D03*
X169337050Y-130882250D03*
%TD*%
%TO.C,S29*%
X256887050Y-130082250D03*
X245337050Y-127882250D03*
%TD*%
D11*
%TO.C,D1*%
X166412050Y-189282250D03*
X166412050Y-185982250D03*
%TD*%
D10*
%TO.C,S28*%
X256887050Y-149082250D03*
X245337050Y-146882250D03*
%TD*%
D11*
%TO.C,D11*%
X204412050Y-125282250D03*
X204412050Y-121982250D03*
%TD*%
D10*
%TO.C,S20*%
X218887050Y-102082250D03*
X207337050Y-99882250D03*
%TD*%
D11*
%TO.C,D24*%
X261412050Y-141782250D03*
X261412050Y-138482250D03*
%TD*%
%TO.C,D16*%
X242412050Y-183282250D03*
X242412050Y-179982250D03*
%TD*%
%TO.C,D25*%
X261412050Y-154282250D03*
X261412050Y-150982250D03*
%TD*%
%TO.C,D6*%
X185412050Y-151282250D03*
X185412050Y-147982250D03*
%TD*%
%TO.C,D14*%
X223412050Y-139282250D03*
X223412050Y-135982250D03*
%TD*%
%TO.C,D13*%
X223412050Y-158282250D03*
X223412050Y-154982250D03*
%TD*%
D10*
%TO.C,S2*%
X161887050Y-171082250D03*
X150337050Y-168882250D03*
%TD*%
D11*
%TO.C,D3*%
X166412050Y-132282250D03*
X166412050Y-128982250D03*
%TD*%
D10*
%TO.C,S23*%
X237887050Y-146082250D03*
X226337050Y-143882250D03*
%TD*%
D11*
%TO.C,D20*%
X242412050Y-107282250D03*
X242412050Y-103982250D03*
%TD*%
D10*
%TO.C,S14*%
X199887050Y-126082250D03*
X188337050Y-123882250D03*
%TD*%
%TO.C,S10*%
X180887050Y-114082250D03*
X169337050Y-111882250D03*
%TD*%
%TO.C,S12*%
X199887050Y-164082250D03*
X188337050Y-161882250D03*
%TD*%
%TO.C,S22*%
X237887050Y-165082250D03*
X226337050Y-162882250D03*
%TD*%
D11*
%TO.C,D28*%
X204412050Y-137282250D03*
X204412050Y-133982250D03*
%TD*%
%TO.C,D10*%
X204412050Y-163282250D03*
X204412050Y-159982250D03*
%TD*%
%TO.C,D8*%
X185412050Y-113282250D03*
X185412050Y-109982250D03*
%TD*%
D12*
%TO.C,D31*%
X263930249Y-210489424D03*
X265058915Y-207388438D03*
%TD*%
D11*
%TO.C,D23*%
X261412050Y-110282250D03*
X261412050Y-106982250D03*
%TD*%
D10*
%TO.C,S8*%
X180887050Y-152082250D03*
X169337050Y-149882250D03*
%TD*%
%TO.C,S24*%
X237887050Y-127082250D03*
X226337050Y-124882250D03*
%TD*%
D11*
%TO.C,D30*%
X223412050Y-121282250D03*
X223412050Y-117982250D03*
%TD*%
D10*
%TO.C,S7*%
X180887050Y-171082250D03*
X169337050Y-168882250D03*
%TD*%
D13*
%TO.C,S32*%
X276608845Y-217977336D03*
X266507840Y-211959680D03*
%TD*%
D12*
%TO.C,D32*%
X281134570Y-218773223D03*
X282263236Y-215672237D03*
%TD*%
D11*
%TO.C,D7*%
X185412050Y-132282250D03*
X185412050Y-128982250D03*
%TD*%
D10*
%TO.C,S30*%
X256887050Y-111082250D03*
X245337050Y-108882250D03*
%TD*%
D11*
%TO.C,D21*%
X261412050Y-186282250D03*
X261412050Y-182982250D03*
%TD*%
%TO.C,D27*%
X166412050Y-106282250D03*
X166412050Y-102982250D03*
%TD*%
D13*
%TO.C,S31*%
X259404523Y-209693537D03*
X249303518Y-203675881D03*
%TD*%
D11*
%TO.C,D17*%
X242412050Y-164282250D03*
X242412050Y-160982250D03*
%TD*%
D10*
%TO.C,S19*%
X218887050Y-121082250D03*
X207337050Y-118882250D03*
%TD*%
D11*
%TO.C,D22*%
X261412050Y-167282250D03*
X261412050Y-163982250D03*
%TD*%
%TO.C,D9*%
X204412050Y-182282250D03*
X204412050Y-178982250D03*
%TD*%
D10*
%TO.C,S27*%
X256887050Y-168082250D03*
X245337050Y-165882250D03*
%TD*%
D11*
%TO.C,D29*%
X223412050Y-178282250D03*
X223412050Y-174982250D03*
%TD*%
D10*
%TO.C,S21*%
X237887050Y-184082250D03*
X226337050Y-181882250D03*
%TD*%
D11*
%TO.C,D12*%
X204412050Y-106282250D03*
X204412050Y-102982250D03*
%TD*%
%TO.C,D19*%
X242412050Y-126282250D03*
X242412050Y-122982250D03*
%TD*%
D10*
%TO.C,S13*%
X199887050Y-145082250D03*
X188337050Y-142882250D03*
%TD*%
%TO.C,S17*%
X218887050Y-159082250D03*
X207337050Y-156882250D03*
%TD*%
%TO.C,S16*%
X218887050Y-178082250D03*
X207337050Y-175882250D03*
%TD*%
D11*
%TO.C,D5*%
X185412050Y-170282250D03*
X185412050Y-166982250D03*
%TD*%
D10*
%TO.C,S25*%
X237887050Y-108082250D03*
X226337050Y-105882250D03*
%TD*%
%TO.C,S3*%
X161887050Y-152082250D03*
X150337050Y-149882250D03*
%TD*%
%TO.C,S15*%
X199887050Y-107082250D03*
X188337050Y-104882250D03*
%TD*%
D11*
%TO.C,D26*%
X166412050Y-163282250D03*
X166412050Y-159982250D03*
%TD*%
D10*
%TO.C,S1*%
X161887050Y-190082250D03*
X150337050Y-187882250D03*
%TD*%
%TO.C,S18*%
X218887050Y-140082250D03*
X207337050Y-137882250D03*
%TD*%
D11*
%TO.C,D2*%
X166412050Y-151282250D03*
X166412050Y-147982250D03*
%TD*%
D10*
%TO.C,S5*%
X161887050Y-114082250D03*
X150337050Y-111882250D03*
%TD*%
D11*
%TO.C,D15*%
X223412050Y-101282250D03*
X223412050Y-97982250D03*
%TD*%
%TO.C,D4*%
X185412050Y-189282250D03*
X185412050Y-185982250D03*
%TD*%
M02*
