M48
; DRILL file {KiCad 9.0.6} date 2025-11-12T16:58:21+0100
; FORMAT={-:-/ absolute / metric / decimal}
; #@! TF.CreationDate,2025-11-12T16:58:21+01:00
; #@! TF.GenerationSoftware,Kicad,Pcbnew,9.0.6
; #@! TF.FileFunction,NonPlated,1,2,NPTH
FMAT,2
METRIC
; #@! TA.AperFunction,NonPlated,NPTH,ComponentDrill
T1C1.500
; #@! TA.AperFunction,NonPlated,NPTH,ComponentDrill
T2C1.702
; #@! TA.AperFunction,NonPlated,NPTH,ComponentDrill
T3C3.000
; #@! TA.AperFunction,NonPlated,NPTH,ComponentDrill
T4C3.429
; #@! TA.AperFunction,NonPlated,NPTH,ComponentDrill
T5C4.000
%
G90
G05
T1
X253.212Y-118.982
X260.212Y-118.982
T2
X153.112Y-108.132
X153.112Y-127.132
X153.112Y-146.132
X153.112Y-165.132
X153.112Y-184.132
X164.112Y-108.132
X164.112Y-127.132
X164.112Y-146.132
X164.112Y-165.132
X164.112Y-184.132
X172.112Y-108.132
X172.112Y-127.132
X172.112Y-146.132
X172.112Y-165.132
X172.112Y-184.132
X183.112Y-108.132
X183.112Y-127.132
X183.112Y-146.132
X183.112Y-165.132
X183.112Y-184.132
X191.112Y-101.132
X191.112Y-120.132
X191.112Y-139.132
X191.112Y-158.132
X191.112Y-177.132
X202.112Y-101.132
X202.112Y-120.132
X202.112Y-139.132
X202.112Y-158.132
X202.112Y-177.132
X210.112Y-96.132
X210.112Y-115.132
X210.112Y-134.132
X210.112Y-153.132
X210.112Y-172.132
X221.112Y-96.132
X221.112Y-115.132
X221.112Y-134.132
X221.112Y-153.132
X221.112Y-172.132
X229.112Y-102.132
X229.112Y-121.132
X229.112Y-140.132
X229.112Y-159.132
X229.112Y-178.132
X240.112Y-102.132
X240.112Y-121.132
X240.112Y-140.132
X240.112Y-159.132
X240.112Y-178.132
X248.112Y-105.132
X248.112Y-124.132
X248.112Y-143.132
X248.112Y-162.132
X248.112Y-181.132
X253.194Y-201.101
X259.112Y-105.132
X259.112Y-124.132
X259.112Y-143.132
X259.112Y-162.132
X259.112Y-181.132
X263.53Y-204.863
X270.398Y-209.385
X280.735Y-213.147
T3
X153.612Y-111.882
X153.612Y-130.882
X153.612Y-149.882
X153.612Y-168.882
X153.612Y-187.882
X158.612Y-114.082
X158.612Y-133.082
X158.612Y-152.082
X158.612Y-171.082
X158.612Y-190.082
X172.612Y-111.882
X172.612Y-130.882
X172.612Y-149.882
X172.612Y-168.882
X172.612Y-187.882
X177.612Y-114.082
X177.612Y-133.082
X177.612Y-152.082
X177.612Y-171.082
X177.612Y-190.082
X191.612Y-104.882
X191.612Y-123.882
X191.612Y-142.882
X191.612Y-161.882
X191.612Y-180.882
X196.612Y-107.082
X196.612Y-126.082
X196.612Y-145.082
X196.612Y-164.082
X196.612Y-183.082
X210.612Y-99.882
X210.612Y-118.882
X210.612Y-137.882
X210.612Y-156.882
X210.612Y-175.882
X215.612Y-102.082
X215.612Y-121.082
X215.612Y-140.082
X215.612Y-159.082
X215.612Y-178.082
X229.612Y-105.882
X229.612Y-124.882
X229.612Y-143.882
X229.612Y-162.882
X229.612Y-181.882
X234.612Y-108.082
X234.612Y-127.082
X234.612Y-146.082
X234.612Y-165.082
X234.612Y-184.082
X248.612Y-108.882
X248.612Y-127.882
X248.612Y-146.882
X248.612Y-165.882
X248.612Y-184.882
X252.381Y-204.796
X253.612Y-111.082
X253.612Y-130.082
X253.612Y-149.082
X253.612Y-168.082
X253.612Y-187.082
X256.327Y-208.573
X269.585Y-213.08
X273.531Y-216.857
T4
X158.612Y-108.132
X158.612Y-127.132
X158.612Y-146.132
X158.612Y-165.132
X158.612Y-184.132
X177.612Y-108.132
X177.612Y-127.132
X177.612Y-146.132
X177.612Y-165.132
X177.612Y-184.132
X196.612Y-101.132
X196.612Y-120.132
X196.612Y-139.132
X196.612Y-158.132
X196.612Y-177.132
X215.612Y-96.132
X215.612Y-115.132
X215.612Y-134.132
X215.612Y-153.132
X215.612Y-172.132
X234.612Y-102.132
X234.612Y-121.132
X234.612Y-140.132
X234.612Y-159.132
X234.612Y-178.132
X253.612Y-105.132
X253.612Y-124.132
X253.612Y-143.132
X253.612Y-162.132
X253.612Y-181.132
X258.362Y-202.982
X275.566Y-211.266
T5
X167.612Y-173.632
X168.612Y-116.632
X206.612Y-144.632
X225.612Y-112.632
X225.612Y-169.632
X253.922Y-194.13
M30
