%TF.GenerationSoftware,KiCad,Pcbnew,9.0.6*%
%TF.CreationDate,2025-11-12T16:56:56+01:00*%
%TF.ProjectId,left_finished,6c656674-5f66-4696-9e69-736865642e6b,1*%
%TF.SameCoordinates,Original*%
%TF.FileFunction,Profile,NP*%
%FSLAX46Y46*%
G04 Gerber Fmt 4.6, Leading zero omitted, Abs format (unit mm)*
G04 Created by KiCad (PCBNEW 9.0.6) date 2025-11-12 16:56:56*
%MOMM*%
%LPD*%
G01*
G04 APERTURE LIST*
%TA.AperFunction,Profile*%
%ADD10C,0.150000*%
%TD*%
G04 APERTURE END LIST*
D10*
X246313605Y-209770841D02*
G75*
G02*
X245118288Y-207207426I683995J1879341D01*
G01*
X264612051Y-191601466D02*
G75*
G02*
X264611104Y-191663021I-1998851J-34D01*
G01*
X240783622Y-188632250D02*
G75*
G02*
X242197835Y-189218037I-22J-2000050D01*
G01*
X264612050Y-96632250D02*
X264612050Y-191601465D01*
X262337760Y-217625095D02*
G75*
G02*
X261275695Y-216720971I684040J1879395D01*
G01*
X248248238Y-195122691D02*
G75*
G02*
X248742588Y-197249553I-1385038J-1442809D01*
G01*
X184857358Y-95915093D02*
X185366742Y-92349407D01*
X259521837Y-214578244D02*
X246313605Y-209770841D01*
X246143423Y-92809374D02*
X246434926Y-93455126D01*
X226890584Y-87303452D02*
X227333516Y-89961048D01*
X208290496Y-184240018D02*
X207933604Y-186024482D01*
X287614816Y-204477457D02*
G75*
G02*
X288810124Y-207040869I-684016J-1879343D01*
G01*
X248257801Y-94632250D02*
X262612050Y-94632250D01*
X271590662Y-196623204D02*
G75*
G02*
X272652717Y-197527333I-684062J-1879396D01*
G01*
X264611103Y-191663021D02*
X264581945Y-192609925D01*
X245118260Y-207207416D02*
X248742621Y-197249565D01*
X220917796Y-182632250D02*
X210251658Y-182632250D01*
X229306304Y-91632250D02*
G75*
G02*
X227333553Y-89961042I-4J1999950D01*
G01*
X259521837Y-214578244D02*
G75*
G02*
X260583888Y-215482376I-684037J-1879356D01*
G01*
X187346641Y-90632250D02*
X201972442Y-90632250D01*
X280432394Y-224211003D02*
X262337760Y-217625094D01*
X189366742Y-189349407D02*
G75*
G02*
X191346641Y-187632333I1979858J-282893D01*
G01*
X207933603Y-186024482D02*
G75*
G02*
X205972442Y-187632331I-1961203J392182D01*
G01*
X244320547Y-91632250D02*
G75*
G02*
X246143357Y-92809404I-47J-1999950D01*
G01*
X248257802Y-94632250D02*
G75*
G02*
X246434952Y-93455114I-2J1999950D01*
G01*
X248248238Y-195122691D02*
X244626805Y-191646413D01*
X262612050Y-94632250D02*
G75*
G02*
X264612050Y-96632250I50J-1999950D01*
G01*
X220917796Y-182632250D02*
G75*
G02*
X222890547Y-184303458I4J-1999950D01*
G01*
X149612050Y-194632250D02*
X186877459Y-194632250D01*
X274406585Y-199670055D02*
G75*
G02*
X273344524Y-198765929I684015J1879355D01*
G01*
X288810162Y-207040883D02*
X282995819Y-223015658D01*
X147612050Y-192632250D02*
X147612050Y-99632250D01*
X240783623Y-188632250D02*
X225306304Y-188632250D01*
X265896958Y-194550866D02*
G75*
G02*
X264581966Y-192609926I684042J1879366D01*
G01*
X203933603Y-89024482D02*
G75*
G02*
X201972442Y-90632331I-1961203J392182D01*
G01*
X272652722Y-197527330D02*
X273344524Y-198765929D01*
X184857358Y-95915093D02*
G75*
G02*
X182877459Y-97632167I-1979858J282893D01*
G01*
X188857358Y-192915093D02*
G75*
G02*
X186877459Y-194632167I-1979858J282893D01*
G01*
X265896957Y-194550865D02*
X271590661Y-196623204D01*
X223333516Y-186961048D02*
X222890584Y-184303452D01*
X224917796Y-85632250D02*
G75*
G02*
X226890547Y-87303458I4J-1999950D01*
G01*
X203933604Y-89024482D02*
X204290496Y-87240018D01*
X206251658Y-85632250D02*
X224917796Y-85632250D01*
X244626805Y-191646413D02*
G75*
G02*
X244597593Y-191617793I1392895J1450913D01*
G01*
X205972442Y-187632250D02*
X191346641Y-187632250D01*
X282995820Y-223015657D02*
G75*
G02*
X280432383Y-224211034I-1879420J684057D01*
G01*
X147612050Y-99632250D02*
G75*
G02*
X149612050Y-97632250I1999950J50D01*
G01*
X261275699Y-216720969D02*
X260583898Y-215482370D01*
X204290497Y-87240018D02*
G75*
G02*
X206251658Y-85632169I1961203J-392182D01*
G01*
X274406585Y-199670054D02*
X287614817Y-204477458D01*
X189366742Y-189349407D02*
X188857358Y-192915093D01*
X208290497Y-184240018D02*
G75*
G02*
X210251658Y-182632169I1961203J-392182D01*
G01*
X225306304Y-188632250D02*
G75*
G02*
X223333553Y-186961042I-4J1999950D01*
G01*
X185366742Y-92349407D02*
G75*
G02*
X187346641Y-90632333I1979858J-282893D01*
G01*
X244597593Y-191617793D02*
X242197836Y-189218036D01*
X229306304Y-91632250D02*
X244320547Y-91632250D01*
X149612050Y-97632250D02*
X182877459Y-97632250D01*
X149612050Y-194632250D02*
G75*
G02*
X147612050Y-192632250I-50J1999950D01*
G01*
M02*
