M48
; DRILL file {KiCad 9.0.6} date 2025-11-12T16:58:21+0100
; FORMAT={-:-/ absolute / metric / decimal}
; #@! TF.CreationDate,2025-11-12T16:58:21+01:00
; #@! TF.GenerationSoftware,Kicad,Pcbnew,9.0.6
; #@! TF.FileFunction,Plated,1,2,PTH
FMAT,2
METRIC
; #@! TA.AperFunction,Plated,PTH,ViaDrill
T1C0.300
; #@! TA.AperFunction,Plated,PTH,ViaDrill
T2C0.400
; #@! TA.AperFunction,Plated,PTH,ComponentDrill
T3C0.900
; #@! TA.AperFunction,Plated,PTH,ComponentDrill
T4C0.991
; #@! TA.AperFunction,Plated,PTH,ComponentDrill
T5C1.092
%
G90
G05
T1
X237.5Y-116.722
X253.0Y-198.5
T2
X238.5Y-101.314
X238.5Y-105.5
T4
X166.412Y-100.822
X166.412Y-108.442
X166.412Y-126.822
X166.412Y-134.442
X166.412Y-145.822
X166.412Y-153.442
X166.412Y-157.822
X166.412Y-165.442
X166.412Y-183.822
X166.412Y-191.442
X185.412Y-107.822
X185.412Y-115.442
X185.412Y-126.822
X185.412Y-134.442
X185.412Y-145.822
X185.412Y-153.442
X185.412Y-164.822
X185.412Y-172.442
X185.412Y-183.822
X185.412Y-191.442
X204.412Y-100.822
X204.412Y-108.442
X204.412Y-119.822
X204.412Y-127.442
X204.412Y-131.822
X204.412Y-139.442
X204.412Y-157.822
X204.412Y-165.442
X204.412Y-176.822
X204.412Y-184.442
X223.412Y-95.822
X223.412Y-103.442
X223.412Y-115.822
X223.412Y-123.442
X223.412Y-133.822
X223.412Y-141.442
X223.412Y-152.822
X223.412Y-160.442
X223.412Y-172.822
X223.412Y-180.442
X242.412Y-101.822
X242.412Y-109.442
X242.412Y-120.822
X242.412Y-128.442
X242.412Y-139.822
X242.412Y-147.442
X242.412Y-158.822
X242.412Y-166.442
X242.412Y-177.822
X242.412Y-185.442
X261.412Y-104.822
X261.412Y-112.442
X261.412Y-136.322
X261.412Y-143.942
X261.412Y-148.822
X261.412Y-156.442
X261.412Y-161.822
X261.412Y-169.442
X261.412Y-180.822
X261.412Y-188.442
X263.191Y-212.519
X265.798Y-205.359
X280.396Y-220.803
X283.002Y-213.643
T5
X230.642Y-99.012
X230.642Y-114.252
X233.182Y-99.012
X233.182Y-114.252
X235.722Y-99.012
X235.722Y-114.252
X238.262Y-99.012
X238.262Y-114.252
X240.802Y-99.012
X240.802Y-114.252
X243.342Y-99.012
X243.342Y-114.252
X245.882Y-99.012
X245.882Y-114.252
X248.422Y-99.012
X248.422Y-114.252
X250.962Y-99.012
X250.962Y-114.252
X253.502Y-99.012
X253.502Y-114.252
X256.042Y-99.012
X256.042Y-114.252
X258.582Y-99.012
X258.582Y-114.252
T3
X250.812Y-116.682G85X250.212Y-116.682
G05
X250.812Y-121.282G85X250.212Y-121.282
G05
X251.912Y-116.682G85X251.312Y-116.682
G05
X251.912Y-121.282G85X251.312Y-121.282
G05
X255.912Y-116.682G85X255.312Y-116.682
G05
X255.912Y-121.282G85X255.312Y-121.282
G05
X258.912Y-116.682G85X258.312Y-116.682
G05
X258.912Y-121.282G85X258.312Y-121.282
G05
M30
