%TF.GenerationSoftware,KiCad,Pcbnew,9.0.6*%
%TF.CreationDate,2025-11-12T16:56:55+01:00*%
%TF.ProjectId,left_finished,6c656674-5f66-4696-9e69-736865642e6b,1*%
%TF.SameCoordinates,Original*%
%TF.FileFunction,Legend,Top*%
%TF.FilePolarity,Positive*%
%FSLAX46Y46*%
G04 Gerber Fmt 4.6, Leading zero omitted, Abs format (unit mm)*
G04 Created by KiCad (PCBNEW 9.0.6) date 2025-11-12 16:56:55*
%MOMM*%
%LPD*%
G01*
G04 APERTURE LIST*
%ADD10C,0.150000*%
%ADD11C,0.100000*%
%ADD12C,4.000000*%
%ADD13R,1.752600X1.752600*%
%ADD14C,1.752600*%
G04 APERTURE END LIST*
D10*
X236084345Y-102803678D02*
X235284345Y-102803678D01*
X235284345Y-102803678D02*
X235284345Y-102498916D01*
X235284345Y-102498916D02*
X235322440Y-102422726D01*
X235322440Y-102422726D02*
X235360535Y-102384631D01*
X235360535Y-102384631D02*
X235436726Y-102346535D01*
X235436726Y-102346535D02*
X235551011Y-102346535D01*
X235551011Y-102346535D02*
X235627202Y-102384631D01*
X235627202Y-102384631D02*
X235665297Y-102422726D01*
X235665297Y-102422726D02*
X235703392Y-102498916D01*
X235703392Y-102498916D02*
X235703392Y-102803678D01*
X236084345Y-101584631D02*
X236084345Y-102041774D01*
X236084345Y-101813202D02*
X235284345Y-101813202D01*
X235284345Y-101813202D02*
X235398630Y-101889393D01*
X235398630Y-101889393D02*
X235474821Y-101965583D01*
X235474821Y-101965583D02*
X235512916Y-102041774D01*
X235551011Y-100898916D02*
X236084345Y-100898916D01*
X235246250Y-101089392D02*
X235817678Y-101279869D01*
X235817678Y-101279869D02*
X235817678Y-100784630D01*
X246244345Y-112403678D02*
X245444345Y-112403678D01*
X245444345Y-112403678D02*
X245444345Y-112098916D01*
X245444345Y-112098916D02*
X245482440Y-112022726D01*
X245482440Y-112022726D02*
X245520535Y-111984631D01*
X245520535Y-111984631D02*
X245596726Y-111946535D01*
X245596726Y-111946535D02*
X245711011Y-111946535D01*
X245711011Y-111946535D02*
X245787202Y-111984631D01*
X245787202Y-111984631D02*
X245825297Y-112022726D01*
X245825297Y-112022726D02*
X245863392Y-112098916D01*
X245863392Y-112098916D02*
X245863392Y-112403678D01*
X245444345Y-111451297D02*
X245444345Y-111375107D01*
X245444345Y-111375107D02*
X245482440Y-111298916D01*
X245482440Y-111298916D02*
X245520535Y-111260821D01*
X245520535Y-111260821D02*
X245596726Y-111222726D01*
X245596726Y-111222726D02*
X245749107Y-111184631D01*
X245749107Y-111184631D02*
X245939583Y-111184631D01*
X245939583Y-111184631D02*
X246091964Y-111222726D01*
X246091964Y-111222726D02*
X246168154Y-111260821D01*
X246168154Y-111260821D02*
X246206250Y-111298916D01*
X246206250Y-111298916D02*
X246244345Y-111375107D01*
X246244345Y-111375107D02*
X246244345Y-111451297D01*
X246244345Y-111451297D02*
X246206250Y-111527488D01*
X246206250Y-111527488D02*
X246168154Y-111565583D01*
X246168154Y-111565583D02*
X246091964Y-111603678D01*
X246091964Y-111603678D02*
X245939583Y-111641774D01*
X245939583Y-111641774D02*
X245749107Y-111641774D01*
X245749107Y-111641774D02*
X245596726Y-111603678D01*
X245596726Y-111603678D02*
X245520535Y-111565583D01*
X245520535Y-111565583D02*
X245482440Y-111527488D01*
X245482440Y-111527488D02*
X245444345Y-111451297D01*
X245444345Y-110917964D02*
X245444345Y-110422726D01*
X245444345Y-110422726D02*
X245749107Y-110689392D01*
X245749107Y-110689392D02*
X245749107Y-110575107D01*
X245749107Y-110575107D02*
X245787202Y-110498916D01*
X245787202Y-110498916D02*
X245825297Y-110460821D01*
X245825297Y-110460821D02*
X245901488Y-110422726D01*
X245901488Y-110422726D02*
X246091964Y-110422726D01*
X246091964Y-110422726D02*
X246168154Y-110460821D01*
X246168154Y-110460821D02*
X246206250Y-110498916D01*
X246206250Y-110498916D02*
X246244345Y-110575107D01*
X246244345Y-110575107D02*
X246244345Y-110803678D01*
X246244345Y-110803678D02*
X246206250Y-110879869D01*
X246206250Y-110879869D02*
X246168154Y-110917964D01*
X248784345Y-112403678D02*
X247984345Y-112403678D01*
X247984345Y-112403678D02*
X247984345Y-112098916D01*
X247984345Y-112098916D02*
X248022440Y-112022726D01*
X248022440Y-112022726D02*
X248060535Y-111984631D01*
X248060535Y-111984631D02*
X248136726Y-111946535D01*
X248136726Y-111946535D02*
X248251011Y-111946535D01*
X248251011Y-111946535D02*
X248327202Y-111984631D01*
X248327202Y-111984631D02*
X248365297Y-112022726D01*
X248365297Y-112022726D02*
X248403392Y-112098916D01*
X248403392Y-112098916D02*
X248403392Y-112403678D01*
X247984345Y-111451297D02*
X247984345Y-111375107D01*
X247984345Y-111375107D02*
X248022440Y-111298916D01*
X248022440Y-111298916D02*
X248060535Y-111260821D01*
X248060535Y-111260821D02*
X248136726Y-111222726D01*
X248136726Y-111222726D02*
X248289107Y-111184631D01*
X248289107Y-111184631D02*
X248479583Y-111184631D01*
X248479583Y-111184631D02*
X248631964Y-111222726D01*
X248631964Y-111222726D02*
X248708154Y-111260821D01*
X248708154Y-111260821D02*
X248746250Y-111298916D01*
X248746250Y-111298916D02*
X248784345Y-111375107D01*
X248784345Y-111375107D02*
X248784345Y-111451297D01*
X248784345Y-111451297D02*
X248746250Y-111527488D01*
X248746250Y-111527488D02*
X248708154Y-111565583D01*
X248708154Y-111565583D02*
X248631964Y-111603678D01*
X248631964Y-111603678D02*
X248479583Y-111641774D01*
X248479583Y-111641774D02*
X248289107Y-111641774D01*
X248289107Y-111641774D02*
X248136726Y-111603678D01*
X248136726Y-111603678D02*
X248060535Y-111565583D01*
X248060535Y-111565583D02*
X248022440Y-111527488D01*
X248022440Y-111527488D02*
X247984345Y-111451297D01*
X248060535Y-110879869D02*
X248022440Y-110841773D01*
X248022440Y-110841773D02*
X247984345Y-110765583D01*
X247984345Y-110765583D02*
X247984345Y-110575107D01*
X247984345Y-110575107D02*
X248022440Y-110498916D01*
X248022440Y-110498916D02*
X248060535Y-110460821D01*
X248060535Y-110460821D02*
X248136726Y-110422726D01*
X248136726Y-110422726D02*
X248212916Y-110422726D01*
X248212916Y-110422726D02*
X248327202Y-110460821D01*
X248327202Y-110460821D02*
X248784345Y-110917964D01*
X248784345Y-110917964D02*
X248784345Y-110422726D01*
X231004345Y-102803678D02*
X230204345Y-102803678D01*
X230204345Y-102803678D02*
X230204345Y-102498916D01*
X230204345Y-102498916D02*
X230242440Y-102422726D01*
X230242440Y-102422726D02*
X230280535Y-102384631D01*
X230280535Y-102384631D02*
X230356726Y-102346535D01*
X230356726Y-102346535D02*
X230471011Y-102346535D01*
X230471011Y-102346535D02*
X230547202Y-102384631D01*
X230547202Y-102384631D02*
X230585297Y-102422726D01*
X230585297Y-102422726D02*
X230623392Y-102498916D01*
X230623392Y-102498916D02*
X230623392Y-102803678D01*
X231004345Y-101584631D02*
X231004345Y-102041774D01*
X231004345Y-101813202D02*
X230204345Y-101813202D01*
X230204345Y-101813202D02*
X230318630Y-101889393D01*
X230318630Y-101889393D02*
X230394821Y-101965583D01*
X230394821Y-101965583D02*
X230432916Y-102041774D01*
X230204345Y-101089392D02*
X230204345Y-101013202D01*
X230204345Y-101013202D02*
X230242440Y-100937011D01*
X230242440Y-100937011D02*
X230280535Y-100898916D01*
X230280535Y-100898916D02*
X230356726Y-100860821D01*
X230356726Y-100860821D02*
X230509107Y-100822726D01*
X230509107Y-100822726D02*
X230699583Y-100822726D01*
X230699583Y-100822726D02*
X230851964Y-100860821D01*
X230851964Y-100860821D02*
X230928154Y-100898916D01*
X230928154Y-100898916D02*
X230966250Y-100937011D01*
X230966250Y-100937011D02*
X231004345Y-101013202D01*
X231004345Y-101013202D02*
X231004345Y-101089392D01*
X231004345Y-101089392D02*
X230966250Y-101165583D01*
X230966250Y-101165583D02*
X230928154Y-101203678D01*
X230928154Y-101203678D02*
X230851964Y-101241773D01*
X230851964Y-101241773D02*
X230699583Y-101279869D01*
X230699583Y-101279869D02*
X230509107Y-101279869D01*
X230509107Y-101279869D02*
X230356726Y-101241773D01*
X230356726Y-101241773D02*
X230280535Y-101203678D01*
X230280535Y-101203678D02*
X230242440Y-101165583D01*
X230242440Y-101165583D02*
X230204345Y-101089392D01*
X258944345Y-102384630D02*
X258563392Y-102651297D01*
X258944345Y-102841773D02*
X258144345Y-102841773D01*
X258144345Y-102841773D02*
X258144345Y-102537011D01*
X258144345Y-102537011D02*
X258182440Y-102460821D01*
X258182440Y-102460821D02*
X258220535Y-102422726D01*
X258220535Y-102422726D02*
X258296726Y-102384630D01*
X258296726Y-102384630D02*
X258411011Y-102384630D01*
X258411011Y-102384630D02*
X258487202Y-102422726D01*
X258487202Y-102422726D02*
X258525297Y-102460821D01*
X258525297Y-102460821D02*
X258563392Y-102537011D01*
X258563392Y-102537011D02*
X258563392Y-102841773D01*
X258715773Y-102079869D02*
X258715773Y-101698916D01*
X258944345Y-102156059D02*
X258144345Y-101889392D01*
X258144345Y-101889392D02*
X258944345Y-101622726D01*
X258144345Y-101432250D02*
X258944345Y-101241774D01*
X258944345Y-101241774D02*
X258372916Y-101089393D01*
X258372916Y-101089393D02*
X258944345Y-100937012D01*
X258944345Y-100937012D02*
X258144345Y-100746536D01*
X231004345Y-112403678D02*
X230204345Y-112403678D01*
X230204345Y-112403678D02*
X230204345Y-112098916D01*
X230204345Y-112098916D02*
X230242440Y-112022726D01*
X230242440Y-112022726D02*
X230280535Y-111984631D01*
X230280535Y-111984631D02*
X230356726Y-111946535D01*
X230356726Y-111946535D02*
X230471011Y-111946535D01*
X230471011Y-111946535D02*
X230547202Y-111984631D01*
X230547202Y-111984631D02*
X230585297Y-112022726D01*
X230585297Y-112022726D02*
X230623392Y-112098916D01*
X230623392Y-112098916D02*
X230623392Y-112403678D01*
X230204345Y-111451297D02*
X230204345Y-111375107D01*
X230204345Y-111375107D02*
X230242440Y-111298916D01*
X230242440Y-111298916D02*
X230280535Y-111260821D01*
X230280535Y-111260821D02*
X230356726Y-111222726D01*
X230356726Y-111222726D02*
X230509107Y-111184631D01*
X230509107Y-111184631D02*
X230699583Y-111184631D01*
X230699583Y-111184631D02*
X230851964Y-111222726D01*
X230851964Y-111222726D02*
X230928154Y-111260821D01*
X230928154Y-111260821D02*
X230966250Y-111298916D01*
X230966250Y-111298916D02*
X231004345Y-111375107D01*
X231004345Y-111375107D02*
X231004345Y-111451297D01*
X231004345Y-111451297D02*
X230966250Y-111527488D01*
X230966250Y-111527488D02*
X230928154Y-111565583D01*
X230928154Y-111565583D02*
X230851964Y-111603678D01*
X230851964Y-111603678D02*
X230699583Y-111641774D01*
X230699583Y-111641774D02*
X230509107Y-111641774D01*
X230509107Y-111641774D02*
X230356726Y-111603678D01*
X230356726Y-111603678D02*
X230280535Y-111565583D01*
X230280535Y-111565583D02*
X230242440Y-111527488D01*
X230242440Y-111527488D02*
X230204345Y-111451297D01*
X231004345Y-110803678D02*
X231004345Y-110651297D01*
X231004345Y-110651297D02*
X230966250Y-110575107D01*
X230966250Y-110575107D02*
X230928154Y-110537011D01*
X230928154Y-110537011D02*
X230813869Y-110460821D01*
X230813869Y-110460821D02*
X230661488Y-110422726D01*
X230661488Y-110422726D02*
X230356726Y-110422726D01*
X230356726Y-110422726D02*
X230280535Y-110460821D01*
X230280535Y-110460821D02*
X230242440Y-110498916D01*
X230242440Y-110498916D02*
X230204345Y-110575107D01*
X230204345Y-110575107D02*
X230204345Y-110727488D01*
X230204345Y-110727488D02*
X230242440Y-110803678D01*
X230242440Y-110803678D02*
X230280535Y-110841773D01*
X230280535Y-110841773D02*
X230356726Y-110879869D01*
X230356726Y-110879869D02*
X230547202Y-110879869D01*
X230547202Y-110879869D02*
X230623392Y-110841773D01*
X230623392Y-110841773D02*
X230661488Y-110803678D01*
X230661488Y-110803678D02*
X230699583Y-110727488D01*
X230699583Y-110727488D02*
X230699583Y-110575107D01*
X230699583Y-110575107D02*
X230661488Y-110498916D01*
X230661488Y-110498916D02*
X230623392Y-110460821D01*
X230623392Y-110460821D02*
X230547202Y-110422726D01*
X258944345Y-112403678D02*
X258144345Y-112403678D01*
X258144345Y-112403678D02*
X258144345Y-112098916D01*
X258144345Y-112098916D02*
X258182440Y-112022726D01*
X258182440Y-112022726D02*
X258220535Y-111984631D01*
X258220535Y-111984631D02*
X258296726Y-111946535D01*
X258296726Y-111946535D02*
X258411011Y-111946535D01*
X258411011Y-111946535D02*
X258487202Y-111984631D01*
X258487202Y-111984631D02*
X258525297Y-112022726D01*
X258525297Y-112022726D02*
X258563392Y-112098916D01*
X258563392Y-112098916D02*
X258563392Y-112403678D01*
X258144345Y-111451297D02*
X258144345Y-111375107D01*
X258144345Y-111375107D02*
X258182440Y-111298916D01*
X258182440Y-111298916D02*
X258220535Y-111260821D01*
X258220535Y-111260821D02*
X258296726Y-111222726D01*
X258296726Y-111222726D02*
X258449107Y-111184631D01*
X258449107Y-111184631D02*
X258639583Y-111184631D01*
X258639583Y-111184631D02*
X258791964Y-111222726D01*
X258791964Y-111222726D02*
X258868154Y-111260821D01*
X258868154Y-111260821D02*
X258906250Y-111298916D01*
X258906250Y-111298916D02*
X258944345Y-111375107D01*
X258944345Y-111375107D02*
X258944345Y-111451297D01*
X258944345Y-111451297D02*
X258906250Y-111527488D01*
X258906250Y-111527488D02*
X258868154Y-111565583D01*
X258868154Y-111565583D02*
X258791964Y-111603678D01*
X258791964Y-111603678D02*
X258639583Y-111641774D01*
X258639583Y-111641774D02*
X258449107Y-111641774D01*
X258449107Y-111641774D02*
X258296726Y-111603678D01*
X258296726Y-111603678D02*
X258220535Y-111565583D01*
X258220535Y-111565583D02*
X258182440Y-111527488D01*
X258182440Y-111527488D02*
X258144345Y-111451297D01*
X258944345Y-110422726D02*
X258944345Y-110879869D01*
X258944345Y-110651297D02*
X258144345Y-110651297D01*
X258144345Y-110651297D02*
X258258630Y-110727488D01*
X258258630Y-110727488D02*
X258334821Y-110803678D01*
X258334821Y-110803678D02*
X258372916Y-110879869D01*
X255642440Y-102441773D02*
X255604345Y-102517963D01*
X255604345Y-102517963D02*
X255604345Y-102632249D01*
X255604345Y-102632249D02*
X255642440Y-102746535D01*
X255642440Y-102746535D02*
X255718630Y-102822725D01*
X255718630Y-102822725D02*
X255794821Y-102860820D01*
X255794821Y-102860820D02*
X255947202Y-102898916D01*
X255947202Y-102898916D02*
X256061488Y-102898916D01*
X256061488Y-102898916D02*
X256213869Y-102860820D01*
X256213869Y-102860820D02*
X256290059Y-102822725D01*
X256290059Y-102822725D02*
X256366250Y-102746535D01*
X256366250Y-102746535D02*
X256404345Y-102632249D01*
X256404345Y-102632249D02*
X256404345Y-102556058D01*
X256404345Y-102556058D02*
X256366250Y-102441773D01*
X256366250Y-102441773D02*
X256328154Y-102403677D01*
X256328154Y-102403677D02*
X256061488Y-102403677D01*
X256061488Y-102403677D02*
X256061488Y-102556058D01*
X256404345Y-102060820D02*
X255604345Y-102060820D01*
X255604345Y-102060820D02*
X256404345Y-101603677D01*
X256404345Y-101603677D02*
X255604345Y-101603677D01*
X256404345Y-101222725D02*
X255604345Y-101222725D01*
X255604345Y-101222725D02*
X255604345Y-101032249D01*
X255604345Y-101032249D02*
X255642440Y-100917963D01*
X255642440Y-100917963D02*
X255718630Y-100841773D01*
X255718630Y-100841773D02*
X255794821Y-100803678D01*
X255794821Y-100803678D02*
X255947202Y-100765582D01*
X255947202Y-100765582D02*
X256061488Y-100765582D01*
X256061488Y-100765582D02*
X256213869Y-100803678D01*
X256213869Y-100803678D02*
X256290059Y-100841773D01*
X256290059Y-100841773D02*
X256366250Y-100917963D01*
X256366250Y-100917963D02*
X256404345Y-101032249D01*
X256404345Y-101032249D02*
X256404345Y-101222725D01*
X241164345Y-112403678D02*
X240364345Y-112403678D01*
X240364345Y-112403678D02*
X240364345Y-112098916D01*
X240364345Y-112098916D02*
X240402440Y-112022726D01*
X240402440Y-112022726D02*
X240440535Y-111984631D01*
X240440535Y-111984631D02*
X240516726Y-111946535D01*
X240516726Y-111946535D02*
X240631011Y-111946535D01*
X240631011Y-111946535D02*
X240707202Y-111984631D01*
X240707202Y-111984631D02*
X240745297Y-112022726D01*
X240745297Y-112022726D02*
X240783392Y-112098916D01*
X240783392Y-112098916D02*
X240783392Y-112403678D01*
X240364345Y-111451297D02*
X240364345Y-111375107D01*
X240364345Y-111375107D02*
X240402440Y-111298916D01*
X240402440Y-111298916D02*
X240440535Y-111260821D01*
X240440535Y-111260821D02*
X240516726Y-111222726D01*
X240516726Y-111222726D02*
X240669107Y-111184631D01*
X240669107Y-111184631D02*
X240859583Y-111184631D01*
X240859583Y-111184631D02*
X241011964Y-111222726D01*
X241011964Y-111222726D02*
X241088154Y-111260821D01*
X241088154Y-111260821D02*
X241126250Y-111298916D01*
X241126250Y-111298916D02*
X241164345Y-111375107D01*
X241164345Y-111375107D02*
X241164345Y-111451297D01*
X241164345Y-111451297D02*
X241126250Y-111527488D01*
X241126250Y-111527488D02*
X241088154Y-111565583D01*
X241088154Y-111565583D02*
X241011964Y-111603678D01*
X241011964Y-111603678D02*
X240859583Y-111641774D01*
X240859583Y-111641774D02*
X240669107Y-111641774D01*
X240669107Y-111641774D02*
X240516726Y-111603678D01*
X240516726Y-111603678D02*
X240440535Y-111565583D01*
X240440535Y-111565583D02*
X240402440Y-111527488D01*
X240402440Y-111527488D02*
X240364345Y-111451297D01*
X240364345Y-110460821D02*
X240364345Y-110841773D01*
X240364345Y-110841773D02*
X240745297Y-110879869D01*
X240745297Y-110879869D02*
X240707202Y-110841773D01*
X240707202Y-110841773D02*
X240669107Y-110765583D01*
X240669107Y-110765583D02*
X240669107Y-110575107D01*
X240669107Y-110575107D02*
X240707202Y-110498916D01*
X240707202Y-110498916D02*
X240745297Y-110460821D01*
X240745297Y-110460821D02*
X240821488Y-110422726D01*
X240821488Y-110422726D02*
X241011964Y-110422726D01*
X241011964Y-110422726D02*
X241088154Y-110460821D01*
X241088154Y-110460821D02*
X241126250Y-110498916D01*
X241126250Y-110498916D02*
X241164345Y-110575107D01*
X241164345Y-110575107D02*
X241164345Y-110765583D01*
X241164345Y-110765583D02*
X241126250Y-110841773D01*
X241126250Y-110841773D02*
X241088154Y-110879869D01*
X253102440Y-112041773D02*
X253064345Y-112117963D01*
X253064345Y-112117963D02*
X253064345Y-112232249D01*
X253064345Y-112232249D02*
X253102440Y-112346535D01*
X253102440Y-112346535D02*
X253178630Y-112422725D01*
X253178630Y-112422725D02*
X253254821Y-112460820D01*
X253254821Y-112460820D02*
X253407202Y-112498916D01*
X253407202Y-112498916D02*
X253521488Y-112498916D01*
X253521488Y-112498916D02*
X253673869Y-112460820D01*
X253673869Y-112460820D02*
X253750059Y-112422725D01*
X253750059Y-112422725D02*
X253826250Y-112346535D01*
X253826250Y-112346535D02*
X253864345Y-112232249D01*
X253864345Y-112232249D02*
X253864345Y-112156058D01*
X253864345Y-112156058D02*
X253826250Y-112041773D01*
X253826250Y-112041773D02*
X253788154Y-112003677D01*
X253788154Y-112003677D02*
X253521488Y-112003677D01*
X253521488Y-112003677D02*
X253521488Y-112156058D01*
X253864345Y-111660820D02*
X253064345Y-111660820D01*
X253064345Y-111660820D02*
X253864345Y-111203677D01*
X253864345Y-111203677D02*
X253064345Y-111203677D01*
X253864345Y-110822725D02*
X253064345Y-110822725D01*
X253064345Y-110822725D02*
X253064345Y-110632249D01*
X253064345Y-110632249D02*
X253102440Y-110517963D01*
X253102440Y-110517963D02*
X253178630Y-110441773D01*
X253178630Y-110441773D02*
X253254821Y-110403678D01*
X253254821Y-110403678D02*
X253407202Y-110365582D01*
X253407202Y-110365582D02*
X253521488Y-110365582D01*
X253521488Y-110365582D02*
X253673869Y-110403678D01*
X253673869Y-110403678D02*
X253750059Y-110441773D01*
X253750059Y-110441773D02*
X253826250Y-110517963D01*
X253826250Y-110517963D02*
X253864345Y-110632249D01*
X253864345Y-110632249D02*
X253864345Y-110822725D01*
X246244345Y-102803678D02*
X245444345Y-102803678D01*
X245444345Y-102803678D02*
X245444345Y-102498916D01*
X245444345Y-102498916D02*
X245482440Y-102422726D01*
X245482440Y-102422726D02*
X245520535Y-102384631D01*
X245520535Y-102384631D02*
X245596726Y-102346535D01*
X245596726Y-102346535D02*
X245711011Y-102346535D01*
X245711011Y-102346535D02*
X245787202Y-102384631D01*
X245787202Y-102384631D02*
X245825297Y-102422726D01*
X245825297Y-102422726D02*
X245863392Y-102498916D01*
X245863392Y-102498916D02*
X245863392Y-102803678D01*
X245520535Y-102041774D02*
X245482440Y-102003678D01*
X245482440Y-102003678D02*
X245444345Y-101927488D01*
X245444345Y-101927488D02*
X245444345Y-101737012D01*
X245444345Y-101737012D02*
X245482440Y-101660821D01*
X245482440Y-101660821D02*
X245520535Y-101622726D01*
X245520535Y-101622726D02*
X245596726Y-101584631D01*
X245596726Y-101584631D02*
X245672916Y-101584631D01*
X245672916Y-101584631D02*
X245787202Y-101622726D01*
X245787202Y-101622726D02*
X246244345Y-102079869D01*
X246244345Y-102079869D02*
X246244345Y-101584631D01*
X245444345Y-101089392D02*
X245444345Y-101013202D01*
X245444345Y-101013202D02*
X245482440Y-100937011D01*
X245482440Y-100937011D02*
X245520535Y-100898916D01*
X245520535Y-100898916D02*
X245596726Y-100860821D01*
X245596726Y-100860821D02*
X245749107Y-100822726D01*
X245749107Y-100822726D02*
X245939583Y-100822726D01*
X245939583Y-100822726D02*
X246091964Y-100860821D01*
X246091964Y-100860821D02*
X246168154Y-100898916D01*
X246168154Y-100898916D02*
X246206250Y-100937011D01*
X246206250Y-100937011D02*
X246244345Y-101013202D01*
X246244345Y-101013202D02*
X246244345Y-101089392D01*
X246244345Y-101089392D02*
X246206250Y-101165583D01*
X246206250Y-101165583D02*
X246168154Y-101203678D01*
X246168154Y-101203678D02*
X246091964Y-101241773D01*
X246091964Y-101241773D02*
X245939583Y-101279869D01*
X245939583Y-101279869D02*
X245749107Y-101279869D01*
X245749107Y-101279869D02*
X245596726Y-101241773D01*
X245596726Y-101241773D02*
X245520535Y-101203678D01*
X245520535Y-101203678D02*
X245482440Y-101165583D01*
X245482440Y-101165583D02*
X245444345Y-101089392D01*
X243704345Y-112403678D02*
X242904345Y-112403678D01*
X242904345Y-112403678D02*
X242904345Y-112098916D01*
X242904345Y-112098916D02*
X242942440Y-112022726D01*
X242942440Y-112022726D02*
X242980535Y-111984631D01*
X242980535Y-111984631D02*
X243056726Y-111946535D01*
X243056726Y-111946535D02*
X243171011Y-111946535D01*
X243171011Y-111946535D02*
X243247202Y-111984631D01*
X243247202Y-111984631D02*
X243285297Y-112022726D01*
X243285297Y-112022726D02*
X243323392Y-112098916D01*
X243323392Y-112098916D02*
X243323392Y-112403678D01*
X242904345Y-111451297D02*
X242904345Y-111375107D01*
X242904345Y-111375107D02*
X242942440Y-111298916D01*
X242942440Y-111298916D02*
X242980535Y-111260821D01*
X242980535Y-111260821D02*
X243056726Y-111222726D01*
X243056726Y-111222726D02*
X243209107Y-111184631D01*
X243209107Y-111184631D02*
X243399583Y-111184631D01*
X243399583Y-111184631D02*
X243551964Y-111222726D01*
X243551964Y-111222726D02*
X243628154Y-111260821D01*
X243628154Y-111260821D02*
X243666250Y-111298916D01*
X243666250Y-111298916D02*
X243704345Y-111375107D01*
X243704345Y-111375107D02*
X243704345Y-111451297D01*
X243704345Y-111451297D02*
X243666250Y-111527488D01*
X243666250Y-111527488D02*
X243628154Y-111565583D01*
X243628154Y-111565583D02*
X243551964Y-111603678D01*
X243551964Y-111603678D02*
X243399583Y-111641774D01*
X243399583Y-111641774D02*
X243209107Y-111641774D01*
X243209107Y-111641774D02*
X243056726Y-111603678D01*
X243056726Y-111603678D02*
X242980535Y-111565583D01*
X242980535Y-111565583D02*
X242942440Y-111527488D01*
X242942440Y-111527488D02*
X242904345Y-111451297D01*
X243171011Y-110498916D02*
X243704345Y-110498916D01*
X242866250Y-110689392D02*
X243437678Y-110879869D01*
X243437678Y-110879869D02*
X243437678Y-110384630D01*
X243704345Y-102803678D02*
X242904345Y-102803678D01*
X242904345Y-102803678D02*
X242904345Y-102498916D01*
X242904345Y-102498916D02*
X242942440Y-102422726D01*
X242942440Y-102422726D02*
X242980535Y-102384631D01*
X242980535Y-102384631D02*
X243056726Y-102346535D01*
X243056726Y-102346535D02*
X243171011Y-102346535D01*
X243171011Y-102346535D02*
X243247202Y-102384631D01*
X243247202Y-102384631D02*
X243285297Y-102422726D01*
X243285297Y-102422726D02*
X243323392Y-102498916D01*
X243323392Y-102498916D02*
X243323392Y-102803678D01*
X243704345Y-101584631D02*
X243704345Y-102041774D01*
X243704345Y-101813202D02*
X242904345Y-101813202D01*
X242904345Y-101813202D02*
X243018630Y-101889393D01*
X243018630Y-101889393D02*
X243094821Y-101965583D01*
X243094821Y-101965583D02*
X243132916Y-102041774D01*
X243704345Y-101203678D02*
X243704345Y-101051297D01*
X243704345Y-101051297D02*
X243666250Y-100975107D01*
X243666250Y-100975107D02*
X243628154Y-100937011D01*
X243628154Y-100937011D02*
X243513869Y-100860821D01*
X243513869Y-100860821D02*
X243361488Y-100822726D01*
X243361488Y-100822726D02*
X243056726Y-100822726D01*
X243056726Y-100822726D02*
X242980535Y-100860821D01*
X242980535Y-100860821D02*
X242942440Y-100898916D01*
X242942440Y-100898916D02*
X242904345Y-100975107D01*
X242904345Y-100975107D02*
X242904345Y-101127488D01*
X242904345Y-101127488D02*
X242942440Y-101203678D01*
X242942440Y-101203678D02*
X242980535Y-101241773D01*
X242980535Y-101241773D02*
X243056726Y-101279869D01*
X243056726Y-101279869D02*
X243247202Y-101279869D01*
X243247202Y-101279869D02*
X243323392Y-101241773D01*
X243323392Y-101241773D02*
X243361488Y-101203678D01*
X243361488Y-101203678D02*
X243399583Y-101127488D01*
X243399583Y-101127488D02*
X243399583Y-100975107D01*
X243399583Y-100975107D02*
X243361488Y-100898916D01*
X243361488Y-100898916D02*
X243323392Y-100860821D01*
X243323392Y-100860821D02*
X243247202Y-100822726D01*
X238624345Y-112403678D02*
X237824345Y-112403678D01*
X237824345Y-112403678D02*
X237824345Y-112098916D01*
X237824345Y-112098916D02*
X237862440Y-112022726D01*
X237862440Y-112022726D02*
X237900535Y-111984631D01*
X237900535Y-111984631D02*
X237976726Y-111946535D01*
X237976726Y-111946535D02*
X238091011Y-111946535D01*
X238091011Y-111946535D02*
X238167202Y-111984631D01*
X238167202Y-111984631D02*
X238205297Y-112022726D01*
X238205297Y-112022726D02*
X238243392Y-112098916D01*
X238243392Y-112098916D02*
X238243392Y-112403678D01*
X237824345Y-111451297D02*
X237824345Y-111375107D01*
X237824345Y-111375107D02*
X237862440Y-111298916D01*
X237862440Y-111298916D02*
X237900535Y-111260821D01*
X237900535Y-111260821D02*
X237976726Y-111222726D01*
X237976726Y-111222726D02*
X238129107Y-111184631D01*
X238129107Y-111184631D02*
X238319583Y-111184631D01*
X238319583Y-111184631D02*
X238471964Y-111222726D01*
X238471964Y-111222726D02*
X238548154Y-111260821D01*
X238548154Y-111260821D02*
X238586250Y-111298916D01*
X238586250Y-111298916D02*
X238624345Y-111375107D01*
X238624345Y-111375107D02*
X238624345Y-111451297D01*
X238624345Y-111451297D02*
X238586250Y-111527488D01*
X238586250Y-111527488D02*
X238548154Y-111565583D01*
X238548154Y-111565583D02*
X238471964Y-111603678D01*
X238471964Y-111603678D02*
X238319583Y-111641774D01*
X238319583Y-111641774D02*
X238129107Y-111641774D01*
X238129107Y-111641774D02*
X237976726Y-111603678D01*
X237976726Y-111603678D02*
X237900535Y-111565583D01*
X237900535Y-111565583D02*
X237862440Y-111527488D01*
X237862440Y-111527488D02*
X237824345Y-111451297D01*
X237824345Y-110498916D02*
X237824345Y-110651297D01*
X237824345Y-110651297D02*
X237862440Y-110727488D01*
X237862440Y-110727488D02*
X237900535Y-110765583D01*
X237900535Y-110765583D02*
X238014821Y-110841773D01*
X238014821Y-110841773D02*
X238167202Y-110879869D01*
X238167202Y-110879869D02*
X238471964Y-110879869D01*
X238471964Y-110879869D02*
X238548154Y-110841773D01*
X238548154Y-110841773D02*
X238586250Y-110803678D01*
X238586250Y-110803678D02*
X238624345Y-110727488D01*
X238624345Y-110727488D02*
X238624345Y-110575107D01*
X238624345Y-110575107D02*
X238586250Y-110498916D01*
X238586250Y-110498916D02*
X238548154Y-110460821D01*
X238548154Y-110460821D02*
X238471964Y-110422726D01*
X238471964Y-110422726D02*
X238281488Y-110422726D01*
X238281488Y-110422726D02*
X238205297Y-110460821D01*
X238205297Y-110460821D02*
X238167202Y-110498916D01*
X238167202Y-110498916D02*
X238129107Y-110575107D01*
X238129107Y-110575107D02*
X238129107Y-110727488D01*
X238129107Y-110727488D02*
X238167202Y-110803678D01*
X238167202Y-110803678D02*
X238205297Y-110841773D01*
X238205297Y-110841773D02*
X238281488Y-110879869D01*
X256404345Y-112403678D02*
X255604345Y-112403678D01*
X255604345Y-112403678D02*
X255604345Y-112098916D01*
X255604345Y-112098916D02*
X255642440Y-112022726D01*
X255642440Y-112022726D02*
X255680535Y-111984631D01*
X255680535Y-111984631D02*
X255756726Y-111946535D01*
X255756726Y-111946535D02*
X255871011Y-111946535D01*
X255871011Y-111946535D02*
X255947202Y-111984631D01*
X255947202Y-111984631D02*
X255985297Y-112022726D01*
X255985297Y-112022726D02*
X256023392Y-112098916D01*
X256023392Y-112098916D02*
X256023392Y-112403678D01*
X255604345Y-111451297D02*
X255604345Y-111375107D01*
X255604345Y-111375107D02*
X255642440Y-111298916D01*
X255642440Y-111298916D02*
X255680535Y-111260821D01*
X255680535Y-111260821D02*
X255756726Y-111222726D01*
X255756726Y-111222726D02*
X255909107Y-111184631D01*
X255909107Y-111184631D02*
X256099583Y-111184631D01*
X256099583Y-111184631D02*
X256251964Y-111222726D01*
X256251964Y-111222726D02*
X256328154Y-111260821D01*
X256328154Y-111260821D02*
X256366250Y-111298916D01*
X256366250Y-111298916D02*
X256404345Y-111375107D01*
X256404345Y-111375107D02*
X256404345Y-111451297D01*
X256404345Y-111451297D02*
X256366250Y-111527488D01*
X256366250Y-111527488D02*
X256328154Y-111565583D01*
X256328154Y-111565583D02*
X256251964Y-111603678D01*
X256251964Y-111603678D02*
X256099583Y-111641774D01*
X256099583Y-111641774D02*
X255909107Y-111641774D01*
X255909107Y-111641774D02*
X255756726Y-111603678D01*
X255756726Y-111603678D02*
X255680535Y-111565583D01*
X255680535Y-111565583D02*
X255642440Y-111527488D01*
X255642440Y-111527488D02*
X255604345Y-111451297D01*
X255604345Y-110689392D02*
X255604345Y-110613202D01*
X255604345Y-110613202D02*
X255642440Y-110537011D01*
X255642440Y-110537011D02*
X255680535Y-110498916D01*
X255680535Y-110498916D02*
X255756726Y-110460821D01*
X255756726Y-110460821D02*
X255909107Y-110422726D01*
X255909107Y-110422726D02*
X256099583Y-110422726D01*
X256099583Y-110422726D02*
X256251964Y-110460821D01*
X256251964Y-110460821D02*
X256328154Y-110498916D01*
X256328154Y-110498916D02*
X256366250Y-110537011D01*
X256366250Y-110537011D02*
X256404345Y-110613202D01*
X256404345Y-110613202D02*
X256404345Y-110689392D01*
X256404345Y-110689392D02*
X256366250Y-110765583D01*
X256366250Y-110765583D02*
X256328154Y-110803678D01*
X256328154Y-110803678D02*
X256251964Y-110841773D01*
X256251964Y-110841773D02*
X256099583Y-110879869D01*
X256099583Y-110879869D02*
X255909107Y-110879869D01*
X255909107Y-110879869D02*
X255756726Y-110841773D01*
X255756726Y-110841773D02*
X255680535Y-110803678D01*
X255680535Y-110803678D02*
X255642440Y-110765583D01*
X255642440Y-110765583D02*
X255604345Y-110689392D01*
X241164345Y-102803678D02*
X240364345Y-102803678D01*
X240364345Y-102803678D02*
X240364345Y-102498916D01*
X240364345Y-102498916D02*
X240402440Y-102422726D01*
X240402440Y-102422726D02*
X240440535Y-102384631D01*
X240440535Y-102384631D02*
X240516726Y-102346535D01*
X240516726Y-102346535D02*
X240631011Y-102346535D01*
X240631011Y-102346535D02*
X240707202Y-102384631D01*
X240707202Y-102384631D02*
X240745297Y-102422726D01*
X240745297Y-102422726D02*
X240783392Y-102498916D01*
X240783392Y-102498916D02*
X240783392Y-102803678D01*
X241164345Y-101584631D02*
X241164345Y-102041774D01*
X241164345Y-101813202D02*
X240364345Y-101813202D01*
X240364345Y-101813202D02*
X240478630Y-101889393D01*
X240478630Y-101889393D02*
X240554821Y-101965583D01*
X240554821Y-101965583D02*
X240592916Y-102041774D01*
X240707202Y-101127488D02*
X240669107Y-101203678D01*
X240669107Y-101203678D02*
X240631011Y-101241773D01*
X240631011Y-101241773D02*
X240554821Y-101279869D01*
X240554821Y-101279869D02*
X240516726Y-101279869D01*
X240516726Y-101279869D02*
X240440535Y-101241773D01*
X240440535Y-101241773D02*
X240402440Y-101203678D01*
X240402440Y-101203678D02*
X240364345Y-101127488D01*
X240364345Y-101127488D02*
X240364345Y-100975107D01*
X240364345Y-100975107D02*
X240402440Y-100898916D01*
X240402440Y-100898916D02*
X240440535Y-100860821D01*
X240440535Y-100860821D02*
X240516726Y-100822726D01*
X240516726Y-100822726D02*
X240554821Y-100822726D01*
X240554821Y-100822726D02*
X240631011Y-100860821D01*
X240631011Y-100860821D02*
X240669107Y-100898916D01*
X240669107Y-100898916D02*
X240707202Y-100975107D01*
X240707202Y-100975107D02*
X240707202Y-101127488D01*
X240707202Y-101127488D02*
X240745297Y-101203678D01*
X240745297Y-101203678D02*
X240783392Y-101241773D01*
X240783392Y-101241773D02*
X240859583Y-101279869D01*
X240859583Y-101279869D02*
X241011964Y-101279869D01*
X241011964Y-101279869D02*
X241088154Y-101241773D01*
X241088154Y-101241773D02*
X241126250Y-101203678D01*
X241126250Y-101203678D02*
X241164345Y-101127488D01*
X241164345Y-101127488D02*
X241164345Y-100975107D01*
X241164345Y-100975107D02*
X241126250Y-100898916D01*
X241126250Y-100898916D02*
X241088154Y-100860821D01*
X241088154Y-100860821D02*
X241011964Y-100822726D01*
X241011964Y-100822726D02*
X240859583Y-100822726D01*
X240859583Y-100822726D02*
X240783392Y-100860821D01*
X240783392Y-100860821D02*
X240745297Y-100898916D01*
X240745297Y-100898916D02*
X240707202Y-100975107D01*
X250562440Y-112041773D02*
X250524345Y-112117963D01*
X250524345Y-112117963D02*
X250524345Y-112232249D01*
X250524345Y-112232249D02*
X250562440Y-112346535D01*
X250562440Y-112346535D02*
X250638630Y-112422725D01*
X250638630Y-112422725D02*
X250714821Y-112460820D01*
X250714821Y-112460820D02*
X250867202Y-112498916D01*
X250867202Y-112498916D02*
X250981488Y-112498916D01*
X250981488Y-112498916D02*
X251133869Y-112460820D01*
X251133869Y-112460820D02*
X251210059Y-112422725D01*
X251210059Y-112422725D02*
X251286250Y-112346535D01*
X251286250Y-112346535D02*
X251324345Y-112232249D01*
X251324345Y-112232249D02*
X251324345Y-112156058D01*
X251324345Y-112156058D02*
X251286250Y-112041773D01*
X251286250Y-112041773D02*
X251248154Y-112003677D01*
X251248154Y-112003677D02*
X250981488Y-112003677D01*
X250981488Y-112003677D02*
X250981488Y-112156058D01*
X251324345Y-111660820D02*
X250524345Y-111660820D01*
X250524345Y-111660820D02*
X251324345Y-111203677D01*
X251324345Y-111203677D02*
X250524345Y-111203677D01*
X251324345Y-110822725D02*
X250524345Y-110822725D01*
X250524345Y-110822725D02*
X250524345Y-110632249D01*
X250524345Y-110632249D02*
X250562440Y-110517963D01*
X250562440Y-110517963D02*
X250638630Y-110441773D01*
X250638630Y-110441773D02*
X250714821Y-110403678D01*
X250714821Y-110403678D02*
X250867202Y-110365582D01*
X250867202Y-110365582D02*
X250981488Y-110365582D01*
X250981488Y-110365582D02*
X251133869Y-110403678D01*
X251133869Y-110403678D02*
X251210059Y-110441773D01*
X251210059Y-110441773D02*
X251286250Y-110517963D01*
X251286250Y-110517963D02*
X251324345Y-110632249D01*
X251324345Y-110632249D02*
X251324345Y-110822725D01*
X233544345Y-112403678D02*
X232744345Y-112403678D01*
X232744345Y-112403678D02*
X232744345Y-112098916D01*
X232744345Y-112098916D02*
X232782440Y-112022726D01*
X232782440Y-112022726D02*
X232820535Y-111984631D01*
X232820535Y-111984631D02*
X232896726Y-111946535D01*
X232896726Y-111946535D02*
X233011011Y-111946535D01*
X233011011Y-111946535D02*
X233087202Y-111984631D01*
X233087202Y-111984631D02*
X233125297Y-112022726D01*
X233125297Y-112022726D02*
X233163392Y-112098916D01*
X233163392Y-112098916D02*
X233163392Y-112403678D01*
X232744345Y-111451297D02*
X232744345Y-111375107D01*
X232744345Y-111375107D02*
X232782440Y-111298916D01*
X232782440Y-111298916D02*
X232820535Y-111260821D01*
X232820535Y-111260821D02*
X232896726Y-111222726D01*
X232896726Y-111222726D02*
X233049107Y-111184631D01*
X233049107Y-111184631D02*
X233239583Y-111184631D01*
X233239583Y-111184631D02*
X233391964Y-111222726D01*
X233391964Y-111222726D02*
X233468154Y-111260821D01*
X233468154Y-111260821D02*
X233506250Y-111298916D01*
X233506250Y-111298916D02*
X233544345Y-111375107D01*
X233544345Y-111375107D02*
X233544345Y-111451297D01*
X233544345Y-111451297D02*
X233506250Y-111527488D01*
X233506250Y-111527488D02*
X233468154Y-111565583D01*
X233468154Y-111565583D02*
X233391964Y-111603678D01*
X233391964Y-111603678D02*
X233239583Y-111641774D01*
X233239583Y-111641774D02*
X233049107Y-111641774D01*
X233049107Y-111641774D02*
X232896726Y-111603678D01*
X232896726Y-111603678D02*
X232820535Y-111565583D01*
X232820535Y-111565583D02*
X232782440Y-111527488D01*
X232782440Y-111527488D02*
X232744345Y-111451297D01*
X233087202Y-110727488D02*
X233049107Y-110803678D01*
X233049107Y-110803678D02*
X233011011Y-110841773D01*
X233011011Y-110841773D02*
X232934821Y-110879869D01*
X232934821Y-110879869D02*
X232896726Y-110879869D01*
X232896726Y-110879869D02*
X232820535Y-110841773D01*
X232820535Y-110841773D02*
X232782440Y-110803678D01*
X232782440Y-110803678D02*
X232744345Y-110727488D01*
X232744345Y-110727488D02*
X232744345Y-110575107D01*
X232744345Y-110575107D02*
X232782440Y-110498916D01*
X232782440Y-110498916D02*
X232820535Y-110460821D01*
X232820535Y-110460821D02*
X232896726Y-110422726D01*
X232896726Y-110422726D02*
X232934821Y-110422726D01*
X232934821Y-110422726D02*
X233011011Y-110460821D01*
X233011011Y-110460821D02*
X233049107Y-110498916D01*
X233049107Y-110498916D02*
X233087202Y-110575107D01*
X233087202Y-110575107D02*
X233087202Y-110727488D01*
X233087202Y-110727488D02*
X233125297Y-110803678D01*
X233125297Y-110803678D02*
X233163392Y-110841773D01*
X233163392Y-110841773D02*
X233239583Y-110879869D01*
X233239583Y-110879869D02*
X233391964Y-110879869D01*
X233391964Y-110879869D02*
X233468154Y-110841773D01*
X233468154Y-110841773D02*
X233506250Y-110803678D01*
X233506250Y-110803678D02*
X233544345Y-110727488D01*
X233544345Y-110727488D02*
X233544345Y-110575107D01*
X233544345Y-110575107D02*
X233506250Y-110498916D01*
X233506250Y-110498916D02*
X233468154Y-110460821D01*
X233468154Y-110460821D02*
X233391964Y-110422726D01*
X233391964Y-110422726D02*
X233239583Y-110422726D01*
X233239583Y-110422726D02*
X233163392Y-110460821D01*
X233163392Y-110460821D02*
X233125297Y-110498916D01*
X233125297Y-110498916D02*
X233087202Y-110575107D01*
X238624345Y-102803678D02*
X237824345Y-102803678D01*
X237824345Y-102803678D02*
X237824345Y-102498916D01*
X237824345Y-102498916D02*
X237862440Y-102422726D01*
X237862440Y-102422726D02*
X237900535Y-102384631D01*
X237900535Y-102384631D02*
X237976726Y-102346535D01*
X237976726Y-102346535D02*
X238091011Y-102346535D01*
X238091011Y-102346535D02*
X238167202Y-102384631D01*
X238167202Y-102384631D02*
X238205297Y-102422726D01*
X238205297Y-102422726D02*
X238243392Y-102498916D01*
X238243392Y-102498916D02*
X238243392Y-102803678D01*
X238624345Y-101584631D02*
X238624345Y-102041774D01*
X238624345Y-101813202D02*
X237824345Y-101813202D01*
X237824345Y-101813202D02*
X237938630Y-101889393D01*
X237938630Y-101889393D02*
X238014821Y-101965583D01*
X238014821Y-101965583D02*
X238052916Y-102041774D01*
X237824345Y-100860821D02*
X237824345Y-101241773D01*
X237824345Y-101241773D02*
X238205297Y-101279869D01*
X238205297Y-101279869D02*
X238167202Y-101241773D01*
X238167202Y-101241773D02*
X238129107Y-101165583D01*
X238129107Y-101165583D02*
X238129107Y-100975107D01*
X238129107Y-100975107D02*
X238167202Y-100898916D01*
X238167202Y-100898916D02*
X238205297Y-100860821D01*
X238205297Y-100860821D02*
X238281488Y-100822726D01*
X238281488Y-100822726D02*
X238471964Y-100822726D01*
X238471964Y-100822726D02*
X238548154Y-100860821D01*
X238548154Y-100860821D02*
X238586250Y-100898916D01*
X238586250Y-100898916D02*
X238624345Y-100975107D01*
X238624345Y-100975107D02*
X238624345Y-101165583D01*
X238624345Y-101165583D02*
X238586250Y-101241773D01*
X238586250Y-101241773D02*
X238548154Y-101279869D01*
X253864345Y-102270344D02*
X253483392Y-102537011D01*
X253864345Y-102727487D02*
X253064345Y-102727487D01*
X253064345Y-102727487D02*
X253064345Y-102422725D01*
X253064345Y-102422725D02*
X253102440Y-102346535D01*
X253102440Y-102346535D02*
X253140535Y-102308440D01*
X253140535Y-102308440D02*
X253216726Y-102270344D01*
X253216726Y-102270344D02*
X253331011Y-102270344D01*
X253331011Y-102270344D02*
X253407202Y-102308440D01*
X253407202Y-102308440D02*
X253445297Y-102346535D01*
X253445297Y-102346535D02*
X253483392Y-102422725D01*
X253483392Y-102422725D02*
X253483392Y-102727487D01*
X253826250Y-101965583D02*
X253864345Y-101851297D01*
X253864345Y-101851297D02*
X253864345Y-101660821D01*
X253864345Y-101660821D02*
X253826250Y-101584630D01*
X253826250Y-101584630D02*
X253788154Y-101546535D01*
X253788154Y-101546535D02*
X253711964Y-101508440D01*
X253711964Y-101508440D02*
X253635773Y-101508440D01*
X253635773Y-101508440D02*
X253559583Y-101546535D01*
X253559583Y-101546535D02*
X253521488Y-101584630D01*
X253521488Y-101584630D02*
X253483392Y-101660821D01*
X253483392Y-101660821D02*
X253445297Y-101813202D01*
X253445297Y-101813202D02*
X253407202Y-101889392D01*
X253407202Y-101889392D02*
X253369107Y-101927487D01*
X253369107Y-101927487D02*
X253292916Y-101965583D01*
X253292916Y-101965583D02*
X253216726Y-101965583D01*
X253216726Y-101965583D02*
X253140535Y-101927487D01*
X253140535Y-101927487D02*
X253102440Y-101889392D01*
X253102440Y-101889392D02*
X253064345Y-101813202D01*
X253064345Y-101813202D02*
X253064345Y-101622725D01*
X253064345Y-101622725D02*
X253102440Y-101508440D01*
X253064345Y-101279868D02*
X253064345Y-100822725D01*
X253864345Y-101051297D02*
X253064345Y-101051297D01*
X236084345Y-112403678D02*
X235284345Y-112403678D01*
X235284345Y-112403678D02*
X235284345Y-112098916D01*
X235284345Y-112098916D02*
X235322440Y-112022726D01*
X235322440Y-112022726D02*
X235360535Y-111984631D01*
X235360535Y-111984631D02*
X235436726Y-111946535D01*
X235436726Y-111946535D02*
X235551011Y-111946535D01*
X235551011Y-111946535D02*
X235627202Y-111984631D01*
X235627202Y-111984631D02*
X235665297Y-112022726D01*
X235665297Y-112022726D02*
X235703392Y-112098916D01*
X235703392Y-112098916D02*
X235703392Y-112403678D01*
X235284345Y-111451297D02*
X235284345Y-111375107D01*
X235284345Y-111375107D02*
X235322440Y-111298916D01*
X235322440Y-111298916D02*
X235360535Y-111260821D01*
X235360535Y-111260821D02*
X235436726Y-111222726D01*
X235436726Y-111222726D02*
X235589107Y-111184631D01*
X235589107Y-111184631D02*
X235779583Y-111184631D01*
X235779583Y-111184631D02*
X235931964Y-111222726D01*
X235931964Y-111222726D02*
X236008154Y-111260821D01*
X236008154Y-111260821D02*
X236046250Y-111298916D01*
X236046250Y-111298916D02*
X236084345Y-111375107D01*
X236084345Y-111375107D02*
X236084345Y-111451297D01*
X236084345Y-111451297D02*
X236046250Y-111527488D01*
X236046250Y-111527488D02*
X236008154Y-111565583D01*
X236008154Y-111565583D02*
X235931964Y-111603678D01*
X235931964Y-111603678D02*
X235779583Y-111641774D01*
X235779583Y-111641774D02*
X235589107Y-111641774D01*
X235589107Y-111641774D02*
X235436726Y-111603678D01*
X235436726Y-111603678D02*
X235360535Y-111565583D01*
X235360535Y-111565583D02*
X235322440Y-111527488D01*
X235322440Y-111527488D02*
X235284345Y-111451297D01*
X235284345Y-110917964D02*
X235284345Y-110384630D01*
X235284345Y-110384630D02*
X236084345Y-110727488D01*
X250524345Y-102898916D02*
X251324345Y-102632249D01*
X251324345Y-102632249D02*
X250524345Y-102365583D01*
X251248154Y-101641773D02*
X251286250Y-101679869D01*
X251286250Y-101679869D02*
X251324345Y-101794154D01*
X251324345Y-101794154D02*
X251324345Y-101870345D01*
X251324345Y-101870345D02*
X251286250Y-101984631D01*
X251286250Y-101984631D02*
X251210059Y-102060821D01*
X251210059Y-102060821D02*
X251133869Y-102098916D01*
X251133869Y-102098916D02*
X250981488Y-102137012D01*
X250981488Y-102137012D02*
X250867202Y-102137012D01*
X250867202Y-102137012D02*
X250714821Y-102098916D01*
X250714821Y-102098916D02*
X250638630Y-102060821D01*
X250638630Y-102060821D02*
X250562440Y-101984631D01*
X250562440Y-101984631D02*
X250524345Y-101870345D01*
X250524345Y-101870345D02*
X250524345Y-101794154D01*
X250524345Y-101794154D02*
X250562440Y-101679869D01*
X250562440Y-101679869D02*
X250600535Y-101641773D01*
X251248154Y-100841773D02*
X251286250Y-100879869D01*
X251286250Y-100879869D02*
X251324345Y-100994154D01*
X251324345Y-100994154D02*
X251324345Y-101070345D01*
X251324345Y-101070345D02*
X251286250Y-101184631D01*
X251286250Y-101184631D02*
X251210059Y-101260821D01*
X251210059Y-101260821D02*
X251133869Y-101298916D01*
X251133869Y-101298916D02*
X250981488Y-101337012D01*
X250981488Y-101337012D02*
X250867202Y-101337012D01*
X250867202Y-101337012D02*
X250714821Y-101298916D01*
X250714821Y-101298916D02*
X250638630Y-101260821D01*
X250638630Y-101260821D02*
X250562440Y-101184631D01*
X250562440Y-101184631D02*
X250524345Y-101070345D01*
X250524345Y-101070345D02*
X250524345Y-100994154D01*
X250524345Y-100994154D02*
X250562440Y-100879869D01*
X250562440Y-100879869D02*
X250600535Y-100841773D01*
X233544345Y-102803678D02*
X232744345Y-102803678D01*
X232744345Y-102803678D02*
X232744345Y-102498916D01*
X232744345Y-102498916D02*
X232782440Y-102422726D01*
X232782440Y-102422726D02*
X232820535Y-102384631D01*
X232820535Y-102384631D02*
X232896726Y-102346535D01*
X232896726Y-102346535D02*
X233011011Y-102346535D01*
X233011011Y-102346535D02*
X233087202Y-102384631D01*
X233087202Y-102384631D02*
X233125297Y-102422726D01*
X233125297Y-102422726D02*
X233163392Y-102498916D01*
X233163392Y-102498916D02*
X233163392Y-102803678D01*
X233544345Y-101584631D02*
X233544345Y-102041774D01*
X233544345Y-101813202D02*
X232744345Y-101813202D01*
X232744345Y-101813202D02*
X232858630Y-101889393D01*
X232858630Y-101889393D02*
X232934821Y-101965583D01*
X232934821Y-101965583D02*
X232972916Y-102041774D01*
X232744345Y-100898916D02*
X232744345Y-101051297D01*
X232744345Y-101051297D02*
X232782440Y-101127488D01*
X232782440Y-101127488D02*
X232820535Y-101165583D01*
X232820535Y-101165583D02*
X232934821Y-101241773D01*
X232934821Y-101241773D02*
X233087202Y-101279869D01*
X233087202Y-101279869D02*
X233391964Y-101279869D01*
X233391964Y-101279869D02*
X233468154Y-101241773D01*
X233468154Y-101241773D02*
X233506250Y-101203678D01*
X233506250Y-101203678D02*
X233544345Y-101127488D01*
X233544345Y-101127488D02*
X233544345Y-100975107D01*
X233544345Y-100975107D02*
X233506250Y-100898916D01*
X233506250Y-100898916D02*
X233468154Y-100860821D01*
X233468154Y-100860821D02*
X233391964Y-100822726D01*
X233391964Y-100822726D02*
X233201488Y-100822726D01*
X233201488Y-100822726D02*
X233125297Y-100860821D01*
X233125297Y-100860821D02*
X233087202Y-100898916D01*
X233087202Y-100898916D02*
X233049107Y-100975107D01*
X233049107Y-100975107D02*
X233049107Y-101127488D01*
X233049107Y-101127488D02*
X233087202Y-101203678D01*
X233087202Y-101203678D02*
X233125297Y-101241773D01*
X233125297Y-101241773D02*
X233201488Y-101279869D01*
X248784345Y-102803678D02*
X247984345Y-102803678D01*
X247984345Y-102803678D02*
X247984345Y-102498916D01*
X247984345Y-102498916D02*
X248022440Y-102422726D01*
X248022440Y-102422726D02*
X248060535Y-102384631D01*
X248060535Y-102384631D02*
X248136726Y-102346535D01*
X248136726Y-102346535D02*
X248251011Y-102346535D01*
X248251011Y-102346535D02*
X248327202Y-102384631D01*
X248327202Y-102384631D02*
X248365297Y-102422726D01*
X248365297Y-102422726D02*
X248403392Y-102498916D01*
X248403392Y-102498916D02*
X248403392Y-102803678D01*
X248060535Y-102041774D02*
X248022440Y-102003678D01*
X248022440Y-102003678D02*
X247984345Y-101927488D01*
X247984345Y-101927488D02*
X247984345Y-101737012D01*
X247984345Y-101737012D02*
X248022440Y-101660821D01*
X248022440Y-101660821D02*
X248060535Y-101622726D01*
X248060535Y-101622726D02*
X248136726Y-101584631D01*
X248136726Y-101584631D02*
X248212916Y-101584631D01*
X248212916Y-101584631D02*
X248327202Y-101622726D01*
X248327202Y-101622726D02*
X248784345Y-102079869D01*
X248784345Y-102079869D02*
X248784345Y-101584631D01*
X248784345Y-100822726D02*
X248784345Y-101279869D01*
X248784345Y-101051297D02*
X247984345Y-101051297D01*
X247984345Y-101051297D02*
X248098630Y-101127488D01*
X248098630Y-101127488D02*
X248174821Y-101203678D01*
X248174821Y-101203678D02*
X248212916Y-101279869D01*
D11*
%TO.C,D18*%
X242012050Y-143382250D02*
X242812050Y-143382250D01*
X242412050Y-143382250D02*
X242412050Y-142882250D01*
X242412050Y-143982250D02*
X241862050Y-143982250D01*
X242412050Y-143982250D02*
X242012050Y-143382250D01*
X242412050Y-143982250D02*
X242962050Y-143982250D01*
X242412050Y-144382250D02*
X242412050Y-143982250D01*
X242812050Y-143382250D02*
X242412050Y-143982250D01*
%TO.C,D1*%
X166012050Y-187382250D02*
X166812050Y-187382250D01*
X166412050Y-187382250D02*
X166412050Y-186882250D01*
X166412050Y-187982250D02*
X165862050Y-187982250D01*
X166412050Y-187982250D02*
X166012050Y-187382250D01*
X166412050Y-187982250D02*
X166962050Y-187982250D01*
X166412050Y-188382250D02*
X166412050Y-187982250D01*
X166812050Y-187382250D02*
X166412050Y-187982250D01*
%TO.C,D11*%
X204012050Y-123382250D02*
X204812050Y-123382250D01*
X204412050Y-123382250D02*
X204412050Y-122882250D01*
X204412050Y-123982250D02*
X203862050Y-123982250D01*
X204412050Y-123982250D02*
X204012050Y-123382250D01*
X204412050Y-123982250D02*
X204962050Y-123982250D01*
X204412050Y-124382250D02*
X204412050Y-123982250D01*
X204812050Y-123382250D02*
X204412050Y-123982250D01*
%TO.C,D24*%
X261012050Y-139882250D02*
X261812050Y-139882250D01*
X261412050Y-139882250D02*
X261412050Y-139382250D01*
X261412050Y-140482250D02*
X260862050Y-140482250D01*
X261412050Y-140482250D02*
X261012050Y-139882250D01*
X261412050Y-140482250D02*
X261962050Y-140482250D01*
X261412050Y-140882250D02*
X261412050Y-140482250D01*
X261812050Y-139882250D02*
X261412050Y-140482250D01*
%TO.C,D16*%
X242012050Y-181382250D02*
X242812050Y-181382250D01*
X242412050Y-181382250D02*
X242412050Y-180882250D01*
X242412050Y-181982250D02*
X241862050Y-181982250D01*
X242412050Y-181982250D02*
X242012050Y-181382250D01*
X242412050Y-181982250D02*
X242962050Y-181982250D01*
X242412050Y-182382250D02*
X242412050Y-181982250D01*
X242812050Y-181382250D02*
X242412050Y-181982250D01*
%TO.C,D25*%
X261012050Y-152382250D02*
X261812050Y-152382250D01*
X261412050Y-152382250D02*
X261412050Y-151882250D01*
X261412050Y-152982250D02*
X260862050Y-152982250D01*
X261412050Y-152982250D02*
X261012050Y-152382250D01*
X261412050Y-152982250D02*
X261962050Y-152982250D01*
X261412050Y-153382250D02*
X261412050Y-152982250D01*
X261812050Y-152382250D02*
X261412050Y-152982250D01*
%TO.C,D6*%
X185012050Y-149382250D02*
X185812050Y-149382250D01*
X185412050Y-149382250D02*
X185412050Y-148882250D01*
X185412050Y-149982250D02*
X184862050Y-149982250D01*
X185412050Y-149982250D02*
X185012050Y-149382250D01*
X185412050Y-149982250D02*
X185962050Y-149982250D01*
X185412050Y-150382250D02*
X185412050Y-149982250D01*
X185812050Y-149382250D02*
X185412050Y-149982250D01*
%TO.C,D14*%
X223012050Y-137382250D02*
X223812050Y-137382250D01*
X223412050Y-137382250D02*
X223412050Y-136882250D01*
X223412050Y-137982250D02*
X222862050Y-137982250D01*
X223412050Y-137982250D02*
X223012050Y-137382250D01*
X223412050Y-137982250D02*
X223962050Y-137982250D01*
X223412050Y-138382250D02*
X223412050Y-137982250D01*
X223812050Y-137382250D02*
X223412050Y-137982250D01*
%TO.C,D13*%
X223012050Y-156382250D02*
X223812050Y-156382250D01*
X223412050Y-156382250D02*
X223412050Y-155882250D01*
X223412050Y-156982250D02*
X222862050Y-156982250D01*
X223412050Y-156982250D02*
X223012050Y-156382250D01*
X223412050Y-156982250D02*
X223962050Y-156982250D01*
X223412050Y-157382250D02*
X223412050Y-156982250D01*
X223812050Y-156382250D02*
X223412050Y-156982250D01*
%TO.C,D3*%
X166012050Y-130382250D02*
X166812050Y-130382250D01*
X166412050Y-130382250D02*
X166412050Y-129882250D01*
X166412050Y-130982250D02*
X165862050Y-130982250D01*
X166412050Y-130982250D02*
X166012050Y-130382250D01*
X166412050Y-130982250D02*
X166962050Y-130982250D01*
X166412050Y-131382250D02*
X166412050Y-130982250D01*
X166812050Y-130382250D02*
X166412050Y-130982250D01*
%TO.C,D20*%
X242012050Y-105382250D02*
X242812050Y-105382250D01*
X242412050Y-105382250D02*
X242412050Y-104882250D01*
X242412050Y-105982250D02*
X241862050Y-105982250D01*
X242412050Y-105982250D02*
X242012050Y-105382250D01*
X242412050Y-105982250D02*
X242962050Y-105982250D01*
X242412050Y-106382250D02*
X242412050Y-105982250D01*
X242812050Y-105382250D02*
X242412050Y-105982250D01*
%TO.C,D28*%
X204012050Y-135382250D02*
X204812050Y-135382250D01*
X204412050Y-135382250D02*
X204412050Y-134882250D01*
X204412050Y-135982250D02*
X203862050Y-135982250D01*
X204412050Y-135982250D02*
X204012050Y-135382250D01*
X204412050Y-135982250D02*
X204962050Y-135982250D01*
X204412050Y-136382250D02*
X204412050Y-135982250D01*
X204812050Y-135382250D02*
X204412050Y-135982250D01*
%TO.C,D10*%
X204012050Y-161382250D02*
X204812050Y-161382250D01*
X204412050Y-161382250D02*
X204412050Y-160882250D01*
X204412050Y-161982250D02*
X203862050Y-161982250D01*
X204412050Y-161982250D02*
X204012050Y-161382250D01*
X204412050Y-161982250D02*
X204962050Y-161982250D01*
X204412050Y-162382250D02*
X204412050Y-161982250D01*
X204812050Y-161382250D02*
X204412050Y-161982250D01*
%TO.C,D8*%
X185012050Y-111382250D02*
X185812050Y-111382250D01*
X185412050Y-111382250D02*
X185412050Y-110882250D01*
X185412050Y-111982250D02*
X184862050Y-111982250D01*
X185412050Y-111982250D02*
X185012050Y-111382250D01*
X185412050Y-111982250D02*
X185962050Y-111982250D01*
X185412050Y-112382250D02*
X185412050Y-111982250D01*
X185812050Y-111382250D02*
X185412050Y-111982250D01*
%TO.C,D31*%
X264204210Y-208567200D02*
X264955964Y-208840816D01*
X264238067Y-209643700D02*
X264374875Y-209267823D01*
X264374875Y-209267823D02*
X263858044Y-209079712D01*
X264374875Y-209267823D02*
X264204210Y-208567200D01*
X264374875Y-209267823D02*
X264891706Y-209455934D01*
X264580087Y-208704008D02*
X264751097Y-208234162D01*
X264955964Y-208840816D02*
X264374875Y-209267823D01*
%TO.C,D23*%
X261012050Y-108382250D02*
X261812050Y-108382250D01*
X261412050Y-108382250D02*
X261412050Y-107882250D01*
X261412050Y-108982250D02*
X260862050Y-108982250D01*
X261412050Y-108982250D02*
X261012050Y-108382250D01*
X261412050Y-108982250D02*
X261962050Y-108982250D01*
X261412050Y-109382250D02*
X261412050Y-108982250D01*
X261812050Y-108382250D02*
X261412050Y-108982250D01*
%TO.C,D30*%
X223012050Y-119382250D02*
X223812050Y-119382250D01*
X223412050Y-119382250D02*
X223412050Y-118882250D01*
X223412050Y-119982250D02*
X222862050Y-119982250D01*
X223412050Y-119982250D02*
X223012050Y-119382250D01*
X223412050Y-119982250D02*
X223962050Y-119982250D01*
X223412050Y-120382250D02*
X223412050Y-119982250D01*
X223812050Y-119382250D02*
X223412050Y-119982250D01*
%TO.C,D32*%
X281408531Y-216850999D02*
X282160285Y-217124615D01*
X281442388Y-217927499D02*
X281579196Y-217551622D01*
X281579196Y-217551622D02*
X281062365Y-217363511D01*
X281579196Y-217551622D02*
X281408531Y-216850999D01*
X281579196Y-217551622D02*
X282096027Y-217739733D01*
X281784408Y-216987807D02*
X281955418Y-216517961D01*
X282160285Y-217124615D02*
X281579196Y-217551622D01*
%TO.C,D7*%
X185012050Y-130382250D02*
X185812050Y-130382250D01*
X185412050Y-130382250D02*
X185412050Y-129882250D01*
X185412050Y-130982250D02*
X184862050Y-130982250D01*
X185412050Y-130982250D02*
X185012050Y-130382250D01*
X185412050Y-130982250D02*
X185962050Y-130982250D01*
X185412050Y-131382250D02*
X185412050Y-130982250D01*
X185812050Y-130382250D02*
X185412050Y-130982250D01*
%TO.C,D21*%
X261012050Y-184382250D02*
X261812050Y-184382250D01*
X261412050Y-184382250D02*
X261412050Y-183882250D01*
X261412050Y-184982250D02*
X260862050Y-184982250D01*
X261412050Y-184982250D02*
X261012050Y-184382250D01*
X261412050Y-184982250D02*
X261962050Y-184982250D01*
X261412050Y-185382250D02*
X261412050Y-184982250D01*
X261812050Y-184382250D02*
X261412050Y-184982250D01*
%TO.C,D27*%
X166012050Y-104382250D02*
X166812050Y-104382250D01*
X166412050Y-104382250D02*
X166412050Y-103882250D01*
X166412050Y-104982250D02*
X165862050Y-104982250D01*
X166412050Y-104982250D02*
X166012050Y-104382250D01*
X166412050Y-104982250D02*
X166962050Y-104982250D01*
X166412050Y-105382250D02*
X166412050Y-104982250D01*
X166812050Y-104382250D02*
X166412050Y-104982250D01*
%TO.C,D17*%
X242012050Y-162382250D02*
X242812050Y-162382250D01*
X242412050Y-162382250D02*
X242412050Y-161882250D01*
X242412050Y-162982250D02*
X241862050Y-162982250D01*
X242412050Y-162982250D02*
X242012050Y-162382250D01*
X242412050Y-162982250D02*
X242962050Y-162982250D01*
X242412050Y-163382250D02*
X242412050Y-162982250D01*
X242812050Y-162382250D02*
X242412050Y-162982250D01*
%TO.C,D22*%
X261012050Y-165382250D02*
X261812050Y-165382250D01*
X261412050Y-165382250D02*
X261412050Y-164882250D01*
X261412050Y-165982250D02*
X260862050Y-165982250D01*
X261412050Y-165982250D02*
X261012050Y-165382250D01*
X261412050Y-165982250D02*
X261962050Y-165982250D01*
X261412050Y-166382250D02*
X261412050Y-165982250D01*
X261812050Y-165382250D02*
X261412050Y-165982250D01*
%TO.C,D9*%
X204012050Y-180382250D02*
X204812050Y-180382250D01*
X204412050Y-180382250D02*
X204412050Y-179882250D01*
X204412050Y-180982250D02*
X203862050Y-180982250D01*
X204412050Y-180982250D02*
X204012050Y-180382250D01*
X204412050Y-180982250D02*
X204962050Y-180982250D01*
X204412050Y-181382250D02*
X204412050Y-180982250D01*
X204812050Y-180382250D02*
X204412050Y-180982250D01*
%TO.C,D29*%
X223012050Y-176382250D02*
X223812050Y-176382250D01*
X223412050Y-176382250D02*
X223412050Y-175882250D01*
X223412050Y-176982250D02*
X222862050Y-176982250D01*
X223412050Y-176982250D02*
X223012050Y-176382250D01*
X223412050Y-176982250D02*
X223962050Y-176982250D01*
X223412050Y-177382250D02*
X223412050Y-176982250D01*
X223812050Y-176382250D02*
X223412050Y-176982250D01*
%TO.C,D12*%
X204012050Y-104382250D02*
X204812050Y-104382250D01*
X204412050Y-104382250D02*
X204412050Y-103882250D01*
X204412050Y-104982250D02*
X203862050Y-104982250D01*
X204412050Y-104982250D02*
X204012050Y-104382250D01*
X204412050Y-104982250D02*
X204962050Y-104982250D01*
X204412050Y-105382250D02*
X204412050Y-104982250D01*
X204812050Y-104382250D02*
X204412050Y-104982250D01*
%TO.C,D19*%
X242012050Y-124382250D02*
X242812050Y-124382250D01*
X242412050Y-124382250D02*
X242412050Y-123882250D01*
X242412050Y-124982250D02*
X241862050Y-124982250D01*
X242412050Y-124982250D02*
X242012050Y-124382250D01*
X242412050Y-124982250D02*
X242962050Y-124982250D01*
X242412050Y-125382250D02*
X242412050Y-124982250D01*
X242812050Y-124382250D02*
X242412050Y-124982250D01*
%TO.C,D5*%
X185012050Y-168382250D02*
X185812050Y-168382250D01*
X185412050Y-168382250D02*
X185412050Y-167882250D01*
X185412050Y-168982250D02*
X184862050Y-168982250D01*
X185412050Y-168982250D02*
X185012050Y-168382250D01*
X185412050Y-168982250D02*
X185962050Y-168982250D01*
X185412050Y-169382250D02*
X185412050Y-168982250D01*
X185812050Y-168382250D02*
X185412050Y-168982250D01*
%TO.C,D26*%
X166012050Y-161382250D02*
X166812050Y-161382250D01*
X166412050Y-161382250D02*
X166412050Y-160882250D01*
X166412050Y-161982250D02*
X165862050Y-161982250D01*
X166412050Y-161982250D02*
X166012050Y-161382250D01*
X166412050Y-161982250D02*
X166962050Y-161982250D01*
X166412050Y-162382250D02*
X166412050Y-161982250D01*
X166812050Y-161382250D02*
X166412050Y-161982250D01*
%TO.C,D2*%
X166012050Y-149382250D02*
X166812050Y-149382250D01*
X166412050Y-149382250D02*
X166412050Y-148882250D01*
X166412050Y-149982250D02*
X165862050Y-149982250D01*
X166412050Y-149982250D02*
X166012050Y-149382250D01*
X166412050Y-149982250D02*
X166962050Y-149982250D01*
X166412050Y-150382250D02*
X166412050Y-149982250D01*
X166812050Y-149382250D02*
X166412050Y-149982250D01*
D10*
%TO.C,MCU1*%
X229372050Y-97742250D02*
X229372050Y-115522250D01*
X229372050Y-115522250D02*
X262392050Y-115522250D01*
X257312050Y-100282250D02*
X257312050Y-97742250D01*
X259852050Y-100282250D02*
X257312050Y-100282250D01*
X259852050Y-100282250D02*
X259852050Y-97742250D01*
X262392050Y-97742250D02*
X229372050Y-97742250D01*
X262392050Y-115522250D02*
X262392050Y-97742250D01*
D11*
%TO.C,D15*%
X223012050Y-99382250D02*
X223812050Y-99382250D01*
X223412050Y-99382250D02*
X223412050Y-98882250D01*
X223412050Y-99982250D02*
X222862050Y-99982250D01*
X223412050Y-99982250D02*
X223012050Y-99382250D01*
X223412050Y-99982250D02*
X223962050Y-99982250D01*
X223412050Y-100382250D02*
X223412050Y-99982250D01*
X223812050Y-99382250D02*
X223412050Y-99982250D01*
%TO.C,D4*%
X185012050Y-187382250D02*
X185812050Y-187382250D01*
X185412050Y-187382250D02*
X185412050Y-186882250D01*
X185412050Y-187982250D02*
X184862050Y-187982250D01*
X185412050Y-187982250D02*
X185012050Y-187382250D01*
X185412050Y-187982250D02*
X185962050Y-187982250D01*
X185412050Y-188382250D02*
X185412050Y-187982250D01*
X185812050Y-187382250D02*
X185412050Y-187982250D01*
%TD*%
D12*
%TO.C,*%
X225612050Y-169632250D03*
%TD*%
%TO.C,*%
X206612050Y-144632250D03*
%TD*%
%TO.C,*%
X167612050Y-173632250D03*
%TD*%
%TO.C,*%
X225612050Y-112632250D03*
%TD*%
%TO.C,*%
X253922000Y-194129795D03*
%TD*%
D13*
%TO.C,MCU1*%
X258582050Y-99012250D03*
D14*
X256042050Y-99012250D03*
X253502050Y-99012250D03*
X250962050Y-99012250D03*
X248422050Y-99012250D03*
X245882050Y-99012250D03*
X243342050Y-99012250D03*
X240802050Y-99012250D03*
X238262050Y-99012250D03*
X235722050Y-99012250D03*
X233182050Y-99012250D03*
X230642050Y-99012250D03*
X258582050Y-114252250D03*
X256042050Y-114252250D03*
X253502050Y-114252250D03*
X250962050Y-114252250D03*
X248422050Y-114252250D03*
X245882050Y-114252250D03*
X243342050Y-114252250D03*
X240802050Y-114252250D03*
X238262050Y-114252250D03*
X235722050Y-114252250D03*
X233182050Y-114252250D03*
X230642050Y-114252250D03*
%TD*%
D12*
%TO.C,*%
X168612050Y-116632250D03*
%TD*%
M02*
