%TF.GenerationSoftware,KiCad,Pcbnew,9.0.6*%
%TF.CreationDate,2025-11-12T16:56:55+01:00*%
%TF.ProjectId,left_finished,6c656674-5f66-4696-9e69-736865642e6b,1*%
%TF.SameCoordinates,Original*%
%TF.FileFunction,Copper,L1,Top*%
%TF.FilePolarity,Positive*%
%FSLAX46Y46*%
G04 Gerber Fmt 4.6, Leading zero omitted, Abs format (unit mm)*
G04 Created by KiCad (PCBNEW 9.0.6) date 2025-11-12 16:56:55*
%MOMM*%
%LPD*%
G01*
G04 APERTURE LIST*
G04 Aperture macros list*
%AMRotRect*
0 Rectangle, with rotation*
0 The origin of the aperture is its center*
0 $1 length*
0 $2 width*
0 $3 Rotation angle, in degrees counterclockwise*
0 Add horizontal line*
21,1,$1,$2,0,0,$3*%
G04 Aperture macros list end*
%TA.AperFunction,ComponentPad*%
%ADD10R,1.778000X1.778000*%
%TD*%
%TA.AperFunction,SMDPad,CuDef*%
%ADD11R,1.200000X0.900000*%
%TD*%
%TA.AperFunction,ComponentPad*%
%ADD12C,1.905000*%
%TD*%
%TA.AperFunction,ComponentPad*%
%ADD13RotRect,1.778000X1.778000X70.000000*%
%TD*%
%TA.AperFunction,SMDPad,CuDef*%
%ADD14RotRect,0.900000X1.200000X70.000000*%
%TD*%
%TA.AperFunction,ComponentPad*%
%ADD15O,2.200000X1.600000*%
%TD*%
%TA.AperFunction,ComponentPad*%
%ADD16R,1.752600X1.752600*%
%TD*%
%TA.AperFunction,ComponentPad*%
%ADD17C,1.752600*%
%TD*%
%TA.AperFunction,ViaPad*%
%ADD18C,0.800000*%
%TD*%
%TA.AperFunction,ViaPad*%
%ADD19C,0.600000*%
%TD*%
%TA.AperFunction,Conductor*%
%ADD20C,0.250000*%
%TD*%
%TA.AperFunction,Conductor*%
%ADD21C,0.200000*%
%TD*%
G04 APERTURE END LIST*
D10*
%TO.P,D18,1*%
%TO.N,P4*%
X242412050Y-147442250D03*
D11*
X242412050Y-145282250D03*
%TO.P,D18,2*%
%TO.N,fifth_home*%
X242412050Y-141982250D03*
D12*
X242412050Y-139822250D03*
%TD*%
D10*
%TO.P,D1,1*%
%TO.N,P2*%
X166412050Y-191442250D03*
D11*
X166412050Y-189282250D03*
%TO.P,D1,2*%
%TO.N,first_mod*%
X166412050Y-185982250D03*
D12*
X166412050Y-183822250D03*
%TD*%
D10*
%TO.P,D11,1*%
%TO.N,P5*%
X204412050Y-127442250D03*
D11*
X204412050Y-125282250D03*
%TO.P,D11,2*%
%TO.N,third_top*%
X204412050Y-121982250D03*
D12*
X204412050Y-119822250D03*
%TD*%
D10*
%TO.P,D24,1*%
%TO.N,P5*%
X261412050Y-143942250D03*
D11*
X261412050Y-141782250D03*
%TO.P,D24,2*%
%TO.N,sixth_top*%
X261412050Y-138482250D03*
D12*
X261412050Y-136322250D03*
%TD*%
D10*
%TO.P,D16,1*%
%TO.N,P2*%
X242412050Y-185442250D03*
D11*
X242412050Y-183282250D03*
%TO.P,D16,2*%
%TO.N,fifth_mod*%
X242412050Y-179982250D03*
D12*
X242412050Y-177822250D03*
%TD*%
D10*
%TO.P,D25,1*%
%TO.N,P4*%
X261412050Y-156442250D03*
D11*
X261412050Y-154282250D03*
%TO.P,D25,2*%
%TO.N,sixth_home*%
X261412050Y-150982250D03*
D12*
X261412050Y-148822250D03*
%TD*%
D10*
%TO.P,D6,1*%
%TO.N,P4*%
X185412050Y-153442250D03*
D11*
X185412050Y-151282250D03*
%TO.P,D6,2*%
%TO.N,second_home*%
X185412050Y-147982250D03*
D12*
X185412050Y-145822250D03*
%TD*%
D10*
%TO.P,D14,1*%
%TO.N,P4*%
X223412050Y-141442250D03*
D11*
X223412050Y-139282250D03*
%TO.P,D14,2*%
%TO.N,fourth_home*%
X223412050Y-135982250D03*
D12*
X223412050Y-133822250D03*
%TD*%
D10*
%TO.P,D13,1*%
%TO.N,P3*%
X223412050Y-160442250D03*
D11*
X223412050Y-158282250D03*
%TO.P,D13,2*%
%TO.N,fourth_bottom*%
X223412050Y-154982250D03*
D12*
X223412050Y-152822250D03*
%TD*%
D10*
%TO.P,D3,1*%
%TO.N,P5*%
X166412050Y-134442250D03*
D11*
X166412050Y-132282250D03*
%TO.P,D3,2*%
%TO.N,first_top*%
X166412050Y-128982250D03*
D12*
X166412050Y-126822250D03*
%TD*%
D10*
%TO.P,D20,1*%
%TO.N,P6*%
X242412050Y-109442250D03*
D11*
X242412050Y-107282250D03*
%TO.P,D20,2*%
%TO.N,fifth_num*%
X242412050Y-103982250D03*
D12*
X242412050Y-101822250D03*
%TD*%
D10*
%TO.P,D28,1*%
%TO.N,P4*%
X204412050Y-139442250D03*
D11*
X204412050Y-137282250D03*
%TO.P,D28,2*%
%TO.N,third_home*%
X204412050Y-133982250D03*
D12*
X204412050Y-131822250D03*
%TD*%
D10*
%TO.P,D10,1*%
%TO.N,P3*%
X204412050Y-165442250D03*
D11*
X204412050Y-163282250D03*
%TO.P,D10,2*%
%TO.N,third_bottom*%
X204412050Y-159982250D03*
D12*
X204412050Y-157822250D03*
%TD*%
D10*
%TO.P,D8,1*%
%TO.N,P6*%
X185412050Y-115442250D03*
D11*
X185412050Y-113282250D03*
%TO.P,D8,2*%
%TO.N,second_num*%
X185412050Y-109982250D03*
D12*
X185412050Y-107822250D03*
%TD*%
D13*
%TO.P,D31,1*%
%TO.N,P7*%
X263191485Y-212519160D03*
D14*
X263930249Y-210489424D03*
%TO.P,D31,2*%
%TO.N,t1_thumb*%
X265058915Y-207388438D03*
D12*
X265797679Y-205358702D03*
%TD*%
D10*
%TO.P,D23,1*%
%TO.N,P6*%
X261412050Y-112442250D03*
D11*
X261412050Y-110282250D03*
%TO.P,D23,2*%
%TO.N,sixth_num*%
X261412050Y-106982250D03*
D12*
X261412050Y-104822250D03*
%TD*%
D10*
%TO.P,D30,1*%
%TO.N,P5*%
X223412050Y-123442250D03*
D11*
X223412050Y-121282250D03*
%TO.P,D30,2*%
%TO.N,fourth_top*%
X223412050Y-117982250D03*
D12*
X223412050Y-115822250D03*
%TD*%
D13*
%TO.P,D32,1*%
%TO.N,P7*%
X280395806Y-220802959D03*
D14*
X281134570Y-218773223D03*
%TO.P,D32,2*%
%TO.N,t2_thumb*%
X282263236Y-215672237D03*
D12*
X283002000Y-213642501D03*
%TD*%
D10*
%TO.P,D7,1*%
%TO.N,P5*%
X185412050Y-134442250D03*
D11*
X185412050Y-132282250D03*
%TO.P,D7,2*%
%TO.N,second_top*%
X185412050Y-128982250D03*
D12*
X185412050Y-126822250D03*
%TD*%
D10*
%TO.P,D21,1*%
%TO.N,P2*%
X261412050Y-188442250D03*
D11*
X261412050Y-186282250D03*
%TO.P,D21,2*%
%TO.N,sixth_mod*%
X261412050Y-182982250D03*
D12*
X261412050Y-180822250D03*
%TD*%
D10*
%TO.P,D27,1*%
%TO.N,P6*%
X166412050Y-108442250D03*
D11*
X166412050Y-106282250D03*
%TO.P,D27,2*%
%TO.N,first_num*%
X166412050Y-102982250D03*
D12*
X166412050Y-100822250D03*
%TD*%
D10*
%TO.P,D17,1*%
%TO.N,P3*%
X242412050Y-166442250D03*
D11*
X242412050Y-164282250D03*
%TO.P,D17,2*%
%TO.N,fifth_bottom*%
X242412050Y-160982250D03*
D12*
X242412050Y-158822250D03*
%TD*%
D10*
%TO.P,D22,1*%
%TO.N,P3*%
X261412050Y-169442250D03*
D11*
X261412050Y-167282250D03*
%TO.P,D22,2*%
%TO.N,sixth_bottom*%
X261412050Y-163982250D03*
D12*
X261412050Y-161822250D03*
%TD*%
D10*
%TO.P,D9,1*%
%TO.N,P2*%
X204412050Y-184442250D03*
D11*
X204412050Y-182282250D03*
%TO.P,D9,2*%
%TO.N,third_mod*%
X204412050Y-178982250D03*
D12*
X204412050Y-176822250D03*
%TD*%
D10*
%TO.P,D29,1*%
%TO.N,P2*%
X223412050Y-180442250D03*
D11*
X223412050Y-178282250D03*
%TO.P,D29,2*%
%TO.N,fourth_mod*%
X223412050Y-174982250D03*
D12*
X223412050Y-172822250D03*
%TD*%
D10*
%TO.P,D12,1*%
%TO.N,P6*%
X204412050Y-108442250D03*
D11*
X204412050Y-106282250D03*
%TO.P,D12,2*%
%TO.N,third_num*%
X204412050Y-102982250D03*
D12*
X204412050Y-100822250D03*
%TD*%
D10*
%TO.P,D19,1*%
%TO.N,P5*%
X242412050Y-128442250D03*
D11*
X242412050Y-126282250D03*
%TO.P,D19,2*%
%TO.N,fifth_top*%
X242412050Y-122982250D03*
D12*
X242412050Y-120822250D03*
%TD*%
D15*
%TO.P,TRRS1,1*%
%TO.N,GND*%
X250512050Y-116682250D03*
X250512050Y-121282250D03*
%TO.P,TRRS1,2*%
X251612050Y-116682250D03*
X251612050Y-121282250D03*
%TO.P,TRRS1,3*%
%TO.N,P21*%
X255612050Y-116682250D03*
X255612050Y-121282250D03*
%TO.P,TRRS1,4*%
%TO.N,VCC*%
X258612050Y-116682250D03*
X258612050Y-121282250D03*
%TD*%
D10*
%TO.P,D5,1*%
%TO.N,P3*%
X185412050Y-172442250D03*
D11*
X185412050Y-170282250D03*
%TO.P,D5,2*%
%TO.N,second_bottom*%
X185412050Y-166982250D03*
D12*
X185412050Y-164822250D03*
%TD*%
D10*
%TO.P,D26,1*%
%TO.N,P3*%
X166412050Y-165442250D03*
D11*
X166412050Y-163282250D03*
%TO.P,D26,2*%
%TO.N,first_bottom*%
X166412050Y-159982250D03*
D12*
X166412050Y-157822250D03*
%TD*%
D10*
%TO.P,D2,1*%
%TO.N,P4*%
X166412050Y-153442250D03*
D11*
X166412050Y-151282250D03*
%TO.P,D2,2*%
%TO.N,first_home*%
X166412050Y-147982250D03*
D12*
X166412050Y-145822250D03*
%TD*%
D16*
%TO.P,MCU1,1*%
%TO.N,RAW*%
X258582050Y-99012250D03*
D17*
%TO.P,MCU1,2*%
%TO.N,GND*%
X256042050Y-99012250D03*
%TO.P,MCU1,3*%
%TO.N,RST*%
X253502050Y-99012250D03*
%TO.P,MCU1,4*%
%TO.N,VCC*%
X250962050Y-99012250D03*
%TO.P,MCU1,5*%
%TO.N,P21*%
X248422050Y-99012250D03*
%TO.P,MCU1,6*%
%TO.N,P20*%
X245882050Y-99012250D03*
%TO.P,MCU1,7*%
%TO.N,P19*%
X243342050Y-99012250D03*
%TO.P,MCU1,8*%
%TO.N,P18*%
X240802050Y-99012250D03*
%TO.P,MCU1,9*%
%TO.N,P15*%
X238262050Y-99012250D03*
%TO.P,MCU1,10*%
%TO.N,P14*%
X235722050Y-99012250D03*
%TO.P,MCU1,11*%
%TO.N,P16*%
X233182050Y-99012250D03*
%TO.P,MCU1,12*%
%TO.N,P10*%
X230642050Y-99012250D03*
%TO.P,MCU1,13*%
%TO.N,P1*%
X258582050Y-114252250D03*
%TO.P,MCU1,14*%
%TO.N,P0*%
X256042050Y-114252250D03*
%TO.P,MCU1,15*%
%TO.N,GND*%
X253502050Y-114252250D03*
%TO.P,MCU1,16*%
X250962050Y-114252250D03*
%TO.P,MCU1,17*%
%TO.N,P2*%
X248422050Y-114252250D03*
%TO.P,MCU1,18*%
%TO.N,P3*%
X245882050Y-114252250D03*
%TO.P,MCU1,19*%
%TO.N,P4*%
X243342050Y-114252250D03*
%TO.P,MCU1,20*%
%TO.N,P5*%
X240802050Y-114252250D03*
%TO.P,MCU1,21*%
%TO.N,P6*%
X238262050Y-114252250D03*
%TO.P,MCU1,22*%
%TO.N,P7*%
X235722050Y-114252250D03*
%TO.P,MCU1,23*%
%TO.N,P8*%
X233182050Y-114252250D03*
%TO.P,MCU1,24*%
%TO.N,P9*%
X230642050Y-114252250D03*
%TD*%
D10*
%TO.P,D15,1*%
%TO.N,P6*%
X223412050Y-103442250D03*
D11*
X223412050Y-101282250D03*
%TO.P,D15,2*%
%TO.N,fourth_num*%
X223412050Y-97982250D03*
D12*
X223412050Y-95822250D03*
%TD*%
D10*
%TO.P,D4,1*%
%TO.N,P2*%
X185412050Y-191442250D03*
D11*
X185412050Y-189282250D03*
%TO.P,D4,2*%
%TO.N,second_mod*%
X185412050Y-185982250D03*
D12*
X185412050Y-183822250D03*
%TD*%
D18*
%TO.N,P18*%
X238500000Y-105500000D03*
X238500000Y-101314300D03*
D19*
%TO.N,P7*%
X237500000Y-116722050D03*
X253000000Y-198500000D03*
%TD*%
D20*
%TO.N,first_mod*%
X166412050Y-183822250D02*
X166412050Y-185982250D01*
%TO.N,first_bottom*%
X166412050Y-159982250D02*
X166412050Y-157822250D01*
%TO.N,first_home*%
X166412050Y-145822250D02*
X166412050Y-147982250D01*
%TO.N,first_top*%
X166412050Y-128982250D02*
X166412050Y-126822250D01*
%TO.N,first_num*%
X166412050Y-100822250D02*
X166412050Y-102982250D01*
%TO.N,second_mod*%
X185412050Y-183822250D02*
X185412050Y-185982250D01*
%TO.N,second_bottom*%
X185412050Y-166982250D02*
X185412050Y-164822250D01*
%TO.N,second_home*%
X185412050Y-147982250D02*
X185412050Y-145822250D01*
%TO.N,second_top*%
X185412050Y-126822250D02*
X185412050Y-128982250D01*
%TO.N,second_num*%
X185412050Y-107822250D02*
X185412050Y-109982250D01*
%TO.N,third_mod*%
X204412050Y-176822250D02*
X204412050Y-178982250D01*
%TO.N,third_bottom*%
X204412050Y-157822250D02*
X204412050Y-159982250D01*
%TO.N,third_home*%
X204412050Y-133982250D02*
X204412050Y-131822250D01*
%TO.N,third_top*%
X204412050Y-121982250D02*
X204412050Y-119822250D01*
%TO.N,third_num*%
X204412050Y-100822250D02*
X204412050Y-102982250D01*
%TO.N,fourth_mod*%
X223412050Y-174982250D02*
X223412050Y-172822250D01*
%TO.N,fourth_bottom*%
X223412050Y-154982250D02*
X223412050Y-152822250D01*
%TO.N,fourth_home*%
X223412050Y-135982250D02*
X223412050Y-133822250D01*
%TO.N,fourth_top*%
X223412050Y-117982250D02*
X223412050Y-115822250D01*
%TO.N,fourth_num*%
X223412050Y-97982250D02*
X223412050Y-95822250D01*
%TO.N,P18*%
X238500000Y-101314300D02*
X238500000Y-105500000D01*
%TO.N,fifth_mod*%
X242412050Y-177822250D02*
X242412050Y-179982250D01*
%TO.N,fifth_bottom*%
X242412050Y-160982250D02*
X242412050Y-158822250D01*
%TO.N,fifth_home*%
X242412050Y-139822250D02*
X242412050Y-141982250D01*
%TO.N,fifth_top*%
X242412050Y-122982250D02*
X242412050Y-120822250D01*
%TO.N,fifth_num*%
X242412050Y-101822250D02*
X242412050Y-103982250D01*
%TO.N,sixth_mod*%
X261412050Y-182982250D02*
X261412050Y-180822250D01*
%TO.N,sixth_bottom*%
X261412050Y-161822250D02*
X261412050Y-163982250D01*
%TO.N,sixth_home*%
X261412050Y-150982250D02*
X261412050Y-148822250D01*
%TO.N,sixth_top*%
X261412050Y-136322250D02*
X261412050Y-138482250D01*
%TO.N,sixth_num*%
X261412050Y-104822250D02*
X261412050Y-106982250D01*
%TO.N,t1_thumb*%
X265058915Y-206097466D02*
X265797679Y-205358702D01*
X265058915Y-207388438D02*
X265058915Y-206097466D01*
%TO.N,t2_thumb*%
X282263236Y-215672237D02*
X282263236Y-214381265D01*
X282263236Y-214381265D02*
X283002000Y-213642501D01*
%TO.N,P2*%
X223412050Y-180442250D02*
X230469800Y-187500000D01*
D21*
X261000000Y-126500000D02*
X263901000Y-129401000D01*
D20*
X223412050Y-180442250D02*
X223412050Y-178282250D01*
X184896050Y-191958250D02*
X185412050Y-191442250D01*
X185412050Y-191442250D02*
X191896050Y-184958250D01*
X204412050Y-184442250D02*
X204412050Y-182282250D01*
X166928050Y-191958250D02*
X184896050Y-191958250D01*
D21*
X248422050Y-114252250D02*
X248422050Y-121863308D01*
X263901000Y-129401000D02*
X263901000Y-167520400D01*
X248422050Y-121863308D02*
X253058742Y-126500000D01*
D20*
X166412050Y-189282250D02*
X166412050Y-191442250D01*
X191896050Y-184958250D02*
X203896050Y-184958250D01*
X203896050Y-184958250D02*
X204412050Y-184442250D01*
D21*
X253058742Y-126500000D02*
X261000000Y-126500000D01*
X263000000Y-186854300D02*
X261412050Y-188442250D01*
D20*
X245928050Y-188958250D02*
X260896050Y-188958250D01*
X242412050Y-185442250D02*
X242412050Y-183282250D01*
X261412050Y-188442250D02*
X261412050Y-186282250D01*
X185412050Y-189282250D02*
X185412050Y-191442250D01*
X223412050Y-180442250D02*
X208412050Y-180442250D01*
X230469800Y-187500000D02*
X240354300Y-187500000D01*
X166412050Y-191442250D02*
X166928050Y-191958250D01*
X208412050Y-180442250D02*
X204412050Y-184442250D01*
X242412050Y-185442250D02*
X245928050Y-188958250D01*
D21*
X263000000Y-168421400D02*
X263000000Y-186854300D01*
D20*
X260896050Y-188958250D02*
X261412050Y-188442250D01*
D21*
X263901000Y-167520400D02*
X263000000Y-168421400D01*
D20*
X240354300Y-187500000D02*
X242412050Y-185442250D01*
D21*
%TO.N,P4*%
X246910150Y-122410150D02*
X246910150Y-124630093D01*
D20*
X191551050Y-153442250D02*
X204412050Y-140581250D01*
X261412050Y-156442250D02*
X261412050Y-154282250D01*
X206969800Y-142000000D02*
X222854300Y-142000000D01*
X242412050Y-147442250D02*
X251412050Y-156442250D01*
X204412050Y-139442250D02*
X204412050Y-137282250D01*
D21*
X263099000Y-154755300D02*
X261412050Y-156442250D01*
D20*
X242412050Y-147442250D02*
X242412050Y-145282250D01*
D21*
X243342050Y-118842050D02*
X246910150Y-122410150D01*
X263099000Y-129733200D02*
X263099000Y-154755300D01*
D20*
X185412050Y-153442250D02*
X185412050Y-151282250D01*
X251412050Y-156442250D02*
X261412050Y-156442250D01*
X222854300Y-142000000D02*
X223412050Y-141442250D01*
X166412050Y-151282250D02*
X166412050Y-153442250D01*
X166412050Y-153442250D02*
X166928050Y-153958250D01*
X223412050Y-141442250D02*
X230969800Y-149000000D01*
D21*
X243342050Y-114252250D02*
X243342050Y-118842050D01*
X246910150Y-124630093D02*
X247780057Y-125500000D01*
D20*
X166928050Y-153958250D02*
X184896050Y-153958250D01*
D21*
X260667800Y-127302000D02*
X263099000Y-129733200D01*
D20*
X240854300Y-149000000D02*
X242412050Y-147442250D01*
X204412050Y-139442250D02*
X206969800Y-142000000D01*
D21*
X247780057Y-125500000D02*
X250924542Y-125500000D01*
D20*
X223412050Y-141442250D02*
X223412050Y-139282250D01*
X204412050Y-140581250D02*
X204412050Y-139442250D01*
D21*
X252726542Y-127302000D02*
X260667800Y-127302000D01*
D20*
X185412050Y-153442250D02*
X191551050Y-153442250D01*
X230969800Y-149000000D02*
X240854300Y-149000000D01*
X184896050Y-153958250D02*
X185412050Y-153442250D01*
D21*
X250924542Y-125500000D02*
X252726542Y-127302000D01*
D20*
%TO.N,P5*%
X242412050Y-128442250D02*
X242412050Y-126282250D01*
X185412050Y-134442250D02*
X185412050Y-132282250D01*
X204412050Y-127442250D02*
X204412050Y-125282250D01*
X166928050Y-134958250D02*
X184896050Y-134958250D01*
X228928050Y-128958250D02*
X223412050Y-123442250D01*
X260354300Y-145000000D02*
X261412050Y-143942250D01*
X219412050Y-127442250D02*
X223412050Y-123442250D01*
X166412050Y-134442250D02*
X166928050Y-134958250D01*
X242442250Y-128442250D02*
X259000000Y-145000000D01*
X261412050Y-143942250D02*
X261412050Y-141782250D01*
X242412050Y-128442250D02*
X242442250Y-128442250D01*
X204412050Y-127442250D02*
X219412050Y-127442250D01*
X184896050Y-134958250D02*
X185412050Y-134442250D01*
X242412050Y-128442250D02*
X241896050Y-128958250D01*
X259000000Y-145000000D02*
X260354300Y-145000000D01*
X166412050Y-134442250D02*
X166412050Y-132282250D01*
X197412050Y-134442250D02*
X204412050Y-127442250D01*
D21*
X238500000Y-116554300D02*
X238500000Y-124530200D01*
D20*
X185412050Y-134442250D02*
X197412050Y-134442250D01*
X241896050Y-128958250D02*
X228928050Y-128958250D01*
X223412050Y-123442250D02*
X223412050Y-121282250D01*
D21*
X240802050Y-114252250D02*
X238500000Y-116554300D01*
X238500000Y-124530200D02*
X242412050Y-128442250D01*
D20*
%TO.N,P3*%
X166412050Y-165442250D02*
X166412050Y-163282250D01*
D21*
X263500000Y-129567100D02*
X263500000Y-167354300D01*
X260833900Y-126901000D02*
X263500000Y-129567100D01*
D20*
X204412050Y-163282250D02*
X204412050Y-165442250D01*
D21*
X245882050Y-119890408D02*
X252892642Y-126901000D01*
D20*
X174469800Y-173500000D02*
X184354300Y-173500000D01*
X230969800Y-168000000D02*
X240854300Y-168000000D01*
D21*
X263500000Y-167354300D02*
X261412050Y-169442250D01*
D20*
X218412050Y-165442250D02*
X223412050Y-160442250D01*
X197412050Y-172442250D02*
X204412050Y-165442250D01*
X223412050Y-160442250D02*
X230969800Y-168000000D01*
D21*
X245882050Y-114252250D02*
X245882050Y-119890408D01*
X252892642Y-126901000D02*
X260833900Y-126901000D01*
D20*
X260896050Y-169958250D02*
X261412050Y-169442250D01*
X184354300Y-173500000D02*
X185412050Y-172442250D01*
X245928050Y-169958250D02*
X260896050Y-169958250D01*
X242412050Y-166442250D02*
X245928050Y-169958250D01*
X261412050Y-169442250D02*
X261412050Y-167282250D01*
X204412050Y-165442250D02*
X218412050Y-165442250D01*
X223412050Y-160442250D02*
X223412050Y-158282250D01*
X242412050Y-166442250D02*
X242412050Y-164282250D01*
X166412050Y-165442250D02*
X174469800Y-173500000D01*
X240854300Y-168000000D02*
X242412050Y-166442250D01*
X185412050Y-172442250D02*
X185412050Y-170282250D01*
X185412050Y-172442250D02*
X197412050Y-172442250D01*
%TO.N,P6*%
X252506250Y-107006250D02*
X257942250Y-112442250D01*
X238625115Y-109442250D02*
X242412050Y-109442250D01*
X238262050Y-109079185D02*
X238262050Y-114252250D01*
X242412050Y-109442250D02*
X244848050Y-107006250D01*
X232625115Y-103442250D02*
X238262050Y-109079185D01*
X204412050Y-108442250D02*
X204412050Y-106282250D01*
X242412050Y-107282250D02*
X242412050Y-109442250D01*
X166412050Y-106282250D02*
X166412050Y-108442250D01*
X257942250Y-112442250D02*
X261412050Y-112442250D01*
X244848050Y-107006250D02*
X252506250Y-107006250D01*
X218412050Y-108442250D02*
X223412050Y-103442250D01*
X185412050Y-115442250D02*
X197412050Y-115442250D01*
X238262050Y-109079185D02*
X238625115Y-109442250D01*
X184896050Y-115958250D02*
X185412050Y-115442250D01*
X173928050Y-115958250D02*
X184896050Y-115958250D01*
X185412050Y-113282250D02*
X185412050Y-115442250D01*
X223412050Y-103442250D02*
X232625115Y-103442250D01*
X204412050Y-108442250D02*
X218412050Y-108442250D01*
X261412050Y-110282250D02*
X261412050Y-112442250D01*
X223412050Y-103442250D02*
X223412050Y-101282250D01*
X166412050Y-108442250D02*
X173928050Y-115958250D01*
X197412050Y-115442250D02*
X204412050Y-108442250D01*
%TO.N,P7*%
X280395806Y-219511987D02*
X281134570Y-218773223D01*
D21*
X254500000Y-200000000D02*
X254500000Y-203827675D01*
D20*
X269405545Y-218733220D02*
X278326067Y-218733220D01*
D21*
X235722050Y-114252250D02*
X235722050Y-114944100D01*
X235722050Y-114944100D02*
X237500000Y-116722050D01*
D20*
X278326067Y-218733220D02*
X280395806Y-220802959D01*
X280395806Y-220802959D02*
X280395806Y-219511987D01*
X263191485Y-212519160D02*
X263191485Y-211228188D01*
D21*
X253000000Y-198500000D02*
X254500000Y-200000000D01*
X254500000Y-203827675D02*
X263191485Y-212519160D01*
D20*
X263191485Y-212519160D02*
X269405545Y-218733220D01*
X263191485Y-211228188D02*
X263930249Y-210489424D01*
D21*
%TO.N,GND*%
X250512050Y-116682250D02*
X250512050Y-121282250D01*
X256042050Y-105062250D02*
X260511050Y-109531250D01*
X259627004Y-113632250D02*
X259069704Y-113074950D01*
X262602050Y-113632250D02*
X259627004Y-113632250D01*
X262313050Y-109531250D02*
X262602050Y-109820250D01*
X260511050Y-109531250D02*
X262313050Y-109531250D01*
X250962050Y-114252250D02*
X250962050Y-116232250D01*
X253502050Y-114252250D02*
X250962050Y-114252250D01*
X256042050Y-99012250D02*
X256042050Y-105062250D01*
X262602050Y-109820250D02*
X262602050Y-113632250D01*
X250962050Y-116232250D02*
X250512050Y-116682250D01*
X259069704Y-113074950D02*
X254679350Y-113074950D01*
X254679350Y-113074950D02*
X253502050Y-114252250D01*
%TO.N,VCC*%
X258612050Y-118887950D02*
X263003050Y-114496950D01*
X263003050Y-114496950D02*
X263003050Y-101078650D01*
X258612050Y-121282250D02*
X258612050Y-118887950D01*
X252139350Y-97834950D02*
X250962050Y-99012250D01*
X259759350Y-97834950D02*
X252139350Y-97834950D01*
X263003050Y-101078650D02*
X259759350Y-97834950D01*
X258612050Y-121282250D02*
X258612050Y-116682250D01*
%TO.N,P21*%
X255612050Y-121282250D02*
X256713050Y-122383250D01*
X259368099Y-122383250D02*
X263404050Y-118347299D01*
X263404050Y-118347299D02*
X263404050Y-100912550D01*
X256713050Y-122383250D02*
X259368099Y-122383250D01*
X263404050Y-100912550D02*
X259925450Y-97433950D01*
X259925450Y-97433950D02*
X250000350Y-97433950D01*
X250000350Y-97433950D02*
X248422050Y-99012250D01*
X255612050Y-121282250D02*
X255612050Y-116682250D01*
%TD*%
M02*
