M48
; DRILL file {KiCad 9.0.6} date 2025-11-12T17:32:02+0100
; FORMAT={-:-/ absolute / metric / decimal}
; #@! TF.CreationDate,2025-11-12T17:32:02+01:00
; #@! TF.GenerationSoftware,Kicad,Pcbnew,9.0.6
; #@! TF.FileFunction,NonPlated,1,2,NPTH
FMAT,2
METRIC
; #@! TA.AperFunction,NonPlated,NPTH,ComponentDrill
T1C1.500
; #@! TA.AperFunction,NonPlated,NPTH,ComponentDrill
T2C1.702
; #@! TA.AperFunction,NonPlated,NPTH,ComponentDrill
T3C3.000
; #@! TA.AperFunction,NonPlated,NPTH,ComponentDrill
T4C3.429
; #@! TA.AperFunction,NonPlated,NPTH,ComponentDrill
T5C4.000
%
G90
G05
T1
X161.625Y-111.35
X168.625Y-111.35
T2
X141.102Y-205.565
X151.439Y-201.803
X158.307Y-197.281
X162.725Y-97.55
X162.725Y-116.55
X162.725Y-135.55
X162.725Y-154.55
X162.725Y-173.55
X168.643Y-193.519
X173.725Y-97.55
X173.725Y-116.55
X173.725Y-135.55
X173.725Y-154.55
X173.725Y-173.55
X181.725Y-94.55
X181.725Y-113.55
X181.725Y-132.55
X181.725Y-151.55
X181.725Y-170.55
X192.725Y-94.55
X192.725Y-113.55
X192.725Y-132.55
X192.725Y-151.55
X192.725Y-170.55
X200.725Y-88.55
X200.725Y-107.55
X200.725Y-126.55
X200.725Y-145.55
X200.725Y-164.55
X211.725Y-88.55
X211.725Y-107.55
X211.725Y-126.55
X211.725Y-145.55
X211.725Y-164.55
X219.725Y-93.55
X219.725Y-112.55
X219.725Y-131.55
X219.725Y-150.55
X219.725Y-169.55
X230.725Y-93.55
X230.725Y-112.55
X230.725Y-131.55
X230.725Y-150.55
X230.725Y-169.55
X238.725Y-100.55
X238.725Y-119.55
X238.725Y-138.55
X238.725Y-157.55
X238.725Y-176.55
X249.725Y-100.55
X249.725Y-119.55
X249.725Y-138.55
X249.725Y-157.55
X249.725Y-176.55
X257.725Y-100.55
X257.725Y-119.55
X257.725Y-138.55
X257.725Y-157.55
X257.725Y-176.55
X268.725Y-100.55
X268.725Y-119.55
X268.725Y-138.55
X268.725Y-157.55
X268.725Y-176.55
T3
X142.855Y-208.918
X148.306Y-209.275
X160.059Y-200.634
X163.225Y-101.3
X163.225Y-120.3
X163.225Y-139.3
X163.225Y-158.3
X163.225Y-177.3
X165.51Y-200.991
X168.225Y-103.5
X168.225Y-122.5
X168.225Y-141.5
X168.225Y-160.5
X168.225Y-179.5
X182.225Y-98.3
X182.225Y-117.3
X182.225Y-136.3
X182.225Y-155.3
X182.225Y-174.3
X187.225Y-100.5
X187.225Y-119.5
X187.225Y-138.5
X187.225Y-157.5
X187.225Y-176.5
X201.225Y-92.3
X201.225Y-111.3
X201.225Y-130.3
X201.225Y-149.3
X201.225Y-168.3
X206.225Y-94.5
X206.225Y-113.5
X206.225Y-132.5
X206.225Y-151.5
X206.225Y-170.5
X220.225Y-97.3
X220.225Y-116.3
X220.225Y-135.3
X220.225Y-154.3
X220.225Y-173.3
X225.225Y-99.5
X225.225Y-118.5
X225.225Y-137.5
X225.225Y-156.5
X225.225Y-175.5
X239.225Y-104.3
X239.225Y-123.3
X239.225Y-142.3
X239.225Y-161.3
X239.225Y-180.3
X244.225Y-106.5
X244.225Y-125.5
X244.225Y-144.5
X244.225Y-163.5
X244.225Y-182.5
X258.225Y-104.3
X258.225Y-123.3
X258.225Y-142.3
X258.225Y-161.3
X258.225Y-180.3
X263.225Y-106.5
X263.225Y-125.5
X263.225Y-144.5
X263.225Y-163.5
X263.225Y-182.5
T4
X146.271Y-203.684
X163.475Y-195.4
X168.225Y-97.55
X168.225Y-116.55
X168.225Y-135.55
X168.225Y-154.55
X168.225Y-173.55
X187.225Y-94.55
X187.225Y-113.55
X187.225Y-132.55
X187.225Y-151.55
X187.225Y-170.55
X206.225Y-88.55
X206.225Y-107.55
X206.225Y-126.55
X206.225Y-145.55
X206.225Y-164.55
X225.225Y-93.55
X225.225Y-112.55
X225.225Y-131.55
X225.225Y-150.55
X225.225Y-169.55
X244.225Y-100.55
X244.225Y-119.55
X244.225Y-138.55
X244.225Y-157.55
X244.225Y-176.55
X263.225Y-100.55
X263.225Y-119.55
X263.225Y-138.55
X263.225Y-157.55
X263.225Y-176.55
T5
X167.915Y-186.548
X196.225Y-105.05
X196.225Y-162.05
X216.225Y-142.05
X253.225Y-109.05
X254.225Y-166.05
M30
