%TF.GenerationSoftware,KiCad,Pcbnew,9.0.6*%
%TF.CreationDate,2025-11-12T17:31:49+01:00*%
%TF.ProjectId,right_finished,72696768-745f-4666-996e-69736865642e,1*%
%TF.SameCoordinates,Original*%
%TF.FileFunction,Soldermask,Bot*%
%TF.FilePolarity,Negative*%
%FSLAX46Y46*%
G04 Gerber Fmt 4.6, Leading zero omitted, Abs format (unit mm)*
G04 Created by KiCad (PCBNEW 9.0.6) date 2025-11-12 17:31:49*
%MOMM*%
%LPD*%
G01*
G04 APERTURE LIST*
G04 Aperture macros list*
%AMRoundRect*
0 Rectangle with rounded corners*
0 $1 Rounding radius*
0 $2 $3 $4 $5 $6 $7 $8 $9 X,Y pos of 4 corners*
0 Add a 4 corners polygon primitive as box body*
4,1,4,$2,$3,$4,$5,$6,$7,$8,$9,$2,$3,0*
0 Add four circle primitives for the rounded corners*
1,1,$1+$1,$2,$3*
1,1,$1+$1,$4,$5*
1,1,$1+$1,$6,$7*
1,1,$1+$1,$8,$9*
0 Add four rect primitives between the rounded corners*
20,1,$1+$1,$2,$3,$4,$5,0*
20,1,$1+$1,$4,$5,$6,$7,0*
20,1,$1+$1,$6,$7,$8,$9,0*
20,1,$1+$1,$8,$9,$2,$3,0*%
G04 Aperture macros list end*
%ADD10C,4.100000*%
%ADD11RoundRect,0.050000X-0.889000X0.889000X-0.889000X-0.889000X0.889000X-0.889000X0.889000X0.889000X0*%
%ADD12RoundRect,0.050000X-0.600000X0.450000X-0.600000X-0.450000X0.600000X-0.450000X0.600000X0.450000X0*%
%ADD13C,2.005000*%
%ADD14C,1.801800*%
%ADD15C,3.100000*%
%ADD16C,3.529000*%
%ADD17RoundRect,0.050000X1.300000X1.300000X-1.300000X1.300000X-1.300000X-1.300000X1.300000X-1.300000X0*%
%ADD18RoundRect,0.050000X-0.876300X-0.876300X0.876300X-0.876300X0.876300X0.876300X-0.876300X0.876300X0*%
%ADD19C,1.852600*%
%ADD20RoundRect,0.050000X0.776974X1.666227X-1.666227X0.776974X-0.776974X-1.666227X1.666227X-0.776974X0*%
%ADD21RoundRect,0.050000X-1.139443X0.531331X-0.531331X-1.139443X1.139443X-0.531331X0.531331X1.139443X0*%
%ADD22RoundRect,0.050000X-0.717725X0.217650X-0.409907X-0.628074X0.717725X-0.217650X0.409907X0.628074X0*%
%ADD23C,1.600000*%
%ADD24O,2.300000X1.700000*%
G04 APERTURE END LIST*
D10*
%TO.C,*%
X196225000Y-162050000D03*
%TD*%
D11*
%TO.C,D11*%
X233025000Y-131240000D03*
D12*
X233025000Y-133400000D03*
X233025000Y-136700000D03*
D13*
X233025000Y-138860000D03*
%TD*%
D11*
%TO.C,D29*%
X195025000Y-88740000D03*
D12*
X195025000Y-90900000D03*
X195025000Y-94200000D03*
D13*
X195025000Y-96360000D03*
%TD*%
D14*
%TO.C,S27*%
X173725000Y-154550000D03*
D15*
X168225000Y-160500000D03*
D16*
X168225000Y-154550000D03*
D15*
X163225000Y-158300000D03*
D14*
X162725000Y-154550000D03*
D17*
X171500000Y-160500000D03*
X159950000Y-158300000D03*
%TD*%
D11*
%TO.C,D25*%
X252025000Y-151740000D03*
D12*
X252025000Y-153900000D03*
X252025000Y-157200000D03*
D13*
X252025000Y-159360000D03*
%TD*%
D11*
%TO.C,D7*%
X252025000Y-138240000D03*
D12*
X252025000Y-140400000D03*
X252025000Y-143700000D03*
D13*
X252025000Y-145860000D03*
%TD*%
D14*
%TO.C,S10*%
X249725000Y-100550000D03*
D15*
X244225000Y-106500000D03*
D16*
X244225000Y-100550000D03*
D15*
X239225000Y-104300000D03*
D14*
X238725000Y-100550000D03*
D17*
X247500000Y-106500000D03*
X235950000Y-104300000D03*
%TD*%
D11*
%TO.C,D14*%
X214025000Y-164240000D03*
D12*
X214025000Y-166400000D03*
X214025000Y-169700000D03*
D13*
X214025000Y-171860000D03*
%TD*%
D11*
%TO.C,D6*%
X252025000Y-176240000D03*
D12*
X252025000Y-178400000D03*
X252025000Y-181700000D03*
D13*
X252025000Y-183860000D03*
%TD*%
D10*
%TO.C,*%
X167915050Y-186547545D03*
%TD*%
D14*
%TO.C,S21*%
X192725000Y-170550000D03*
D15*
X187225000Y-176500000D03*
D16*
X187225000Y-170550000D03*
D15*
X182225000Y-174300000D03*
D14*
X181725000Y-170550000D03*
D17*
X190500000Y-176500000D03*
X178950000Y-174300000D03*
%TD*%
D11*
%TO.C,D28*%
X195025000Y-145740000D03*
D12*
X195025000Y-147900000D03*
X195025000Y-151200000D03*
D13*
X195025000Y-153360000D03*
%TD*%
D14*
%TO.C,S28*%
X173725000Y-135550000D03*
D15*
X168225000Y-141500000D03*
D16*
X168225000Y-135550000D03*
D15*
X163225000Y-139300000D03*
D14*
X162725000Y-135550000D03*
D17*
X171500000Y-141500000D03*
X159950000Y-139300000D03*
%TD*%
D11*
%TO.C,D21*%
X176025000Y-173240000D03*
D12*
X176025000Y-175400000D03*
X176025000Y-178700000D03*
D13*
X176025000Y-180860000D03*
%TD*%
D18*
%TO.C,MCU1*%
X163255000Y-106670000D03*
D19*
X165795000Y-106670000D03*
X168335000Y-106670000D03*
X170875000Y-106670000D03*
X173415000Y-106670000D03*
X175955000Y-106670000D03*
X178495000Y-106670000D03*
X181035000Y-106670000D03*
X183575000Y-106670000D03*
X186115000Y-106670000D03*
X188655000Y-106670000D03*
X191195000Y-106670000D03*
X163255000Y-91430000D03*
X165795000Y-91430000D03*
X168335000Y-91430000D03*
X170875000Y-91430000D03*
X173415000Y-91430000D03*
X175955000Y-91430000D03*
X178495000Y-91430000D03*
X181035000Y-91430000D03*
X183575000Y-91430000D03*
X186115000Y-91430000D03*
X188655000Y-91430000D03*
X191195000Y-91430000D03*
%TD*%
D14*
%TO.C,S13*%
X230725000Y-131550000D03*
D15*
X225225000Y-137500000D03*
D16*
X225225000Y-131550000D03*
D15*
X220225000Y-135300000D03*
D14*
X219725000Y-131550000D03*
D17*
X228500000Y-137500000D03*
X216950000Y-135300000D03*
%TD*%
D14*
%TO.C,S5*%
X268725000Y-100550000D03*
D15*
X263225000Y-106500000D03*
D16*
X263225000Y-100550000D03*
D15*
X258225000Y-104300000D03*
D14*
X257725000Y-100550000D03*
D17*
X266500000Y-106500000D03*
X254950000Y-104300000D03*
%TD*%
D14*
%TO.C,S19*%
X211725000Y-107550000D03*
D15*
X206225000Y-113500000D03*
D16*
X206225000Y-107550000D03*
D15*
X201225000Y-111300000D03*
D14*
X200725000Y-107550000D03*
D17*
X209500000Y-113500000D03*
X197950000Y-111300000D03*
%TD*%
D14*
%TO.C,S17*%
X211725000Y-145550000D03*
D15*
X206225000Y-151500000D03*
D16*
X206225000Y-145550000D03*
D15*
X201225000Y-149300000D03*
D14*
X200725000Y-145550000D03*
D17*
X209500000Y-151500000D03*
X197950000Y-149300000D03*
%TD*%
D14*
%TO.C,S6*%
X249725000Y-176550000D03*
D15*
X244225000Y-182500000D03*
D16*
X244225000Y-176550000D03*
D15*
X239225000Y-180300000D03*
D14*
X238725000Y-176550000D03*
D17*
X247500000Y-182500000D03*
X235950000Y-180300000D03*
%TD*%
D11*
%TO.C,D1*%
X271025000Y-176240000D03*
D12*
X271025000Y-178400000D03*
X271025000Y-181700000D03*
D13*
X271025000Y-183860000D03*
%TD*%
D14*
%TO.C,S26*%
X173725000Y-173550000D03*
D15*
X168225000Y-179500000D03*
D16*
X168225000Y-173550000D03*
D15*
X163225000Y-177300000D03*
D14*
X162725000Y-173550000D03*
D17*
X171500000Y-179500000D03*
X159950000Y-177300000D03*
%TD*%
D11*
%TO.C,D17*%
X214025000Y-88240000D03*
D12*
X214025000Y-90400000D03*
X214025000Y-93700000D03*
D13*
X214025000Y-95860000D03*
%TD*%
D14*
%TO.C,S8*%
X249725000Y-138550000D03*
D15*
X244225000Y-144500000D03*
D16*
X244225000Y-138550000D03*
D15*
X239225000Y-142300000D03*
D14*
X238725000Y-138550000D03*
D17*
X247500000Y-144500000D03*
X235950000Y-142300000D03*
%TD*%
D10*
%TO.C,*%
X253225000Y-109050000D03*
%TD*%
D14*
%TO.C,S18*%
X211725000Y-126550000D03*
D15*
X206225000Y-132500000D03*
D16*
X206225000Y-126550000D03*
D15*
X201225000Y-130300000D03*
D14*
X200725000Y-126550000D03*
D17*
X209500000Y-132500000D03*
X197950000Y-130300000D03*
%TD*%
D14*
%TO.C,S22*%
X192725000Y-151550000D03*
D15*
X187225000Y-157500000D03*
D16*
X187225000Y-151550000D03*
D15*
X182225000Y-155300000D03*
D14*
X181725000Y-151550000D03*
D17*
X190500000Y-157500000D03*
X178950000Y-155300000D03*
%TD*%
D11*
%TO.C,D22*%
X176025000Y-154240000D03*
D12*
X176025000Y-156400000D03*
X176025000Y-159700000D03*
D13*
X176025000Y-161860000D03*
%TD*%
D14*
%TO.C,S1*%
X268725000Y-176550000D03*
D15*
X263225000Y-182500000D03*
D16*
X263225000Y-176550000D03*
D15*
X258225000Y-180300000D03*
D14*
X257725000Y-176550000D03*
D17*
X266500000Y-182500000D03*
X254950000Y-180300000D03*
%TD*%
D14*
%TO.C,S4*%
X268725000Y-119550000D03*
D15*
X263225000Y-125500000D03*
D16*
X263225000Y-119550000D03*
D15*
X258225000Y-123300000D03*
D14*
X257725000Y-119550000D03*
D17*
X266500000Y-125500000D03*
X254950000Y-123300000D03*
%TD*%
D14*
%TO.C,S31*%
X168643309Y-193518889D03*
D15*
X165510020Y-200991171D03*
D16*
X163475000Y-195400000D03*
D15*
X160059112Y-200633948D03*
D14*
X158306691Y-197281111D03*
D20*
X168587513Y-199871055D03*
X156981619Y-201754064D03*
%TD*%
D14*
%TO.C,S14*%
X230725000Y-112550000D03*
D15*
X225225000Y-118500000D03*
D16*
X225225000Y-112550000D03*
D15*
X220225000Y-116300000D03*
D14*
X219725000Y-112550000D03*
D17*
X228500000Y-118500000D03*
X216950000Y-116300000D03*
%TD*%
D11*
%TO.C,D23*%
X176025000Y-135240000D03*
D12*
X176025000Y-137400000D03*
X176025000Y-140700000D03*
D13*
X176025000Y-142860000D03*
%TD*%
D11*
%TO.C,D16*%
X214025000Y-107240000D03*
D12*
X214025000Y-109400000D03*
X214025000Y-112700000D03*
D13*
X214025000Y-114860000D03*
%TD*%
D21*
%TO.C,D31*%
X170698576Y-192440938D03*
D22*
X171437340Y-194470674D03*
X172566006Y-197571660D03*
D13*
X173304770Y-199601396D03*
%TD*%
D11*
%TO.C,D18*%
X195025000Y-170240000D03*
D12*
X195025000Y-172400000D03*
X195025000Y-175700000D03*
D13*
X195025000Y-177860000D03*
%TD*%
D11*
%TO.C,D3*%
X271025000Y-138240000D03*
D12*
X271025000Y-140400000D03*
X271025000Y-143700000D03*
D13*
X271025000Y-145860000D03*
%TD*%
D14*
%TO.C,S7*%
X249725000Y-157550000D03*
D15*
X244225000Y-163500000D03*
D16*
X244225000Y-157550000D03*
D15*
X239225000Y-161300000D03*
D14*
X238725000Y-157550000D03*
D17*
X247500000Y-163500000D03*
X235950000Y-161300000D03*
%TD*%
D14*
%TO.C,S15*%
X230725000Y-93550000D03*
D15*
X225225000Y-99500000D03*
D16*
X225225000Y-93550000D03*
D15*
X220225000Y-97300000D03*
D14*
X219725000Y-93550000D03*
D17*
X228500000Y-99500000D03*
X216950000Y-97300000D03*
%TD*%
D14*
%TO.C,S20*%
X211725000Y-88550000D03*
D15*
X206225000Y-94500000D03*
D16*
X206225000Y-88550000D03*
D15*
X201225000Y-92300000D03*
D14*
X200725000Y-88550000D03*
D17*
X209500000Y-94500000D03*
X197950000Y-92300000D03*
%TD*%
D14*
%TO.C,S3*%
X268725000Y-138550000D03*
D15*
X263225000Y-144500000D03*
D16*
X263225000Y-138550000D03*
D15*
X258225000Y-142300000D03*
D14*
X257725000Y-138550000D03*
D17*
X266500000Y-144500000D03*
X254950000Y-142300000D03*
%TD*%
D11*
%TO.C,D20*%
X195025000Y-113240000D03*
D12*
X195025000Y-115400000D03*
X195025000Y-118700000D03*
D13*
X195025000Y-120860000D03*
%TD*%
D11*
%TO.C,D19*%
X195025000Y-132240000D03*
D12*
X195025000Y-134400000D03*
X195025000Y-137700000D03*
D13*
X195025000Y-139860000D03*
%TD*%
D11*
%TO.C,D12*%
X233025000Y-112240000D03*
D12*
X233025000Y-114400000D03*
X233025000Y-117700000D03*
D13*
X233025000Y-119860000D03*
%TD*%
D14*
%TO.C,S2*%
X268725000Y-157550000D03*
D15*
X263225000Y-163500000D03*
D16*
X263225000Y-157550000D03*
D15*
X258225000Y-161300000D03*
D14*
X257725000Y-157550000D03*
D17*
X266500000Y-163500000D03*
X254950000Y-161300000D03*
%TD*%
D11*
%TO.C,D9*%
X233025000Y-169240000D03*
D12*
X233025000Y-171400000D03*
X233025000Y-174700000D03*
D13*
X233025000Y-176860000D03*
%TD*%
D11*
%TO.C,D27*%
X214025000Y-120740000D03*
D12*
X214025000Y-122900000D03*
X214025000Y-126200000D03*
D13*
X214025000Y-128360000D03*
%TD*%
D11*
%TO.C,D10*%
X233025000Y-150240000D03*
D12*
X233025000Y-152400000D03*
X233025000Y-155700000D03*
D13*
X233025000Y-157860000D03*
%TD*%
D14*
%TO.C,S30*%
X173725000Y-97550000D03*
D15*
X168225000Y-103500000D03*
D16*
X168225000Y-97550000D03*
D15*
X163225000Y-101300000D03*
D14*
X162725000Y-97550000D03*
D17*
X171500000Y-103500000D03*
X159950000Y-101300000D03*
%TD*%
D10*
%TO.C,*%
X196225000Y-105050000D03*
%TD*%
D14*
%TO.C,S29*%
X173725000Y-116550000D03*
D15*
X168225000Y-122500000D03*
D16*
X168225000Y-116550000D03*
D15*
X163225000Y-120300000D03*
D14*
X162725000Y-116550000D03*
D17*
X171500000Y-122500000D03*
X159950000Y-120300000D03*
%TD*%
D23*
%TO.C,TRRS1*%
X161625000Y-111350000D03*
X168625000Y-111350000D03*
D24*
X171325000Y-113650000D03*
X171325000Y-109050000D03*
X170225000Y-113650000D03*
X170225000Y-109050000D03*
X166225000Y-113650000D03*
X166225000Y-109050000D03*
X163225000Y-113650000D03*
X163225000Y-109050000D03*
%TD*%
D11*
%TO.C,D13*%
X233025000Y-93240000D03*
D12*
X233025000Y-95400000D03*
X233025000Y-98700000D03*
D13*
X233025000Y-100860000D03*
%TD*%
D10*
%TO.C,*%
X254225000Y-166050000D03*
%TD*%
D14*
%TO.C,S16*%
X211725000Y-164550000D03*
D15*
X206225000Y-170500000D03*
D16*
X206225000Y-164550000D03*
D15*
X201225000Y-168300000D03*
D14*
X200725000Y-164550000D03*
D17*
X209500000Y-170500000D03*
X197950000Y-168300000D03*
%TD*%
D14*
%TO.C,S24*%
X192725000Y-113550000D03*
D15*
X187225000Y-119500000D03*
D16*
X187225000Y-113550000D03*
D15*
X182225000Y-117300000D03*
D14*
X181725000Y-113550000D03*
D17*
X190500000Y-119500000D03*
X178950000Y-117300000D03*
%TD*%
D11*
%TO.C,D4*%
X271025000Y-119240000D03*
D12*
X271025000Y-121400000D03*
X271025000Y-124700000D03*
D13*
X271025000Y-126860000D03*
%TD*%
D11*
%TO.C,D2*%
X271025000Y-157240000D03*
D12*
X271025000Y-159400000D03*
X271025000Y-162700000D03*
D13*
X271025000Y-164860000D03*
%TD*%
D14*
%TO.C,S25*%
X192725000Y-94550000D03*
D15*
X187225000Y-100500000D03*
D16*
X187225000Y-94550000D03*
D15*
X182225000Y-98300000D03*
D14*
X181725000Y-94550000D03*
D17*
X190500000Y-100500000D03*
X178950000Y-98300000D03*
%TD*%
D14*
%TO.C,S23*%
X192725000Y-132550000D03*
D15*
X187225000Y-138500000D03*
D16*
X187225000Y-132550000D03*
D15*
X182225000Y-136300000D03*
D14*
X181725000Y-132550000D03*
D17*
X190500000Y-138500000D03*
X178950000Y-136300000D03*
%TD*%
D14*
%TO.C,S9*%
X249725000Y-119550000D03*
D15*
X244225000Y-125500000D03*
D16*
X244225000Y-119550000D03*
D15*
X239225000Y-123300000D03*
D14*
X238725000Y-119550000D03*
D17*
X247500000Y-125500000D03*
X235950000Y-123300000D03*
%TD*%
D14*
%TO.C,S12*%
X230725000Y-150550000D03*
D15*
X225225000Y-156500000D03*
D16*
X225225000Y-150550000D03*
D15*
X220225000Y-154300000D03*
D14*
X219725000Y-150550000D03*
D17*
X228500000Y-156500000D03*
X216950000Y-154300000D03*
%TD*%
D11*
%TO.C,D8*%
X252025000Y-119240000D03*
D12*
X252025000Y-121400000D03*
X252025000Y-124700000D03*
D13*
X252025000Y-126860000D03*
%TD*%
D11*
%TO.C,D5*%
X271025000Y-100240000D03*
D12*
X271025000Y-102400000D03*
X271025000Y-105700000D03*
D13*
X271025000Y-107860000D03*
%TD*%
D14*
%TO.C,S32*%
X151438988Y-201802688D03*
D15*
X148305699Y-209274970D03*
D16*
X146270679Y-203683799D03*
D15*
X142854791Y-208917747D03*
D14*
X141102370Y-205564910D03*
D20*
X151383192Y-208154854D03*
X139777298Y-210037863D03*
%TD*%
D10*
%TO.C,*%
X216225000Y-142050000D03*
%TD*%
D11*
%TO.C,D26*%
X252025000Y-94740000D03*
D12*
X252025000Y-96900000D03*
X252025000Y-100200000D03*
D13*
X252025000Y-102360000D03*
%TD*%
D11*
%TO.C,D24*%
X176025000Y-116240000D03*
D12*
X176025000Y-118400000D03*
X176025000Y-121700000D03*
D13*
X176025000Y-123860000D03*
%TD*%
D14*
%TO.C,S11*%
X230725000Y-169550000D03*
D15*
X225225000Y-175500000D03*
D16*
X225225000Y-169550000D03*
D15*
X220225000Y-173300000D03*
D14*
X219725000Y-169550000D03*
D17*
X228500000Y-175500000D03*
X216950000Y-173300000D03*
%TD*%
D21*
%TO.C,D32*%
X153494254Y-200724737D03*
D22*
X154233018Y-202754473D03*
X155361684Y-205855459D03*
D13*
X156100448Y-207885195D03*
%TD*%
D11*
%TO.C,D15*%
X214025000Y-145240000D03*
D12*
X214025000Y-147400000D03*
X214025000Y-150700000D03*
D13*
X214025000Y-152860000D03*
%TD*%
D11*
%TO.C,D30*%
X176025000Y-94740000D03*
D12*
X176025000Y-96900000D03*
X176025000Y-100200000D03*
D13*
X176025000Y-102360000D03*
%TD*%
M02*
