%TF.GenerationSoftware,KiCad,Pcbnew,9.0.6*%
%TF.CreationDate,2025-11-12T17:31:49+01:00*%
%TF.ProjectId,right_finished,72696768-745f-4666-996e-69736865642e,1*%
%TF.SameCoordinates,Original*%
%TF.FileFunction,Copper,L2,Bot*%
%TF.FilePolarity,Positive*%
%FSLAX46Y46*%
G04 Gerber Fmt 4.6, Leading zero omitted, Abs format (unit mm)*
G04 Created by KiCad (PCBNEW 9.0.6) date 2025-11-12 17:31:49*
%MOMM*%
%LPD*%
G01*
G04 APERTURE LIST*
G04 Aperture macros list*
%AMRotRect*
0 Rectangle, with rotation*
0 The origin of the aperture is its center*
0 $1 length*
0 $2 width*
0 $3 Rotation angle, in degrees counterclockwise*
0 Add horizontal line*
21,1,$1,$2,0,0,$3*%
G04 Aperture macros list end*
%TA.AperFunction,ComponentPad*%
%ADD10R,1.778000X1.778000*%
%TD*%
%TA.AperFunction,SMDPad,CuDef*%
%ADD11R,1.200000X0.900000*%
%TD*%
%TA.AperFunction,ComponentPad*%
%ADD12C,1.905000*%
%TD*%
%TA.AperFunction,SMDPad,CuDef*%
%ADD13R,2.600000X2.600000*%
%TD*%
%TA.AperFunction,ComponentPad*%
%ADD14R,1.752600X1.752600*%
%TD*%
%TA.AperFunction,ComponentPad*%
%ADD15C,1.752600*%
%TD*%
%TA.AperFunction,SMDPad,CuDef*%
%ADD16RotRect,2.600000X2.600000X200.000000*%
%TD*%
%TA.AperFunction,ComponentPad*%
%ADD17RotRect,1.778000X1.778000X290.000000*%
%TD*%
%TA.AperFunction,SMDPad,CuDef*%
%ADD18RotRect,0.900000X1.200000X290.000000*%
%TD*%
%TA.AperFunction,ComponentPad*%
%ADD19O,2.200000X1.600000*%
%TD*%
%TA.AperFunction,ViaPad*%
%ADD20C,0.800000*%
%TD*%
%TA.AperFunction,Conductor*%
%ADD21C,0.250000*%
%TD*%
G04 APERTURE END LIST*
D10*
%TO.P,D11,1*%
%TO.N,P4*%
X233025000Y-131240000D03*
D11*
X233025000Y-133400000D03*
%TO.P,D11,2*%
%TO.N,mirror_third_home*%
X233025000Y-136700000D03*
D12*
X233025000Y-138860000D03*
%TD*%
D10*
%TO.P,D29,1*%
%TO.N,P6*%
X195025000Y-88740000D03*
D11*
X195025000Y-90900000D03*
%TO.P,D29,2*%
%TO.N,mirror_fifth_num*%
X195025000Y-94200000D03*
D12*
X195025000Y-96360000D03*
%TD*%
D13*
%TO.P,S27,1*%
%TO.N,P19*%
X171500000Y-160500000D03*
%TO.P,S27,2*%
%TO.N,mirror_sixth_bottom*%
X159950000Y-158300000D03*
%TD*%
D10*
%TO.P,D25,1*%
%TO.N,P3*%
X252025000Y-151740000D03*
D11*
X252025000Y-153900000D03*
%TO.P,D25,2*%
%TO.N,mirror_second_bottom*%
X252025000Y-157200000D03*
D12*
X252025000Y-159360000D03*
%TD*%
D10*
%TO.P,D7,1*%
%TO.N,P4*%
X252025000Y-138240000D03*
D11*
X252025000Y-140400000D03*
%TO.P,D7,2*%
%TO.N,mirror_second_home*%
X252025000Y-143700000D03*
D12*
X252025000Y-145860000D03*
%TD*%
D13*
%TO.P,S10,1*%
%TO.N,P16*%
X247500000Y-106500000D03*
%TO.P,S10,2*%
%TO.N,mirror_second_num*%
X235950000Y-104300000D03*
%TD*%
D10*
%TO.P,D14,1*%
%TO.N,P2*%
X214025000Y-164240000D03*
D11*
X214025000Y-166400000D03*
%TO.P,D14,2*%
%TO.N,mirror_fourth_mod*%
X214025000Y-169700000D03*
D12*
X214025000Y-171860000D03*
%TD*%
D10*
%TO.P,D6,1*%
%TO.N,P2*%
X252025000Y-176240000D03*
D11*
X252025000Y-178400000D03*
%TO.P,D6,2*%
%TO.N,mirror_second_mod*%
X252025000Y-181700000D03*
D12*
X252025000Y-183860000D03*
%TD*%
D13*
%TO.P,S21,1*%
%TO.N,P18*%
X190500000Y-176500000D03*
%TO.P,S21,2*%
%TO.N,mirror_fifth_mod*%
X178950000Y-174300000D03*
%TD*%
D10*
%TO.P,D28,1*%
%TO.N,P3*%
X195025000Y-145740000D03*
D11*
X195025000Y-147900000D03*
%TO.P,D28,2*%
%TO.N,mirror_fifth_bottom*%
X195025000Y-151200000D03*
D12*
X195025000Y-153360000D03*
%TD*%
D13*
%TO.P,S28,1*%
%TO.N,P19*%
X171500000Y-141500000D03*
%TO.P,S28,2*%
%TO.N,mirror_sixth_home*%
X159950000Y-139300000D03*
%TD*%
D10*
%TO.P,D21,1*%
%TO.N,P2*%
X176025000Y-173240000D03*
D11*
X176025000Y-175400000D03*
%TO.P,D21,2*%
%TO.N,mirror_sixth_mod*%
X176025000Y-178700000D03*
D12*
X176025000Y-180860000D03*
%TD*%
D14*
%TO.P,MCU1,1*%
%TO.N,RAW*%
X163255000Y-106670000D03*
D15*
%TO.P,MCU1,2*%
%TO.N,GND*%
X165795000Y-106670000D03*
%TO.P,MCU1,3*%
%TO.N,RST*%
X168335000Y-106670000D03*
%TO.P,MCU1,4*%
%TO.N,VCC*%
X170875000Y-106670000D03*
%TO.P,MCU1,5*%
%TO.N,P21*%
X173415000Y-106670000D03*
%TO.P,MCU1,6*%
%TO.N,P20*%
X175955000Y-106670000D03*
%TO.P,MCU1,7*%
%TO.N,P19*%
X178495000Y-106670000D03*
%TO.P,MCU1,8*%
%TO.N,P18*%
X181035000Y-106670000D03*
%TO.P,MCU1,9*%
%TO.N,P15*%
X183575000Y-106670000D03*
%TO.P,MCU1,10*%
%TO.N,P14*%
X186115000Y-106670000D03*
%TO.P,MCU1,11*%
%TO.N,P16*%
X188655000Y-106670000D03*
%TO.P,MCU1,12*%
%TO.N,P10*%
X191195000Y-106670000D03*
%TO.P,MCU1,13*%
%TO.N,P1*%
X163255000Y-91430000D03*
%TO.P,MCU1,14*%
%TO.N,P0*%
X165795000Y-91430000D03*
%TO.P,MCU1,15*%
%TO.N,GND*%
X168335000Y-91430000D03*
%TO.P,MCU1,16*%
X170875000Y-91430000D03*
%TO.P,MCU1,17*%
%TO.N,P2*%
X173415000Y-91430000D03*
%TO.P,MCU1,18*%
%TO.N,P3*%
X175955000Y-91430000D03*
%TO.P,MCU1,19*%
%TO.N,P4*%
X178495000Y-91430000D03*
%TO.P,MCU1,20*%
%TO.N,P5*%
X181035000Y-91430000D03*
%TO.P,MCU1,21*%
%TO.N,P6*%
X183575000Y-91430000D03*
%TO.P,MCU1,22*%
%TO.N,P7*%
X186115000Y-91430000D03*
%TO.P,MCU1,23*%
%TO.N,P8*%
X188655000Y-91430000D03*
%TO.P,MCU1,24*%
%TO.N,P9*%
X191195000Y-91430000D03*
%TD*%
D13*
%TO.P,S13,1*%
%TO.N,P14*%
X228500000Y-137500000D03*
%TO.P,S13,2*%
%TO.N,mirror_third_home*%
X216950000Y-135300000D03*
%TD*%
%TO.P,S5,1*%
%TO.N,P10*%
X266500000Y-106500000D03*
%TO.P,S5,2*%
%TO.N,mirror_first_num*%
X254950000Y-104300000D03*
%TD*%
%TO.P,S19,1*%
%TO.N,P15*%
X209500000Y-113500000D03*
%TO.P,S19,2*%
%TO.N,mirror_fourth_top*%
X197950000Y-111300000D03*
%TD*%
%TO.P,S17,1*%
%TO.N,P15*%
X209500000Y-151500000D03*
%TO.P,S17,2*%
%TO.N,mirror_fourth_bottom*%
X197950000Y-149300000D03*
%TD*%
%TO.P,S6,1*%
%TO.N,P16*%
X247500000Y-182500000D03*
%TO.P,S6,2*%
%TO.N,mirror_second_mod*%
X235950000Y-180300000D03*
%TD*%
D10*
%TO.P,D1,1*%
%TO.N,P2*%
X271025000Y-176240000D03*
D11*
X271025000Y-178400000D03*
%TO.P,D1,2*%
%TO.N,mirror_first_mod*%
X271025000Y-181700000D03*
D12*
X271025000Y-183860000D03*
%TD*%
D13*
%TO.P,S26,1*%
%TO.N,P19*%
X171500000Y-179500000D03*
%TO.P,S26,2*%
%TO.N,mirror_sixth_mod*%
X159950000Y-177300000D03*
%TD*%
D10*
%TO.P,D17,1*%
%TO.N,P6*%
X214025000Y-88240000D03*
D11*
X214025000Y-90400000D03*
%TO.P,D17,2*%
%TO.N,mirror_fourth_num*%
X214025000Y-93700000D03*
D12*
X214025000Y-95860000D03*
%TD*%
D13*
%TO.P,S8,1*%
%TO.N,P16*%
X247500000Y-144500000D03*
%TO.P,S8,2*%
%TO.N,mirror_second_home*%
X235950000Y-142300000D03*
%TD*%
%TO.P,S18,1*%
%TO.N,P15*%
X209500000Y-132500000D03*
%TO.P,S18,2*%
%TO.N,mirror_fourth_home*%
X197950000Y-130300000D03*
%TD*%
%TO.P,S22,1*%
%TO.N,P18*%
X190500000Y-157500000D03*
%TO.P,S22,2*%
%TO.N,mirror_fifth_bottom*%
X178950000Y-155300000D03*
%TD*%
D10*
%TO.P,D22,1*%
%TO.N,P3*%
X176025000Y-154240000D03*
D11*
X176025000Y-156400000D03*
%TO.P,D22,2*%
%TO.N,mirror_sixth_bottom*%
X176025000Y-159700000D03*
D12*
X176025000Y-161860000D03*
%TD*%
D13*
%TO.P,S1,1*%
%TO.N,P10*%
X266500000Y-182500000D03*
%TO.P,S1,2*%
%TO.N,mirror_first_mod*%
X254950000Y-180300000D03*
%TD*%
%TO.P,S4,1*%
%TO.N,P10*%
X266500000Y-125500000D03*
%TO.P,S4,2*%
%TO.N,mirror_first_top*%
X254950000Y-123300000D03*
%TD*%
D16*
%TO.P,S31,1*%
%TO.N,P18*%
X168587513Y-199871055D03*
%TO.P,S31,2*%
%TO.N,mirror_t1_thumb*%
X156981619Y-201754064D03*
%TD*%
D13*
%TO.P,S14,1*%
%TO.N,P14*%
X228500000Y-118500000D03*
%TO.P,S14,2*%
%TO.N,mirror_third_top*%
X216950000Y-116300000D03*
%TD*%
D10*
%TO.P,D23,1*%
%TO.N,P4*%
X176025000Y-135240000D03*
D11*
X176025000Y-137400000D03*
%TO.P,D23,2*%
%TO.N,mirror_sixth_home*%
X176025000Y-140700000D03*
D12*
X176025000Y-142860000D03*
%TD*%
D10*
%TO.P,D16,1*%
%TO.N,P5*%
X214025000Y-107240000D03*
D11*
X214025000Y-109400000D03*
%TO.P,D16,2*%
%TO.N,mirror_fourth_top*%
X214025000Y-112700000D03*
D12*
X214025000Y-114860000D03*
%TD*%
D17*
%TO.P,D31,1*%
%TO.N,P7*%
X170698576Y-192440938D03*
D18*
X171437340Y-194470674D03*
%TO.P,D31,2*%
%TO.N,mirror_t1_thumb*%
X172566006Y-197571660D03*
D12*
X173304770Y-199601396D03*
%TD*%
D10*
%TO.P,D18,1*%
%TO.N,P2*%
X195025000Y-170240000D03*
D11*
X195025000Y-172400000D03*
%TO.P,D18,2*%
%TO.N,mirror_fifth_mod*%
X195025000Y-175700000D03*
D12*
X195025000Y-177860000D03*
%TD*%
D10*
%TO.P,D3,1*%
%TO.N,P4*%
X271025000Y-138240000D03*
D11*
X271025000Y-140400000D03*
%TO.P,D3,2*%
%TO.N,mirror_first_home*%
X271025000Y-143700000D03*
D12*
X271025000Y-145860000D03*
%TD*%
D13*
%TO.P,S7,1*%
%TO.N,P16*%
X247500000Y-163500000D03*
%TO.P,S7,2*%
%TO.N,mirror_second_bottom*%
X235950000Y-161300000D03*
%TD*%
%TO.P,S15,1*%
%TO.N,P14*%
X228500000Y-99500000D03*
%TO.P,S15,2*%
%TO.N,mirror_third_num*%
X216950000Y-97300000D03*
%TD*%
%TO.P,S20,1*%
%TO.N,P15*%
X209500000Y-94500000D03*
%TO.P,S20,2*%
%TO.N,mirror_fourth_num*%
X197950000Y-92300000D03*
%TD*%
%TO.P,S3,1*%
%TO.N,P10*%
X266500000Y-144500000D03*
%TO.P,S3,2*%
%TO.N,mirror_first_home*%
X254950000Y-142300000D03*
%TD*%
D10*
%TO.P,D20,1*%
%TO.N,P5*%
X195025000Y-113240000D03*
D11*
X195025000Y-115400000D03*
%TO.P,D20,2*%
%TO.N,mirror_fifth_top*%
X195025000Y-118700000D03*
D12*
X195025000Y-120860000D03*
%TD*%
D10*
%TO.P,D19,1*%
%TO.N,P4*%
X195025000Y-132240000D03*
D11*
X195025000Y-134400000D03*
%TO.P,D19,2*%
%TO.N,mirror_fifth_home*%
X195025000Y-137700000D03*
D12*
X195025000Y-139860000D03*
%TD*%
D10*
%TO.P,D12,1*%
%TO.N,P5*%
X233025000Y-112240000D03*
D11*
X233025000Y-114400000D03*
%TO.P,D12,2*%
%TO.N,mirror_third_top*%
X233025000Y-117700000D03*
D12*
X233025000Y-119860000D03*
%TD*%
D13*
%TO.P,S2,1*%
%TO.N,P10*%
X266500000Y-163500000D03*
%TO.P,S2,2*%
%TO.N,mirror_first_bottom*%
X254950000Y-161300000D03*
%TD*%
D10*
%TO.P,D9,1*%
%TO.N,P2*%
X233025000Y-169240000D03*
D11*
X233025000Y-171400000D03*
%TO.P,D9,2*%
%TO.N,mirror_third_mod*%
X233025000Y-174700000D03*
D12*
X233025000Y-176860000D03*
%TD*%
D10*
%TO.P,D27,1*%
%TO.N,P4*%
X214025000Y-120740000D03*
D11*
X214025000Y-122900000D03*
%TO.P,D27,2*%
%TO.N,mirror_fourth_home*%
X214025000Y-126200000D03*
D12*
X214025000Y-128360000D03*
%TD*%
D10*
%TO.P,D10,1*%
%TO.N,P3*%
X233025000Y-150240000D03*
D11*
X233025000Y-152400000D03*
%TO.P,D10,2*%
%TO.N,mirror_third_bottom*%
X233025000Y-155700000D03*
D12*
X233025000Y-157860000D03*
%TD*%
D13*
%TO.P,S30,1*%
%TO.N,P19*%
X171500000Y-103500000D03*
%TO.P,S30,2*%
%TO.N,mirror_sixth_num*%
X159950000Y-101300000D03*
%TD*%
%TO.P,S29,1*%
%TO.N,P19*%
X171500000Y-122500000D03*
%TO.P,S29,2*%
%TO.N,mirror_sixth_top*%
X159950000Y-120300000D03*
%TD*%
D19*
%TO.P,TRRS1,1*%
%TO.N,GND*%
X171325000Y-113650000D03*
X171325000Y-109050000D03*
%TO.P,TRRS1,2*%
X170225000Y-113650000D03*
X170225000Y-109050000D03*
%TO.P,TRRS1,3*%
%TO.N,P21*%
X166225000Y-113650000D03*
X166225000Y-109050000D03*
%TO.P,TRRS1,4*%
%TO.N,VCC*%
X163225000Y-113650000D03*
X163225000Y-109050000D03*
%TD*%
D10*
%TO.P,D13,1*%
%TO.N,P6*%
X233025000Y-93240000D03*
D11*
X233025000Y-95400000D03*
%TO.P,D13,2*%
%TO.N,mirror_third_num*%
X233025000Y-98700000D03*
D12*
X233025000Y-100860000D03*
%TD*%
D13*
%TO.P,S16,1*%
%TO.N,P15*%
X209500000Y-170500000D03*
%TO.P,S16,2*%
%TO.N,mirror_fourth_mod*%
X197950000Y-168300000D03*
%TD*%
%TO.P,S24,1*%
%TO.N,P18*%
X190500000Y-119500000D03*
%TO.P,S24,2*%
%TO.N,mirror_fifth_top*%
X178950000Y-117300000D03*
%TD*%
D10*
%TO.P,D4,1*%
%TO.N,P5*%
X271025000Y-119240000D03*
D11*
X271025000Y-121400000D03*
%TO.P,D4,2*%
%TO.N,mirror_first_top*%
X271025000Y-124700000D03*
D12*
X271025000Y-126860000D03*
%TD*%
D10*
%TO.P,D2,1*%
%TO.N,P3*%
X271025000Y-157240000D03*
D11*
X271025000Y-159400000D03*
%TO.P,D2,2*%
%TO.N,mirror_first_bottom*%
X271025000Y-162700000D03*
D12*
X271025000Y-164860000D03*
%TD*%
D13*
%TO.P,S25,1*%
%TO.N,P18*%
X190500000Y-100500000D03*
%TO.P,S25,2*%
%TO.N,mirror_fifth_num*%
X178950000Y-98300000D03*
%TD*%
%TO.P,S23,1*%
%TO.N,P18*%
X190500000Y-138500000D03*
%TO.P,S23,2*%
%TO.N,mirror_fifth_home*%
X178950000Y-136300000D03*
%TD*%
%TO.P,S9,1*%
%TO.N,P16*%
X247500000Y-125500000D03*
%TO.P,S9,2*%
%TO.N,mirror_second_top*%
X235950000Y-123300000D03*
%TD*%
%TO.P,S12,1*%
%TO.N,P14*%
X228500000Y-156500000D03*
%TO.P,S12,2*%
%TO.N,mirror_third_bottom*%
X216950000Y-154300000D03*
%TD*%
D10*
%TO.P,D8,1*%
%TO.N,P5*%
X252025000Y-119240000D03*
D11*
X252025000Y-121400000D03*
%TO.P,D8,2*%
%TO.N,mirror_second_top*%
X252025000Y-124700000D03*
D12*
X252025000Y-126860000D03*
%TD*%
D10*
%TO.P,D5,1*%
%TO.N,P6*%
X271025000Y-100240000D03*
D11*
X271025000Y-102400000D03*
%TO.P,D5,2*%
%TO.N,mirror_first_num*%
X271025000Y-105700000D03*
D12*
X271025000Y-107860000D03*
%TD*%
D16*
%TO.P,S32,1*%
%TO.N,P19*%
X151383192Y-208154854D03*
%TO.P,S32,2*%
%TO.N,mirror_t2_thumb*%
X139777298Y-210037863D03*
%TD*%
D10*
%TO.P,D26,1*%
%TO.N,P6*%
X252025000Y-94740000D03*
D11*
X252025000Y-96900000D03*
%TO.P,D26,2*%
%TO.N,mirror_second_num*%
X252025000Y-100200000D03*
D12*
X252025000Y-102360000D03*
%TD*%
D10*
%TO.P,D24,1*%
%TO.N,P5*%
X176025000Y-116240000D03*
D11*
X176025000Y-118400000D03*
%TO.P,D24,2*%
%TO.N,mirror_sixth_top*%
X176025000Y-121700000D03*
D12*
X176025000Y-123860000D03*
%TD*%
D13*
%TO.P,S11,1*%
%TO.N,P14*%
X228500000Y-175500000D03*
%TO.P,S11,2*%
%TO.N,mirror_third_mod*%
X216950000Y-173300000D03*
%TD*%
D17*
%TO.P,D32,1*%
%TO.N,P7*%
X153494254Y-200724737D03*
D18*
X154233018Y-202754473D03*
%TO.P,D32,2*%
%TO.N,mirror_t2_thumb*%
X155361684Y-205855459D03*
D12*
X156100448Y-207885195D03*
%TD*%
D10*
%TO.P,D15,1*%
%TO.N,P3*%
X214025000Y-145240000D03*
D11*
X214025000Y-147400000D03*
%TO.P,D15,2*%
%TO.N,mirror_fourth_bottom*%
X214025000Y-150700000D03*
D12*
X214025000Y-152860000D03*
%TD*%
D10*
%TO.P,D30,1*%
%TO.N,P6*%
X176025000Y-94740000D03*
D11*
X176025000Y-96900000D03*
%TO.P,D30,2*%
%TO.N,mirror_sixth_num*%
X176025000Y-100200000D03*
D12*
X176025000Y-102360000D03*
%TD*%
D20*
%TO.N,P10*%
X261500000Y-103500000D03*
%TO.N,P16*%
X217000000Y-103500000D03*
%TO.N,GND*%
X165795000Y-100205000D03*
X167000000Y-94500000D03*
%TD*%
D21*
%TO.N,P10*%
X273000000Y-162500000D02*
X273000000Y-170539901D01*
X266500000Y-139039901D02*
X266500000Y-144500000D01*
X266500000Y-177039901D02*
X266500000Y-182500000D01*
X273500000Y-124500000D02*
X273500000Y-132039901D01*
X271500000Y-161000000D02*
X273000000Y-162500000D01*
X264000000Y-104000000D02*
X263500000Y-103500000D01*
X271500000Y-104000000D02*
X272500000Y-105000000D01*
X266500000Y-125500000D02*
X269000000Y-123000000D01*
X266500000Y-163500000D02*
X269000000Y-161000000D01*
X264000000Y-104000000D02*
X271500000Y-104000000D01*
X266500000Y-120039901D02*
X266500000Y-125500000D01*
X272500000Y-114039901D02*
X266500000Y-120039901D01*
X272500000Y-105000000D02*
X272500000Y-114039901D01*
X272000000Y-142500000D02*
X273500000Y-144000000D01*
X269000000Y-161000000D02*
X271500000Y-161000000D01*
X273500000Y-132039901D02*
X266500000Y-139039901D01*
X266500000Y-106500000D02*
X264000000Y-104000000D01*
X272000000Y-123000000D02*
X273500000Y-124500000D01*
X268500000Y-142500000D02*
X272000000Y-142500000D01*
X266500000Y-158039901D02*
X266500000Y-163500000D01*
X269000000Y-123000000D02*
X272000000Y-123000000D01*
X266500000Y-144500000D02*
X268500000Y-142500000D01*
X263500000Y-103500000D02*
X261500000Y-103500000D01*
X273000000Y-170539901D02*
X266500000Y-177039901D01*
X273500000Y-144000000D02*
X273500000Y-151039901D01*
X273500000Y-151039901D02*
X266500000Y-158039901D01*
%TO.N,mirror_first_mod*%
X254950000Y-180300000D02*
X259150000Y-184500000D01*
X270385000Y-184500000D02*
X271025000Y-183860000D01*
X271025000Y-183860000D02*
X271025000Y-181700000D01*
X259150000Y-184500000D02*
X270385000Y-184500000D01*
%TO.N,mirror_first_bottom*%
X254950000Y-161300000D02*
X259650000Y-166000000D01*
X269885000Y-166000000D02*
X271025000Y-164860000D01*
X271025000Y-164860000D02*
X271025000Y-162700000D01*
X259650000Y-166000000D02*
X269885000Y-166000000D01*
%TO.N,mirror_first_home*%
X259462500Y-146812500D02*
X270072500Y-146812500D01*
X270072500Y-146812500D02*
X271025000Y-145860000D01*
X254950000Y-142300000D02*
X259462500Y-146812500D01*
X271025000Y-145860000D02*
X271025000Y-143700000D01*
%TO.N,mirror_first_top*%
X259650000Y-128000000D02*
X269885000Y-128000000D01*
X269885000Y-128000000D02*
X271025000Y-126860000D01*
X254950000Y-123300000D02*
X259650000Y-128000000D01*
X271025000Y-126860000D02*
X271025000Y-124700000D01*
%TO.N,mirror_first_num*%
X254950000Y-104300000D02*
X259462500Y-108812500D01*
X259462500Y-108812500D02*
X270072500Y-108812500D01*
X270072500Y-108812500D02*
X271025000Y-107860000D01*
X271025000Y-107860000D02*
X271025000Y-105700000D01*
%TO.N,P16*%
X238609294Y-154890706D02*
X247218587Y-163500000D01*
X232500000Y-103500000D02*
X232500000Y-104868587D01*
X241101000Y-122522935D02*
X239578065Y-121000000D01*
X234324000Y-121674000D02*
X234324000Y-131605413D01*
X247500000Y-125500000D02*
X244522935Y-122522935D01*
X247218587Y-182500000D02*
X247500000Y-182500000D01*
X238609294Y-135890706D02*
X234324000Y-140176000D01*
X240002065Y-102424000D02*
X233576000Y-102424000D01*
X247218587Y-144500000D02*
X247500000Y-144500000D01*
X241101000Y-103522935D02*
X240002065Y-102424000D01*
X234324000Y-159176000D02*
X234324000Y-169605413D01*
X244522935Y-103522935D02*
X241101000Y-103522935D01*
X234324000Y-140176000D02*
X234324000Y-150605413D01*
X234998000Y-121000000D02*
X234324000Y-121674000D01*
X238609294Y-154890706D02*
X234324000Y-159176000D01*
X247500000Y-119868587D02*
X247500000Y-125500000D01*
X234324000Y-150605413D02*
X238609294Y-154890706D01*
X233576000Y-102424000D02*
X232500000Y-103500000D01*
X234324000Y-131605413D02*
X238609294Y-135890706D01*
X234324000Y-169605413D02*
X247218587Y-182500000D01*
X238609294Y-135890706D02*
X247218587Y-144500000D01*
X247218587Y-163500000D02*
X247500000Y-163500000D01*
X239578065Y-121000000D02*
X234998000Y-121000000D01*
X232500000Y-103500000D02*
X217000000Y-103500000D01*
X232500000Y-104868587D02*
X247500000Y-119868587D01*
X244522935Y-122522935D02*
X241101000Y-122522935D01*
X247500000Y-106500000D02*
X244522935Y-103522935D01*
%TO.N,mirror_second_mod*%
X251072500Y-184812500D02*
X252025000Y-183860000D01*
X252025000Y-183860000D02*
X252025000Y-181700000D01*
X235950000Y-180300000D02*
X240462500Y-184812500D01*
X240462500Y-184812500D02*
X251072500Y-184812500D01*
%TO.N,mirror_second_bottom*%
X235950000Y-161300000D02*
X240150000Y-165500000D01*
X240150000Y-165500000D02*
X248752000Y-165500000D01*
X252025000Y-159360000D02*
X252025000Y-157200000D01*
X248752000Y-165500000D02*
X252025000Y-162227000D01*
X252025000Y-162227000D02*
X252025000Y-159360000D01*
%TO.N,mirror_second_home*%
X252025000Y-145860000D02*
X252025000Y-143700000D01*
X240462500Y-146812500D02*
X251072500Y-146812500D01*
X235950000Y-142300000D02*
X240462500Y-146812500D01*
X251072500Y-146812500D02*
X252025000Y-145860000D01*
%TO.N,mirror_second_top*%
X251072500Y-127812500D02*
X252025000Y-126860000D01*
X240462500Y-127812500D02*
X251072500Y-127812500D01*
X235950000Y-123300000D02*
X240462500Y-127812500D01*
X252025000Y-126860000D02*
X252025000Y-124700000D01*
%TO.N,mirror_second_num*%
X235950000Y-104300000D02*
X240026000Y-108376000D01*
X249624000Y-108376000D02*
X252025000Y-105975000D01*
X240026000Y-108376000D02*
X249624000Y-108376000D01*
X252025000Y-102360000D02*
X252025000Y-100200000D01*
X252025000Y-105975000D02*
X252025000Y-102360000D01*
%TO.N,P14*%
X219689033Y-110310967D02*
X215303500Y-114696500D01*
X222052941Y-144447059D02*
X215324000Y-151176000D01*
X223876000Y-97624000D02*
X221676000Y-95424000D01*
X215303500Y-114696500D02*
X215303500Y-124803500D01*
X215303500Y-124803500D02*
X219250000Y-128750000D01*
X187945000Y-108500000D02*
X186115000Y-106670000D01*
X215324000Y-162945935D02*
X227878065Y-175500000D01*
X215324000Y-151176000D02*
X215324000Y-162945935D01*
X226624000Y-97624000D02*
X223876000Y-97624000D01*
X219250000Y-128750000D02*
X228000000Y-137500000D01*
X228218587Y-156500000D02*
X228500000Y-156500000D01*
X228000000Y-137500000D02*
X228500000Y-137500000D01*
X215576000Y-95424000D02*
X215303500Y-95696500D01*
X200540500Y-105459500D02*
X197500000Y-108500000D01*
X228500000Y-99500000D02*
X226624000Y-97624000D01*
X219250000Y-128750000D02*
X215324000Y-132676000D01*
X227878065Y-118500000D02*
X228500000Y-118500000D01*
X219689033Y-110310967D02*
X227878065Y-118500000D01*
X215303500Y-105925435D02*
X214837565Y-105459500D01*
X222052941Y-144447059D02*
X223134500Y-145528618D01*
X221676000Y-95424000D02*
X215576000Y-95424000D01*
X197500000Y-108500000D02*
X187945000Y-108500000D01*
X215303500Y-95696500D02*
X215303500Y-105925435D01*
X215324000Y-137718118D02*
X222052941Y-144447059D01*
X215324000Y-132676000D02*
X215324000Y-137718118D01*
X223134500Y-151415913D02*
X228218587Y-156500000D01*
X214837565Y-105459500D02*
X200540500Y-105459500D01*
X215303500Y-105925435D02*
X219689033Y-110310967D01*
X223134500Y-145528618D02*
X223134500Y-151415913D01*
X227878065Y-175500000D02*
X228500000Y-175500000D01*
%TO.N,mirror_third_mod*%
X232509000Y-177376000D02*
X233025000Y-176860000D01*
X216950000Y-173300000D02*
X221026000Y-177376000D01*
X233025000Y-176860000D02*
X233025000Y-174700000D01*
X221026000Y-177376000D02*
X232509000Y-177376000D01*
%TO.N,mirror_third_bottom*%
X221650000Y-159000000D02*
X231885000Y-159000000D01*
X231885000Y-159000000D02*
X233025000Y-157860000D01*
X216950000Y-154300000D02*
X221650000Y-159000000D01*
X233025000Y-157860000D02*
X233025000Y-155700000D01*
%TO.N,mirror_third_home*%
X221650000Y-140000000D02*
X231885000Y-140000000D01*
X233025000Y-138860000D02*
X233025000Y-136700000D01*
X216950000Y-135300000D02*
X221650000Y-140000000D01*
X231885000Y-140000000D02*
X233025000Y-138860000D01*
%TO.N,mirror_third_top*%
X216950000Y-116300000D02*
X221462500Y-120812500D01*
X233025000Y-119860000D02*
X233025000Y-117700000D01*
X221462500Y-120812500D02*
X232072500Y-120812500D01*
X232072500Y-120812500D02*
X233025000Y-119860000D01*
%TO.N,mirror_third_num*%
X216950000Y-97300000D02*
X221650000Y-102000000D01*
X231885000Y-102000000D02*
X233025000Y-100860000D01*
X233025000Y-100860000D02*
X233025000Y-98700000D01*
X221650000Y-102000000D02*
X231885000Y-102000000D01*
%TO.N,P15*%
X209500000Y-164868587D02*
X209500000Y-170500000D01*
X207500000Y-92500000D02*
X204078065Y-92500000D01*
X207624000Y-134376000D02*
X209500000Y-132500000D01*
X185903595Y-108998595D02*
X183575000Y-106670000D01*
X204078065Y-92500000D02*
X202002065Y-90424000D01*
X196324000Y-131926000D02*
X198774000Y-134376000D01*
X201576660Y-108998595D02*
X196500000Y-108998595D01*
X198774000Y-134376000D02*
X198774000Y-141055413D01*
X196303500Y-90694500D02*
X196303500Y-97948500D01*
X200109294Y-142390706D02*
X209218587Y-151500000D01*
X207624000Y-111624000D02*
X204202065Y-111624000D01*
X185342810Y-103000000D02*
X183575000Y-104767810D01*
X191252000Y-103000000D02*
X185342810Y-103000000D01*
X196500000Y-108998595D02*
X196324000Y-109174595D01*
X196324000Y-109174595D02*
X196324000Y-131926000D01*
X200109294Y-142390706D02*
X196324000Y-146176000D01*
X183575000Y-104767810D02*
X183575000Y-106670000D01*
X209500000Y-94500000D02*
X207500000Y-92500000D01*
X209218587Y-151500000D02*
X209500000Y-151500000D01*
X198774000Y-141055413D02*
X200109294Y-142390706D01*
X196324000Y-151692587D02*
X209500000Y-164868587D01*
X209500000Y-113500000D02*
X207624000Y-111624000D01*
X198774000Y-134376000D02*
X207624000Y-134376000D01*
X196574000Y-90424000D02*
X196303500Y-90694500D01*
X196500000Y-108998595D02*
X185903595Y-108998595D01*
X196324000Y-146176000D02*
X196324000Y-151692587D01*
X202002065Y-90424000D02*
X196574000Y-90424000D01*
X204202065Y-111624000D02*
X201576660Y-108998595D01*
X196303500Y-97948500D02*
X191252000Y-103000000D01*
%TO.N,mirror_fourth_mod*%
X214025000Y-171860000D02*
X214025000Y-169700000D01*
X213509000Y-172376000D02*
X214025000Y-171860000D01*
X202026000Y-172376000D02*
X213509000Y-172376000D01*
X197950000Y-168300000D02*
X202026000Y-172376000D01*
%TO.N,mirror_fourth_bottom*%
X202462500Y-153812500D02*
X213072500Y-153812500D01*
X197950000Y-149300000D02*
X202462500Y-153812500D01*
X213072500Y-153812500D02*
X214025000Y-152860000D01*
X214025000Y-152860000D02*
X214025000Y-150700000D01*
%TO.N,mirror_fourth_home*%
X202860000Y-128360000D02*
X204500000Y-130000000D01*
X212385000Y-130000000D02*
X214025000Y-128360000D01*
X197950000Y-130300000D02*
X199890000Y-128360000D01*
X199890000Y-128360000D02*
X202860000Y-128360000D01*
X204500000Y-130000000D02*
X212385000Y-130000000D01*
X214025000Y-128360000D02*
X214025000Y-126200000D01*
%TO.N,mirror_fourth_top*%
X197950000Y-111300000D02*
X202650000Y-116000000D01*
X214025000Y-114860000D02*
X214025000Y-112700000D01*
X212885000Y-116000000D02*
X214025000Y-114860000D01*
X202650000Y-116000000D02*
X212885000Y-116000000D01*
%TO.N,mirror_fourth_num*%
X202462500Y-96812500D02*
X213072500Y-96812500D01*
X214025000Y-95860000D02*
X214025000Y-93700000D01*
X197950000Y-92300000D02*
X202462500Y-96812500D01*
X213072500Y-96812500D02*
X214025000Y-95860000D01*
%TO.N,P18*%
X190218587Y-119500000D02*
X190500000Y-119500000D01*
X184500000Y-110135000D02*
X181035000Y-106670000D01*
X178000000Y-178000000D02*
X177000000Y-177000000D01*
X168587513Y-199871055D02*
X167416409Y-198699951D01*
X189878065Y-138500000D02*
X190500000Y-138500000D01*
X185154965Y-133776900D02*
X177324000Y-125945935D01*
X172000000Y-174500000D02*
X172000000Y-173500000D01*
X184500000Y-115424000D02*
X186142587Y-115424000D01*
X185154965Y-133776900D02*
X189878065Y-138500000D01*
X189878065Y-176500000D02*
X190500000Y-176500000D01*
X185329000Y-102376000D02*
X181035000Y-106670000D01*
X177324000Y-125945935D02*
X177324000Y-115674000D01*
X178000000Y-181000000D02*
X178000000Y-178000000D01*
X177324000Y-137926000D02*
X177324000Y-134674000D01*
X178500000Y-167000000D02*
X180378065Y-167000000D01*
X184500000Y-115424000D02*
X184500000Y-110135000D01*
X186142587Y-115424000D02*
X190218587Y-119500000D01*
X177324000Y-115674000D02*
X177574000Y-115424000D01*
X167416409Y-191083591D02*
X171500000Y-187000000D01*
X180378065Y-167000000D02*
X180439032Y-167060968D01*
X190500000Y-157500000D02*
X190500000Y-151102000D01*
X177000000Y-177000000D02*
X174500000Y-177000000D01*
X178221100Y-133776900D02*
X185154965Y-133776900D01*
X180439032Y-167060968D02*
X189878065Y-176500000D01*
X177973000Y-153025000D02*
X177324000Y-153674000D01*
X182603065Y-153025000D02*
X177973000Y-153025000D01*
X174500000Y-177000000D02*
X172000000Y-174500000D01*
X177324000Y-134674000D02*
X178221100Y-133776900D01*
X171500000Y-187000000D02*
X172000000Y-187000000D01*
X177324000Y-163945936D02*
X180439032Y-167060968D01*
X167416409Y-198699951D02*
X167416409Y-191083591D01*
X172000000Y-173500000D02*
X178500000Y-167000000D01*
X177574000Y-115424000D02*
X184500000Y-115424000D01*
X190500000Y-100500000D02*
X188624000Y-102376000D01*
X190500000Y-151102000D02*
X177324000Y-137926000D01*
X177324000Y-153674000D02*
X177324000Y-163945936D01*
X172000000Y-187000000D02*
X178000000Y-181000000D01*
X188624000Y-102376000D02*
X185329000Y-102376000D01*
X187522935Y-154522935D02*
X184101000Y-154522935D01*
X190500000Y-157500000D02*
X187522935Y-154522935D01*
X184101000Y-154522935D02*
X182603065Y-153025000D01*
%TO.N,mirror_fifth_mod*%
X194509000Y-178376000D02*
X195025000Y-177860000D01*
X178950000Y-174300000D02*
X183026000Y-178376000D01*
X195025000Y-177860000D02*
X195025000Y-175700000D01*
X183026000Y-178376000D02*
X194509000Y-178376000D01*
%TO.N,mirror_fifth_bottom*%
X178950000Y-155300000D02*
X183026000Y-159376000D01*
X195025000Y-156227000D02*
X195025000Y-153360000D01*
X183026000Y-159376000D02*
X191876000Y-159376000D01*
X195025000Y-153360000D02*
X195025000Y-151200000D01*
X191876000Y-159376000D02*
X195025000Y-156227000D01*
%TO.N,mirror_fifth_home*%
X194385000Y-140500000D02*
X195025000Y-139860000D01*
X183150000Y-140500000D02*
X194385000Y-140500000D01*
X178950000Y-136300000D02*
X183150000Y-140500000D01*
X195025000Y-139860000D02*
X195025000Y-137700000D01*
%TO.N,mirror_fifth_top*%
X183150000Y-121500000D02*
X194385000Y-121500000D01*
X178950000Y-117300000D02*
X183150000Y-121500000D01*
X194385000Y-121500000D02*
X195025000Y-120860000D01*
X195025000Y-120860000D02*
X195025000Y-118700000D01*
%TO.N,mirror_fifth_num*%
X186359087Y-96640500D02*
X194744500Y-96640500D01*
X181109293Y-96140707D02*
X185859294Y-96140707D01*
X195025000Y-96360000D02*
X195025000Y-94200000D01*
X194744500Y-96640500D02*
X195025000Y-96360000D01*
X185859294Y-96140707D02*
X186359087Y-96640500D01*
X178950000Y-98300000D02*
X181109293Y-96140707D01*
%TO.N,P19*%
X166202065Y-120624000D02*
X164002065Y-118424000D01*
X149500000Y-196500000D02*
X149500000Y-206271662D01*
X169624000Y-120624000D02*
X166202065Y-120624000D01*
X171500000Y-103500000D02*
X175325000Y-103500000D01*
X158574000Y-156424000D02*
X158324000Y-156674000D01*
X158574000Y-118424000D02*
X158324000Y-118674000D01*
X171218587Y-160500000D02*
X171500000Y-160500000D01*
X171500000Y-115367404D02*
X178495000Y-108372404D01*
X158324000Y-118674000D02*
X158324000Y-122692587D01*
X158324000Y-156674000D02*
X158324000Y-166945935D01*
X164002065Y-118424000D02*
X158574000Y-118424000D01*
X149500000Y-206271662D02*
X151383192Y-208154854D01*
X171500000Y-122500000D02*
X169624000Y-120624000D01*
X158324000Y-122692587D02*
X171500000Y-135868587D01*
X178495000Y-108372404D02*
X178495000Y-106670000D01*
X158324000Y-137674000D02*
X158324000Y-147605413D01*
X166334099Y-137424000D02*
X158574000Y-137424000D01*
X158574000Y-137424000D02*
X158324000Y-137674000D01*
X158574000Y-175424000D02*
X158000000Y-175998000D01*
X165101000Y-157522935D02*
X164002065Y-156424000D01*
X164002065Y-156424000D02*
X158574000Y-156424000D01*
X167433034Y-138522935D02*
X166334099Y-137424000D01*
X158000000Y-175998000D02*
X158000000Y-188000000D01*
X158324000Y-147605413D02*
X171218587Y-160500000D01*
X158324000Y-166945935D02*
X167939032Y-176560968D01*
X171500000Y-160500000D02*
X168522935Y-157522935D01*
X170878065Y-179500000D02*
X171500000Y-179500000D01*
X168522935Y-138522935D02*
X167433034Y-138522935D01*
X158000000Y-188000000D02*
X149500000Y-196500000D01*
X175325000Y-103500000D02*
X178495000Y-106670000D01*
X167939032Y-176560968D02*
X166802064Y-175424000D01*
X171500000Y-122500000D02*
X171500000Y-115367404D01*
X168522935Y-157522935D02*
X165101000Y-157522935D01*
X166802064Y-175424000D02*
X158574000Y-175424000D01*
X171500000Y-135868587D02*
X171500000Y-141500000D01*
X171500000Y-141500000D02*
X168522935Y-138522935D01*
X167939032Y-176560968D02*
X170878065Y-179500000D01*
%TO.N,mirror_sixth_mod*%
X159950000Y-177300000D02*
X165150000Y-182500000D01*
X165150000Y-182500000D02*
X174385000Y-182500000D01*
X174385000Y-182500000D02*
X176025000Y-180860000D01*
X176025000Y-180860000D02*
X176025000Y-178700000D01*
%TO.N,mirror_sixth_bottom*%
X159950000Y-158300000D02*
X164150000Y-162500000D01*
X164150000Y-162500000D02*
X175385000Y-162500000D01*
X175385000Y-162500000D02*
X176025000Y-161860000D01*
X176025000Y-161860000D02*
X176025000Y-159700000D01*
%TO.N,mirror_sixth_home*%
X176025000Y-142860000D02*
X176025000Y-140700000D01*
X164650000Y-144000000D02*
X174885000Y-144000000D01*
X174885000Y-144000000D02*
X176025000Y-142860000D01*
X159950000Y-139300000D02*
X164650000Y-144000000D01*
%TO.N,mirror_sixth_top*%
X164650000Y-125000000D02*
X174885000Y-125000000D01*
X176025000Y-123860000D02*
X176025000Y-121700000D01*
X159950000Y-120300000D02*
X164650000Y-125000000D01*
X174885000Y-125000000D02*
X176025000Y-123860000D01*
%TO.N,mirror_sixth_num*%
X176025000Y-102360000D02*
X176025000Y-100200000D01*
X159950000Y-101300000D02*
X162250000Y-99000000D01*
X166718587Y-99000000D02*
X168218587Y-100500000D01*
X174165000Y-100500000D02*
X176025000Y-102360000D01*
X168218587Y-100500000D02*
X174165000Y-100500000D01*
X162250000Y-99000000D02*
X166718587Y-99000000D01*
%TO.N,mirror_t1_thumb*%
X173304770Y-198310424D02*
X172566006Y-197571660D01*
X156981619Y-201754064D02*
X158094726Y-202867171D01*
X170038995Y-202867171D02*
X173304770Y-199601396D01*
X158094726Y-202867171D02*
X170038995Y-202867171D01*
X173304770Y-199601396D02*
X173304770Y-198310424D01*
%TO.N,mirror_t2_thumb*%
X139777298Y-210037863D02*
X140890405Y-211150970D01*
X156100448Y-206594223D02*
X155361684Y-205855459D01*
X152834673Y-211150970D02*
X156100448Y-207885195D01*
X156100448Y-207885195D02*
X156100448Y-206594223D01*
X140890405Y-211150970D02*
X152834673Y-211150970D01*
%TO.N,P2*%
X214025000Y-166400000D02*
X214025000Y-164240000D01*
X176025000Y-175400000D02*
X176025000Y-173240000D01*
X195025000Y-172400000D02*
X195025000Y-170240000D01*
X271025000Y-178400000D02*
X271025000Y-176240000D01*
X252025000Y-178400000D02*
X252025000Y-176240000D01*
X233025000Y-171400000D02*
X233025000Y-169240000D01*
%TO.N,P3*%
X271025000Y-159400000D02*
X271025000Y-157240000D01*
X195025000Y-145740000D02*
X195025000Y-147900000D01*
X233025000Y-152400000D02*
X233025000Y-150240000D01*
X214025000Y-147400000D02*
X214025000Y-145240000D01*
X176025000Y-154240000D02*
X176025000Y-156400000D01*
X252025000Y-153900000D02*
X252025000Y-151740000D01*
%TO.N,P4*%
X233025000Y-133400000D02*
X233025000Y-131240000D01*
X214025000Y-120740000D02*
X214025000Y-122900000D01*
X271025000Y-138240000D02*
X271025000Y-140400000D01*
X252025000Y-140400000D02*
X252025000Y-138240000D01*
X176025000Y-137400000D02*
X176025000Y-135240000D01*
X195025000Y-134400000D02*
X195025000Y-132240000D01*
%TO.N,P5*%
X252025000Y-121400000D02*
X252025000Y-119240000D01*
X271025000Y-121400000D02*
X271025000Y-119240000D01*
X214025000Y-109400000D02*
X214025000Y-107240000D01*
X195025000Y-115400000D02*
X195025000Y-113240000D01*
X176025000Y-118400000D02*
X176025000Y-116240000D01*
X233025000Y-114400000D02*
X233025000Y-112240000D01*
%TO.N,P6*%
X252025000Y-96900000D02*
X252025000Y-94740000D01*
X214025000Y-90400000D02*
X214025000Y-88240000D01*
X271025000Y-102400000D02*
X271025000Y-100240000D01*
X181681900Y-93323100D02*
X183575000Y-91430000D01*
X177441900Y-93323100D02*
X181681900Y-93323100D01*
X186265000Y-88740000D02*
X195025000Y-88740000D01*
X195025000Y-90900000D02*
X195025000Y-88740000D01*
X176025000Y-94740000D02*
X177441900Y-93323100D01*
X233025000Y-95400000D02*
X233025000Y-93240000D01*
X176025000Y-96900000D02*
X176025000Y-94740000D01*
X183575000Y-91430000D02*
X186265000Y-88740000D01*
%TO.N,P7*%
X154233018Y-201463501D02*
X153494254Y-200724737D01*
X170698576Y-193731910D02*
X171437340Y-194470674D01*
X154233018Y-202754473D02*
X154233018Y-201463501D01*
X170698576Y-192440938D02*
X170698576Y-193731910D01*
%TO.N,GND*%
X167000000Y-94500000D02*
X168335000Y-93165000D01*
X165795000Y-106670000D02*
X165795000Y-100205000D01*
X165795000Y-106670000D02*
X168175000Y-109050000D01*
X168335000Y-93165000D02*
X168335000Y-91430000D01*
X171325000Y-109050000D02*
X171325000Y-113650000D01*
X168175000Y-109050000D02*
X170225000Y-109050000D01*
%TD*%
M02*
