%TF.GenerationSoftware,KiCad,Pcbnew,9.0.6*%
%TF.CreationDate,2025-11-12T17:31:49+01:00*%
%TF.ProjectId,right_finished,72696768-745f-4666-996e-69736865642e,1*%
%TF.SameCoordinates,Original*%
%TF.FileFunction,Profile,NP*%
%FSLAX46Y46*%
G04 Gerber Fmt 4.6, Leading zero omitted, Abs format (unit mm)*
G04 Created by KiCad (PCBNEW 9.0.6) date 2025-11-12 17:31:49*
%MOMM*%
%LPD*%
G01*
G04 APERTURE LIST*
%TA.AperFunction,Profile*%
%ADD10C,0.150000*%
%TD*%
G04 APERTURE END LIST*
D10*
X217903446Y-81442232D02*
X217546554Y-79657768D01*
X179639213Y-181635786D02*
G75*
G02*
X181053427Y-181050018I1414187J-1414214D01*
G01*
X160561351Y-209138719D02*
G75*
G02*
X159499305Y-210042887I-1746151J975219D01*
G01*
X274225000Y-185050000D02*
X274225000Y-92050000D01*
X238959591Y-90050000D02*
G75*
G02*
X236979701Y-88332842I9J2000000D01*
G01*
X147430465Y-192087804D02*
X134222233Y-196895208D01*
X141404657Y-216628752D02*
G75*
G02*
X138841230Y-215433408I-684057J1879352D01*
G01*
X155940093Y-186968615D02*
X150246389Y-189040954D01*
X194946466Y-79721202D02*
X194503534Y-82378798D01*
X215864608Y-180050000D02*
X230490409Y-180050000D01*
X133026888Y-199458633D02*
X138841231Y-215433408D01*
X215864608Y-180050001D02*
G75*
G02*
X213903438Y-178442234I-8J2000001D01*
G01*
X192530746Y-84050000D02*
X177666063Y-84050000D01*
X234490409Y-83050000D02*
X219864608Y-83050000D01*
X219864608Y-83050001D02*
G75*
G02*
X217903438Y-81442234I-8J2000001D01*
G01*
X198946466Y-176721202D02*
G75*
G02*
X200919254Y-175049954I1972834J-328798D01*
G01*
X215585392Y-78050000D02*
X196919254Y-78050000D01*
X176718790Y-199625166D02*
X173094429Y-189667315D01*
X149184328Y-189945079D02*
G75*
G02*
X150246388Y-189040951I1746072J-975221D01*
G01*
X194503534Y-82378798D02*
G75*
G02*
X192530746Y-84050046I-1972834J328798D01*
G01*
X161253152Y-207900120D02*
G75*
G02*
X162315208Y-206995979I1746148J-975280D01*
G01*
X234959591Y-187050000D02*
G75*
G02*
X232979701Y-185332842I9J2000000D01*
G01*
X272225000Y-90050000D02*
G75*
G02*
X274225000Y-92050000I0J-2000000D01*
G01*
X176718790Y-199625166D02*
G75*
G02*
X175523443Y-202188587I-1879390J-684034D01*
G01*
X157225000Y-89050000D02*
G75*
G02*
X159225000Y-87050000I2000000J0D01*
G01*
X177239457Y-184035543D02*
X179639214Y-181635786D01*
X181053427Y-181050000D02*
X196530746Y-181050000D01*
X157255105Y-185027674D02*
G75*
G02*
X155940095Y-186968620I-1999105J-61526D01*
G01*
X162315213Y-206995994D02*
X175523445Y-202188591D01*
X230490409Y-180050000D02*
G75*
G02*
X232470299Y-181767158I-9J-2000000D01*
G01*
X194946466Y-79721202D02*
G75*
G02*
X196919254Y-78049954I1972834J-328798D01*
G01*
X232470308Y-181767157D02*
X232979692Y-185332843D01*
X148492526Y-191183679D02*
G75*
G02*
X147430467Y-192087809I-1746126J975279D01*
G01*
X157225947Y-184080771D02*
X157255105Y-185027675D01*
X157225947Y-184080770D02*
G75*
G02*
X157225000Y-184019215I1993653J61470D01*
G01*
X211585392Y-175049999D02*
G75*
G02*
X213546562Y-176657766I8J-2000001D01*
G01*
X236979692Y-88332843D02*
X236470308Y-84767157D01*
X234490409Y-83050000D02*
G75*
G02*
X236470299Y-84767158I-9J-2000000D01*
G01*
X274225000Y-185050000D02*
G75*
G02*
X272225000Y-187050000I-2000000J0D01*
G01*
X200919254Y-175050000D02*
X211585392Y-175050000D01*
X213546554Y-176657768D02*
X213903446Y-178442232D01*
X160561351Y-209138719D02*
X161253152Y-207900120D01*
X215585392Y-78049999D02*
G75*
G02*
X217546562Y-79657766I8J-2000001D01*
G01*
X133026888Y-199458634D02*
G75*
G02*
X134222231Y-196895201I1879412J684034D01*
G01*
X198503534Y-179378798D02*
X198946466Y-176721202D01*
X234959591Y-187050000D02*
X272225000Y-187050000D01*
X175224000Y-87050000D02*
X159225000Y-87050000D01*
X157225000Y-89050000D02*
X157225000Y-184019215D01*
X141404656Y-216628753D02*
X159499290Y-210042844D01*
X149184328Y-189945080D02*
X148492526Y-191183679D01*
X175768886Y-85416975D02*
X175224000Y-87050000D01*
X173588812Y-187540441D02*
X177210245Y-184064163D01*
X175768886Y-85416975D02*
G75*
G02*
X177666063Y-84049965I1897214J-633025D01*
G01*
X177239457Y-184035543D02*
G75*
G02*
X177210245Y-184064163I-1412457J1412443D01*
G01*
X198503534Y-179378798D02*
G75*
G02*
X196530746Y-181050046I-1972834J328798D01*
G01*
X272225000Y-90050000D02*
X238959591Y-90050000D01*
X173094429Y-189667315D02*
G75*
G02*
X173588833Y-187540463I1879371J684015D01*
G01*
M02*
