%TF.GenerationSoftware,KiCad,Pcbnew,9.0.6*%
%TF.CreationDate,2025-11-12T17:31:49+01:00*%
%TF.ProjectId,right_finished,72696768-745f-4666-996e-69736865642e,1*%
%TF.SameCoordinates,Original*%
%TF.FileFunction,Paste,Bot*%
%TF.FilePolarity,Positive*%
%FSLAX46Y46*%
G04 Gerber Fmt 4.6, Leading zero omitted, Abs format (unit mm)*
G04 Created by KiCad (PCBNEW 9.0.6) date 2025-11-12 17:31:49*
%MOMM*%
%LPD*%
G01*
G04 APERTURE LIST*
G04 Aperture macros list*
%AMRotRect*
0 Rectangle, with rotation*
0 The origin of the aperture is its center*
0 $1 length*
0 $2 width*
0 $3 Rotation angle, in degrees counterclockwise*
0 Add horizontal line*
21,1,$1,$2,0,0,$3*%
G04 Aperture macros list end*
%ADD10R,1.200000X0.900000*%
%ADD11R,2.600000X2.600000*%
%ADD12RotRect,2.600000X2.600000X200.000000*%
%ADD13RotRect,0.900000X1.200000X290.000000*%
G04 APERTURE END LIST*
D10*
%TO.C,D11*%
X233025000Y-133400000D03*
X233025000Y-136700000D03*
%TD*%
%TO.C,D29*%
X195025000Y-90900000D03*
X195025000Y-94200000D03*
%TD*%
D11*
%TO.C,S27*%
X171500000Y-160500000D03*
X159950000Y-158300000D03*
%TD*%
D10*
%TO.C,D25*%
X252025000Y-153900000D03*
X252025000Y-157200000D03*
%TD*%
%TO.C,D7*%
X252025000Y-140400000D03*
X252025000Y-143700000D03*
%TD*%
D11*
%TO.C,S10*%
X247500000Y-106500000D03*
X235950000Y-104300000D03*
%TD*%
D10*
%TO.C,D14*%
X214025000Y-166400000D03*
X214025000Y-169700000D03*
%TD*%
%TO.C,D6*%
X252025000Y-178400000D03*
X252025000Y-181700000D03*
%TD*%
D11*
%TO.C,S21*%
X190500000Y-176500000D03*
X178950000Y-174300000D03*
%TD*%
D10*
%TO.C,D28*%
X195025000Y-147900000D03*
X195025000Y-151200000D03*
%TD*%
D11*
%TO.C,S28*%
X171500000Y-141500000D03*
X159950000Y-139300000D03*
%TD*%
D10*
%TO.C,D21*%
X176025000Y-175400000D03*
X176025000Y-178700000D03*
%TD*%
D11*
%TO.C,S13*%
X228500000Y-137500000D03*
X216950000Y-135300000D03*
%TD*%
%TO.C,S5*%
X266500000Y-106500000D03*
X254950000Y-104300000D03*
%TD*%
%TO.C,S19*%
X209500000Y-113500000D03*
X197950000Y-111300000D03*
%TD*%
%TO.C,S17*%
X209500000Y-151500000D03*
X197950000Y-149300000D03*
%TD*%
%TO.C,S6*%
X247500000Y-182500000D03*
X235950000Y-180300000D03*
%TD*%
D10*
%TO.C,D1*%
X271025000Y-178400000D03*
X271025000Y-181700000D03*
%TD*%
D11*
%TO.C,S26*%
X171500000Y-179500000D03*
X159950000Y-177300000D03*
%TD*%
D10*
%TO.C,D17*%
X214025000Y-90400000D03*
X214025000Y-93700000D03*
%TD*%
D11*
%TO.C,S8*%
X247500000Y-144500000D03*
X235950000Y-142300000D03*
%TD*%
%TO.C,S18*%
X209500000Y-132500000D03*
X197950000Y-130300000D03*
%TD*%
%TO.C,S22*%
X190500000Y-157500000D03*
X178950000Y-155300000D03*
%TD*%
D10*
%TO.C,D22*%
X176025000Y-156400000D03*
X176025000Y-159700000D03*
%TD*%
D11*
%TO.C,S1*%
X266500000Y-182500000D03*
X254950000Y-180300000D03*
%TD*%
%TO.C,S4*%
X266500000Y-125500000D03*
X254950000Y-123300000D03*
%TD*%
D12*
%TO.C,S31*%
X168587513Y-199871055D03*
X156981619Y-201754064D03*
%TD*%
D11*
%TO.C,S14*%
X228500000Y-118500000D03*
X216950000Y-116300000D03*
%TD*%
D10*
%TO.C,D23*%
X176025000Y-137400000D03*
X176025000Y-140700000D03*
%TD*%
%TO.C,D16*%
X214025000Y-109400000D03*
X214025000Y-112700000D03*
%TD*%
D13*
%TO.C,D31*%
X171437340Y-194470674D03*
X172566006Y-197571660D03*
%TD*%
D10*
%TO.C,D18*%
X195025000Y-172400000D03*
X195025000Y-175700000D03*
%TD*%
%TO.C,D3*%
X271025000Y-140400000D03*
X271025000Y-143700000D03*
%TD*%
D11*
%TO.C,S7*%
X247500000Y-163500000D03*
X235950000Y-161300000D03*
%TD*%
%TO.C,S15*%
X228500000Y-99500000D03*
X216950000Y-97300000D03*
%TD*%
%TO.C,S20*%
X209500000Y-94500000D03*
X197950000Y-92300000D03*
%TD*%
%TO.C,S3*%
X266500000Y-144500000D03*
X254950000Y-142300000D03*
%TD*%
D10*
%TO.C,D20*%
X195025000Y-115400000D03*
X195025000Y-118700000D03*
%TD*%
%TO.C,D19*%
X195025000Y-134400000D03*
X195025000Y-137700000D03*
%TD*%
%TO.C,D12*%
X233025000Y-114400000D03*
X233025000Y-117700000D03*
%TD*%
D11*
%TO.C,S2*%
X266500000Y-163500000D03*
X254950000Y-161300000D03*
%TD*%
D10*
%TO.C,D9*%
X233025000Y-171400000D03*
X233025000Y-174700000D03*
%TD*%
%TO.C,D27*%
X214025000Y-122900000D03*
X214025000Y-126200000D03*
%TD*%
%TO.C,D10*%
X233025000Y-152400000D03*
X233025000Y-155700000D03*
%TD*%
D11*
%TO.C,S30*%
X171500000Y-103500000D03*
X159950000Y-101300000D03*
%TD*%
%TO.C,S29*%
X171500000Y-122500000D03*
X159950000Y-120300000D03*
%TD*%
D10*
%TO.C,D13*%
X233025000Y-95400000D03*
X233025000Y-98700000D03*
%TD*%
D11*
%TO.C,S16*%
X209500000Y-170500000D03*
X197950000Y-168300000D03*
%TD*%
%TO.C,S24*%
X190500000Y-119500000D03*
X178950000Y-117300000D03*
%TD*%
D10*
%TO.C,D4*%
X271025000Y-121400000D03*
X271025000Y-124700000D03*
%TD*%
%TO.C,D2*%
X271025000Y-159400000D03*
X271025000Y-162700000D03*
%TD*%
D11*
%TO.C,S25*%
X190500000Y-100500000D03*
X178950000Y-98300000D03*
%TD*%
%TO.C,S23*%
X190500000Y-138500000D03*
X178950000Y-136300000D03*
%TD*%
%TO.C,S9*%
X247500000Y-125500000D03*
X235950000Y-123300000D03*
%TD*%
%TO.C,S12*%
X228500000Y-156500000D03*
X216950000Y-154300000D03*
%TD*%
D10*
%TO.C,D8*%
X252025000Y-121400000D03*
X252025000Y-124700000D03*
%TD*%
%TO.C,D5*%
X271025000Y-102400000D03*
X271025000Y-105700000D03*
%TD*%
D12*
%TO.C,S32*%
X151383192Y-208154854D03*
X139777298Y-210037863D03*
%TD*%
D10*
%TO.C,D26*%
X252025000Y-96900000D03*
X252025000Y-100200000D03*
%TD*%
%TO.C,D24*%
X176025000Y-118400000D03*
X176025000Y-121700000D03*
%TD*%
D11*
%TO.C,S11*%
X228500000Y-175500000D03*
X216950000Y-173300000D03*
%TD*%
D13*
%TO.C,D32*%
X154233018Y-202754473D03*
X155361684Y-205855459D03*
%TD*%
D10*
%TO.C,D15*%
X214025000Y-147400000D03*
X214025000Y-150700000D03*
%TD*%
%TO.C,D30*%
X176025000Y-96900000D03*
X176025000Y-100200000D03*
%TD*%
M02*
