M48
; DRILL file {KiCad 9.0.6} date 2025-11-12T17:32:02+0100
; FORMAT={-:-/ absolute / metric / decimal}
; #@! TF.CreationDate,2025-11-12T17:32:02+01:00
; #@! TF.GenerationSoftware,Kicad,Pcbnew,9.0.6
; #@! TF.FileFunction,Plated,1,2,PTH
FMAT,2
METRIC
; #@! TA.AperFunction,Plated,PTH,ViaDrill
T1C0.400
; #@! TA.AperFunction,Plated,PTH,ComponentDrill
T2C0.900
; #@! TA.AperFunction,Plated,PTH,ComponentDrill
T3C0.991
; #@! TA.AperFunction,Plated,PTH,ComponentDrill
T4C1.092
%
G90
G05
T1
X165.795Y-100.205
X167.0Y-94.5
X217.0Y-103.5
X261.5Y-103.5
T3
X153.494Y-200.725
X156.1Y-207.885
X170.699Y-192.441
X173.305Y-199.601
X176.025Y-94.74
X176.025Y-102.36
X176.025Y-116.24
X176.025Y-123.86
X176.025Y-135.24
X176.025Y-142.86
X176.025Y-154.24
X176.025Y-161.86
X176.025Y-173.24
X176.025Y-180.86
X195.025Y-88.74
X195.025Y-96.36
X195.025Y-113.24
X195.025Y-120.86
X195.025Y-132.24
X195.025Y-139.86
X195.025Y-145.74
X195.025Y-153.36
X195.025Y-170.24
X195.025Y-177.86
X214.025Y-88.24
X214.025Y-95.86
X214.025Y-107.24
X214.025Y-114.86
X214.025Y-120.74
X214.025Y-128.36
X214.025Y-145.24
X214.025Y-152.86
X214.025Y-164.24
X214.025Y-171.86
X233.025Y-93.24
X233.025Y-100.86
X233.025Y-112.24
X233.025Y-119.86
X233.025Y-131.24
X233.025Y-138.86
X233.025Y-150.24
X233.025Y-157.86
X233.025Y-169.24
X233.025Y-176.86
X252.025Y-94.74
X252.025Y-102.36
X252.025Y-119.24
X252.025Y-126.86
X252.025Y-138.24
X252.025Y-145.86
X252.025Y-151.74
X252.025Y-159.36
X252.025Y-176.24
X252.025Y-183.86
X271.025Y-100.24
X271.025Y-107.86
X271.025Y-119.24
X271.025Y-126.86
X271.025Y-138.24
X271.025Y-145.86
X271.025Y-157.24
X271.025Y-164.86
X271.025Y-176.24
X271.025Y-183.86
T4
X163.255Y-91.43
X163.255Y-106.67
X165.795Y-91.43
X165.795Y-106.67
X168.335Y-91.43
X168.335Y-106.67
X170.875Y-91.43
X170.875Y-106.67
X173.415Y-91.43
X173.415Y-106.67
X175.955Y-91.43
X175.955Y-106.67
X178.495Y-91.43
X178.495Y-106.67
X181.035Y-91.43
X181.035Y-106.67
X183.575Y-91.43
X183.575Y-106.67
X186.115Y-91.43
X186.115Y-106.67
X188.655Y-91.43
X188.655Y-106.67
X191.195Y-91.43
X191.195Y-106.67
T2
X162.925Y-109.05G85X163.525Y-109.05
G05
X162.925Y-113.65G85X163.525Y-113.65
G05
X165.925Y-109.05G85X166.525Y-109.05
G05
X165.925Y-113.65G85X166.525Y-113.65
G05
X169.925Y-109.05G85X170.525Y-109.05
G05
X169.925Y-113.65G85X170.525Y-113.65
G05
X171.025Y-109.05G85X171.625Y-109.05
G05
X171.025Y-113.65G85X171.625Y-113.65
G05
M30
