%TF.GenerationSoftware,KiCad,Pcbnew,9.0.6*%
%TF.CreationDate,2025-11-12T17:31:49+01:00*%
%TF.ProjectId,right_finished,72696768-745f-4666-996e-69736865642e,1*%
%TF.SameCoordinates,Original*%
%TF.FileFunction,Legend,Bot*%
%TF.FilePolarity,Positive*%
%FSLAX46Y46*%
G04 Gerber Fmt 4.6, Leading zero omitted, Abs format (unit mm)*
G04 Created by KiCad (PCBNEW 9.0.6) date 2025-11-12 17:31:49*
%MOMM*%
%LPD*%
G01*
G04 APERTURE LIST*
%ADD10C,0.100000*%
%ADD11R,1.752600X1.752600*%
%ADD12C,1.752600*%
G04 APERTURE END LIST*
D10*
%TO.C,D11*%
X232625000Y-135300000D02*
X233025000Y-134700000D01*
X233025000Y-134300000D02*
X233025000Y-134700000D01*
X233025000Y-134700000D02*
X232475000Y-134700000D01*
X233025000Y-134700000D02*
X233425000Y-135300000D01*
X233025000Y-134700000D02*
X233575000Y-134700000D01*
X233025000Y-135300000D02*
X233025000Y-135800000D01*
X233425000Y-135300000D02*
X232625000Y-135300000D01*
%TO.C,D29*%
X194625000Y-92800000D02*
X195025000Y-92200000D01*
X195025000Y-91800000D02*
X195025000Y-92200000D01*
X195025000Y-92200000D02*
X194475000Y-92200000D01*
X195025000Y-92200000D02*
X195425000Y-92800000D01*
X195025000Y-92200000D02*
X195575000Y-92200000D01*
X195025000Y-92800000D02*
X195025000Y-93300000D01*
X195425000Y-92800000D02*
X194625000Y-92800000D01*
%TO.C,D25*%
X251625000Y-155800000D02*
X252025000Y-155200000D01*
X252025000Y-154800000D02*
X252025000Y-155200000D01*
X252025000Y-155200000D02*
X251475000Y-155200000D01*
X252025000Y-155200000D02*
X252425000Y-155800000D01*
X252025000Y-155200000D02*
X252575000Y-155200000D01*
X252025000Y-155800000D02*
X252025000Y-156300000D01*
X252425000Y-155800000D02*
X251625000Y-155800000D01*
%TO.C,D7*%
X251625000Y-142300000D02*
X252025000Y-141700000D01*
X252025000Y-141300000D02*
X252025000Y-141700000D01*
X252025000Y-141700000D02*
X251475000Y-141700000D01*
X252025000Y-141700000D02*
X252425000Y-142300000D01*
X252025000Y-141700000D02*
X252575000Y-141700000D01*
X252025000Y-142300000D02*
X252025000Y-142800000D01*
X252425000Y-142300000D02*
X251625000Y-142300000D01*
%TO.C,D14*%
X213625000Y-168300000D02*
X214025000Y-167700000D01*
X214025000Y-167300000D02*
X214025000Y-167700000D01*
X214025000Y-167700000D02*
X213475000Y-167700000D01*
X214025000Y-167700000D02*
X214425000Y-168300000D01*
X214025000Y-167700000D02*
X214575000Y-167700000D01*
X214025000Y-168300000D02*
X214025000Y-168800000D01*
X214425000Y-168300000D02*
X213625000Y-168300000D01*
%TO.C,D6*%
X251625000Y-180300000D02*
X252025000Y-179700000D01*
X252025000Y-179300000D02*
X252025000Y-179700000D01*
X252025000Y-179700000D02*
X251475000Y-179700000D01*
X252025000Y-179700000D02*
X252425000Y-180300000D01*
X252025000Y-179700000D02*
X252575000Y-179700000D01*
X252025000Y-180300000D02*
X252025000Y-180800000D01*
X252425000Y-180300000D02*
X251625000Y-180300000D01*
%TO.C,D28*%
X194625000Y-149800000D02*
X195025000Y-149200000D01*
X195025000Y-148800000D02*
X195025000Y-149200000D01*
X195025000Y-149200000D02*
X194475000Y-149200000D01*
X195025000Y-149200000D02*
X195425000Y-149800000D01*
X195025000Y-149200000D02*
X195575000Y-149200000D01*
X195025000Y-149800000D02*
X195025000Y-150300000D01*
X195425000Y-149800000D02*
X194625000Y-149800000D01*
%TO.C,D21*%
X175625000Y-177300000D02*
X176025000Y-176700000D01*
X176025000Y-176300000D02*
X176025000Y-176700000D01*
X176025000Y-176700000D02*
X175475000Y-176700000D01*
X176025000Y-176700000D02*
X176425000Y-177300000D01*
X176025000Y-176700000D02*
X176575000Y-176700000D01*
X176025000Y-177300000D02*
X176025000Y-177800000D01*
X176425000Y-177300000D02*
X175625000Y-177300000D01*
%TO.C,D1*%
X270625000Y-180300000D02*
X271025000Y-179700000D01*
X271025000Y-179300000D02*
X271025000Y-179700000D01*
X271025000Y-179700000D02*
X270475000Y-179700000D01*
X271025000Y-179700000D02*
X271425000Y-180300000D01*
X271025000Y-179700000D02*
X271575000Y-179700000D01*
X271025000Y-180300000D02*
X271025000Y-180800000D01*
X271425000Y-180300000D02*
X270625000Y-180300000D01*
%TO.C,D17*%
X213625000Y-92300000D02*
X214025000Y-91700000D01*
X214025000Y-91300000D02*
X214025000Y-91700000D01*
X214025000Y-91700000D02*
X213475000Y-91700000D01*
X214025000Y-91700000D02*
X214425000Y-92300000D01*
X214025000Y-91700000D02*
X214575000Y-91700000D01*
X214025000Y-92300000D02*
X214025000Y-92800000D01*
X214425000Y-92300000D02*
X213625000Y-92300000D01*
%TO.C,D22*%
X175625000Y-158300000D02*
X176025000Y-157700000D01*
X176025000Y-157300000D02*
X176025000Y-157700000D01*
X176025000Y-157700000D02*
X175475000Y-157700000D01*
X176025000Y-157700000D02*
X176425000Y-158300000D01*
X176025000Y-157700000D02*
X176575000Y-157700000D01*
X176025000Y-158300000D02*
X176025000Y-158800000D01*
X176425000Y-158300000D02*
X175625000Y-158300000D01*
%TO.C,D23*%
X175625000Y-139300000D02*
X176025000Y-138700000D01*
X176025000Y-138300000D02*
X176025000Y-138700000D01*
X176025000Y-138700000D02*
X175475000Y-138700000D01*
X176025000Y-138700000D02*
X176425000Y-139300000D01*
X176025000Y-138700000D02*
X176575000Y-138700000D01*
X176025000Y-139300000D02*
X176025000Y-139800000D01*
X176425000Y-139300000D02*
X175625000Y-139300000D01*
%TO.C,D16*%
X213625000Y-111300000D02*
X214025000Y-110700000D01*
X214025000Y-110300000D02*
X214025000Y-110700000D01*
X214025000Y-110700000D02*
X213475000Y-110700000D01*
X214025000Y-110700000D02*
X214425000Y-111300000D01*
X214025000Y-110700000D02*
X214575000Y-110700000D01*
X214025000Y-111300000D02*
X214025000Y-111800000D01*
X214425000Y-111300000D02*
X213625000Y-111300000D01*
%TO.C,D31*%
X171711301Y-196392898D02*
X171881966Y-195692275D01*
X171745158Y-195316398D02*
X171881966Y-195692275D01*
X171881966Y-195692275D02*
X171365135Y-195880386D01*
X171881966Y-195692275D02*
X172398797Y-195504164D01*
X171881966Y-195692275D02*
X172463055Y-196119282D01*
X172087178Y-196256090D02*
X172258188Y-196725936D01*
X172463055Y-196119282D02*
X171711301Y-196392898D01*
%TO.C,D18*%
X194625000Y-174300000D02*
X195025000Y-173700000D01*
X195025000Y-173300000D02*
X195025000Y-173700000D01*
X195025000Y-173700000D02*
X194475000Y-173700000D01*
X195025000Y-173700000D02*
X195425000Y-174300000D01*
X195025000Y-173700000D02*
X195575000Y-173700000D01*
X195025000Y-174300000D02*
X195025000Y-174800000D01*
X195425000Y-174300000D02*
X194625000Y-174300000D01*
%TO.C,D3*%
X270625000Y-142300000D02*
X271025000Y-141700000D01*
X271025000Y-141300000D02*
X271025000Y-141700000D01*
X271025000Y-141700000D02*
X270475000Y-141700000D01*
X271025000Y-141700000D02*
X271425000Y-142300000D01*
X271025000Y-141700000D02*
X271575000Y-141700000D01*
X271025000Y-142300000D02*
X271025000Y-142800000D01*
X271425000Y-142300000D02*
X270625000Y-142300000D01*
%TO.C,D20*%
X194625000Y-117300000D02*
X195025000Y-116700000D01*
X195025000Y-116300000D02*
X195025000Y-116700000D01*
X195025000Y-116700000D02*
X194475000Y-116700000D01*
X195025000Y-116700000D02*
X195425000Y-117300000D01*
X195025000Y-116700000D02*
X195575000Y-116700000D01*
X195025000Y-117300000D02*
X195025000Y-117800000D01*
X195425000Y-117300000D02*
X194625000Y-117300000D01*
%TO.C,D19*%
X194625000Y-136300000D02*
X195025000Y-135700000D01*
X195025000Y-135300000D02*
X195025000Y-135700000D01*
X195025000Y-135700000D02*
X194475000Y-135700000D01*
X195025000Y-135700000D02*
X195425000Y-136300000D01*
X195025000Y-135700000D02*
X195575000Y-135700000D01*
X195025000Y-136300000D02*
X195025000Y-136800000D01*
X195425000Y-136300000D02*
X194625000Y-136300000D01*
%TO.C,D12*%
X232625000Y-116300000D02*
X233025000Y-115700000D01*
X233025000Y-115300000D02*
X233025000Y-115700000D01*
X233025000Y-115700000D02*
X232475000Y-115700000D01*
X233025000Y-115700000D02*
X233425000Y-116300000D01*
X233025000Y-115700000D02*
X233575000Y-115700000D01*
X233025000Y-116300000D02*
X233025000Y-116800000D01*
X233425000Y-116300000D02*
X232625000Y-116300000D01*
%TO.C,D9*%
X232625000Y-173300000D02*
X233025000Y-172700000D01*
X233025000Y-172300000D02*
X233025000Y-172700000D01*
X233025000Y-172700000D02*
X232475000Y-172700000D01*
X233025000Y-172700000D02*
X233425000Y-173300000D01*
X233025000Y-172700000D02*
X233575000Y-172700000D01*
X233025000Y-173300000D02*
X233025000Y-173800000D01*
X233425000Y-173300000D02*
X232625000Y-173300000D01*
%TO.C,D27*%
X213625000Y-124800000D02*
X214025000Y-124200000D01*
X214025000Y-123800000D02*
X214025000Y-124200000D01*
X214025000Y-124200000D02*
X213475000Y-124200000D01*
X214025000Y-124200000D02*
X214425000Y-124800000D01*
X214025000Y-124200000D02*
X214575000Y-124200000D01*
X214025000Y-124800000D02*
X214025000Y-125300000D01*
X214425000Y-124800000D02*
X213625000Y-124800000D01*
%TO.C,D10*%
X232625000Y-154300000D02*
X233025000Y-153700000D01*
X233025000Y-153300000D02*
X233025000Y-153700000D01*
X233025000Y-153700000D02*
X232475000Y-153700000D01*
X233025000Y-153700000D02*
X233425000Y-154300000D01*
X233025000Y-153700000D02*
X233575000Y-153700000D01*
X233025000Y-154300000D02*
X233025000Y-154800000D01*
X233425000Y-154300000D02*
X232625000Y-154300000D01*
%TO.C,D13*%
X232625000Y-97300000D02*
X233025000Y-96700000D01*
X233025000Y-96300000D02*
X233025000Y-96700000D01*
X233025000Y-96700000D02*
X232475000Y-96700000D01*
X233025000Y-96700000D02*
X233425000Y-97300000D01*
X233025000Y-96700000D02*
X233575000Y-96700000D01*
X233025000Y-97300000D02*
X233025000Y-97800000D01*
X233425000Y-97300000D02*
X232625000Y-97300000D01*
%TO.C,D4*%
X270625000Y-123300000D02*
X271025000Y-122700000D01*
X271025000Y-122300000D02*
X271025000Y-122700000D01*
X271025000Y-122700000D02*
X270475000Y-122700000D01*
X271025000Y-122700000D02*
X271425000Y-123300000D01*
X271025000Y-122700000D02*
X271575000Y-122700000D01*
X271025000Y-123300000D02*
X271025000Y-123800000D01*
X271425000Y-123300000D02*
X270625000Y-123300000D01*
%TO.C,D2*%
X270625000Y-161300000D02*
X271025000Y-160700000D01*
X271025000Y-160300000D02*
X271025000Y-160700000D01*
X271025000Y-160700000D02*
X270475000Y-160700000D01*
X271025000Y-160700000D02*
X271425000Y-161300000D01*
X271025000Y-160700000D02*
X271575000Y-160700000D01*
X271025000Y-161300000D02*
X271025000Y-161800000D01*
X271425000Y-161300000D02*
X270625000Y-161300000D01*
%TO.C,D8*%
X251625000Y-123300000D02*
X252025000Y-122700000D01*
X252025000Y-122300000D02*
X252025000Y-122700000D01*
X252025000Y-122700000D02*
X251475000Y-122700000D01*
X252025000Y-122700000D02*
X252425000Y-123300000D01*
X252025000Y-122700000D02*
X252575000Y-122700000D01*
X252025000Y-123300000D02*
X252025000Y-123800000D01*
X252425000Y-123300000D02*
X251625000Y-123300000D01*
%TO.C,D5*%
X270625000Y-104300000D02*
X271025000Y-103700000D01*
X271025000Y-103300000D02*
X271025000Y-103700000D01*
X271025000Y-103700000D02*
X270475000Y-103700000D01*
X271025000Y-103700000D02*
X271425000Y-104300000D01*
X271025000Y-103700000D02*
X271575000Y-103700000D01*
X271025000Y-104300000D02*
X271025000Y-104800000D01*
X271425000Y-104300000D02*
X270625000Y-104300000D01*
%TO.C,D26*%
X251625000Y-98800000D02*
X252025000Y-98200000D01*
X252025000Y-97800000D02*
X252025000Y-98200000D01*
X252025000Y-98200000D02*
X251475000Y-98200000D01*
X252025000Y-98200000D02*
X252425000Y-98800000D01*
X252025000Y-98200000D02*
X252575000Y-98200000D01*
X252025000Y-98800000D02*
X252025000Y-99300000D01*
X252425000Y-98800000D02*
X251625000Y-98800000D01*
%TO.C,D24*%
X175625000Y-120300000D02*
X176025000Y-119700000D01*
X176025000Y-119300000D02*
X176025000Y-119700000D01*
X176025000Y-119700000D02*
X175475000Y-119700000D01*
X176025000Y-119700000D02*
X176425000Y-120300000D01*
X176025000Y-119700000D02*
X176575000Y-119700000D01*
X176025000Y-120300000D02*
X176025000Y-120800000D01*
X176425000Y-120300000D02*
X175625000Y-120300000D01*
%TO.C,D32*%
X154506979Y-204676697D02*
X154677644Y-203976074D01*
X154540836Y-203600197D02*
X154677644Y-203976074D01*
X154677644Y-203976074D02*
X154160813Y-204164185D01*
X154677644Y-203976074D02*
X155194475Y-203787963D01*
X154677644Y-203976074D02*
X155258733Y-204403081D01*
X154882856Y-204539889D02*
X155053866Y-205009735D01*
X155258733Y-204403081D02*
X154506979Y-204676697D01*
%TO.C,D15*%
X213625000Y-149300000D02*
X214025000Y-148700000D01*
X214025000Y-148300000D02*
X214025000Y-148700000D01*
X214025000Y-148700000D02*
X213475000Y-148700000D01*
X214025000Y-148700000D02*
X214425000Y-149300000D01*
X214025000Y-148700000D02*
X214575000Y-148700000D01*
X214025000Y-149300000D02*
X214025000Y-149800000D01*
X214425000Y-149300000D02*
X213625000Y-149300000D01*
%TO.C,D30*%
X175625000Y-98800000D02*
X176025000Y-98200000D01*
X176025000Y-97800000D02*
X176025000Y-98200000D01*
X176025000Y-98200000D02*
X175475000Y-98200000D01*
X176025000Y-98200000D02*
X176425000Y-98800000D01*
X176025000Y-98200000D02*
X176575000Y-98200000D01*
X176025000Y-98800000D02*
X176025000Y-99300000D01*
X176425000Y-98800000D02*
X175625000Y-98800000D01*
%TD*%
D11*
%TO.C,MCU1*%
X163255000Y-106670000D03*
D12*
X165795000Y-106670000D03*
X168335000Y-106670000D03*
X170875000Y-106670000D03*
X173415000Y-106670000D03*
X175955000Y-106670000D03*
X178495000Y-106670000D03*
X181035000Y-106670000D03*
X183575000Y-106670000D03*
X186115000Y-106670000D03*
X188655000Y-106670000D03*
X191195000Y-106670000D03*
X163255000Y-91430000D03*
X165795000Y-91430000D03*
X168335000Y-91430000D03*
X170875000Y-91430000D03*
X173415000Y-91430000D03*
X175955000Y-91430000D03*
X178495000Y-91430000D03*
X181035000Y-91430000D03*
X183575000Y-91430000D03*
X186115000Y-91430000D03*
X188655000Y-91430000D03*
X191195000Y-91430000D03*
%TD*%
M02*
