0
SECTION
2
HEADER
9
$INSUNITS
70
4
0
ENDSEC
0
SECTION
2
TABLES
0
TABLE
2
LTYPE
0
LTYPE
72
65
70
64
2
CONTINUOUS
3
______
73
0
40
0
0
ENDTAB
0
TABLE
2
LAYER
0
ENDTAB
0
ENDSEC
0
SECTION
2
ENTITIES
0
LINE
8
0
10
279.5
20
-11
11
279.5
21
87
0
LINE
8
0
10
277.5
20
89
11
244.2345908
21
89
0
LINE
8
0
10
242.2546918
20
90.7171572
11
241.7453082
21
94.2828428
0
LINE
8
0
10
239.7654092
20
96
11
225.1396079
21
96
0
LINE
8
0
10
223.1784464
20
97.6077678
11
222.8215536
21
99.3922322
0
LINE
8
0
10
220.8603921
20
101
11
197.1942541
21
101
0
LINE
8
0
10
195.2214663
20
99.328798
11
194.7785337
21
96.671202
0
LINE
8
0
10
192.8057459
20
95
11
177.7915027
21
95
0
LINE
8
0
10
175.968627
20
93.8228756
11
175.6771244
21
93.1771244
0
LINE
8
0
10
173.8542487
20
92
11
159.5
21
92
0
LINE
8
0
10
157.5
20
90
11
157.5
21
-4.8179295
0
LINE
8
0
10
157.4671227
20
-5.1790779
11
157.0771701
21
-7.303093
0
LINE
8
0
10
155.7940876
20
-8.8213299
11
149.8171067
21
-10.996773
0
LINE
8
0
10
148.7550459
20
-11.9008986
11
148.0632442
21
-13.1394975
0
LINE
8
0
10
147.0011834
20
-14.0436231
11
133.7929516
21
-18.8510263
0
LINE
8
0
10
132.5976066
20
-21.4144517
11
140.1220497
21
-42.0876894
0
LINE
8
0
10
142.6854751
20
-43.2830344
11
165.4785718
21
-34.9870257
0
LINE
8
0
10
166.5406326
20
-34.0829001
11
167.2324343
21
-32.8443012
0
LINE
8
0
10
168.2944951
20
-31.9401756
11
181.5027269
21
-27.1327724
0
LINE
8
0
10
182.698072
20
-24.569347
11
179.0965989
21
-14.674381
0
LINE
8
0
10
179.6591879
20
-12.4850011
11
182.4497708
21
-10.043938
0
LINE
8
0
10
182.5471881
20
-9.9528119
11
184.9142136
21
-7.5857864
0
LINE
8
0
10
186.3284272
20
-7
11
201.8057459
21
-7
0
LINE
8
0
10
203.7785337
20
-5.328798
11
204.2214663
21
-2.671202
0
LINE
8
0
10
206.1942541
20
-1
11
211.8603921
21
-1
0
LINE
8
0
10
213.8215536
20
-2.6077678
11
214.1784464
21
-4.3922322
0
LINE
8
0
10
216.1396079
20
-6
11
230.7654092
21
-6
0
LINE
8
0
10
232.7453082
20
-7.7171572
11
233.2546918
21
-11.2828428
0
LINE
8
0
10
235.2345908
20
-13
11
277.5
21
-13
0
ARC
8
0
10
277.5
20
87
40
2
50
0
51
90
0
ARC
8
0
10
244.2345908
20
91
40
2
50
188.1301048
51
270
0
ARC
8
0
10
239.7654092
20
94
40
2
50
8.1301048
51
90
0
ARC
8
0
10
225.1396079
20
98
40
2
50
191.3099302
51
270
0
ARC
8
0
10
220.8603921
20
99
40
2
50
11.3099302
51
90
0
ARC
8
0
10
197.1942541
20
99
40
2
50
90
51
170.5376769
0
ARC
8
0
10
192.8057459
20
97
40
2
50
270
51
350.5376769
0
ARC
8
0
10
177.7915027
20
93
40
2
50
90
51
155.7048119
0
ARC
8
0
10
173.8542487
20
94
40
2
50
270
51
335.7048119
0
ARC
8
0
10
159.5
20
90
40
2
50
90
51
180
0
ARC
8
0
10
155.5
20
-4.8179295
40
2
50
349.5967933
51
0
0
ARC
8
0
10
155.1100474
20
-6.9419446
40
2
50
289.9999981
51
349.5967933
0
ARC
8
0
10
150.5011469
20
-12.8761583
40
2
50
109.9999981
51
150.8150861
0
ARC
8
0
10
146.3171432
20
-12.1642378
40
2
50
289.9999981
51
330.8150861
0
ARC
8
0
10
134.4769918
20
-20.7304115
40
2
50
109.9999981
51
199.9999981
0
ARC
8
0
10
142.0014349
20
-41.4036492
40
2
50
199.9999981
51
289.9999981
0
ARC
8
0
10
164.7945316
20
-33.1076404
40
2
50
289.9999981
51
330.8150861
0
ARC
8
0
10
168.9785353
20
-33.8195609
40
2
50
109.9999981
51
150.8150861
0
ARC
8
0
10
180.8186867
20
-25.2533872
40
2
50
289.9999981
51
19.9999981
0
ARC
8
0
10
180.9759842
20
-13.9903408
40
2
50
131.1778198
51
199.9999981
0
ARC
8
0
10
181.1329745
20
-8.5385983
40
2
50
311.1778198
51
315
0
ARC
8
0
10
186.3284272
20
-9
40
2
50
90
51
135
0
ARC
8
0
10
201.8057459
20
-5
40
2
50
270
51
350.5376769
0
ARC
8
0
10
206.1942541
20
-3
40
2
50
90
51
170.5376769
0
ARC
8
0
10
211.8603921
20
-3
40
2
50
11.3099302
51
90
0
ARC
8
0
10
216.1396079
20
-4
40
2
50
191.3099302
51
270
0
ARC
8
0
10
230.7654092
20
-8
40
2
50
8.1301048
51
90
0
ARC
8
0
10
235.2345908
20
-11
40
2
50
188.1301048
51
270
0
ARC
8
0
10
277.5
20
-11
40
2
50
270
51
0
0
LINE
8
0
10
258.75
20
-7.25
11
273.25
21
-7.25
0
LINE
8
0
10
273.25
20
-7.25
11
273.25
21
7.25
0
LINE
8
0
10
273.25
20
7.25
11
258.75
21
7.25
0
LINE
8
0
10
258.75
20
7.25
11
258.75
21
-7.25
0
LINE
8
0
10
258.75
20
11.75
11
273.25
21
11.75
0
LINE
8
0
10
273.25
20
11.75
11
273.25
21
26.25
0
LINE
8
0
10
273.25
20
26.25
11
258.75
21
26.25
0
LINE
8
0
10
258.75
20
26.25
11
258.75
21
11.75
0
LINE
8
0
10
258.75
20
30.75
11
273.25
21
30.75
0
LINE
8
0
10
273.25
20
30.75
11
273.25
21
45.25
0
LINE
8
0
10
273.25
20
45.25
11
258.75
21
45.25
0
LINE
8
0
10
258.75
20
45.25
11
258.75
21
30.75
0
LINE
8
0
10
258.75
20
49.75
11
273.25
21
49.75
0
LINE
8
0
10
273.25
20
49.75
11
273.25
21
64.25
0
LINE
8
0
10
273.25
20
64.25
11
258.75
21
64.25
0
LINE
8
0
10
258.75
20
64.25
11
258.75
21
49.75
0
LINE
8
0
10
258.75
20
68.75
11
273.25
21
68.75
0
LINE
8
0
10
273.25
20
68.75
11
273.25
21
83.25
0
LINE
8
0
10
273.25
20
83.25
11
258.75
21
83.25
0
LINE
8
0
10
258.75
20
83.25
11
258.75
21
68.75
0
LINE
8
0
10
239.75
20
-7.25
11
254.25
21
-7.25
0
LINE
8
0
10
254.25
20
-7.25
11
254.25
21
7.25
0
LINE
8
0
10
254.25
20
7.25
11
239.75
21
7.25
0
LINE
8
0
10
239.75
20
7.25
11
239.75
21
-7.25
0
LINE
8
0
10
239.75
20
11.75
11
254.25
21
11.75
0
LINE
8
0
10
254.25
20
11.75
11
254.25
21
26.25
0
LINE
8
0
10
254.25
20
26.25
11
239.75
21
26.25
0
LINE
8
0
10
239.75
20
26.25
11
239.75
21
11.75
0
LINE
8
0
10
239.75
20
30.75
11
254.25
21
30.75
0
LINE
8
0
10
254.25
20
30.75
11
254.25
21
45.25
0
LINE
8
0
10
254.25
20
45.25
11
239.75
21
45.25
0
LINE
8
0
10
239.75
20
45.25
11
239.75
21
30.75
0
LINE
8
0
10
239.75
20
49.75
11
254.25
21
49.75
0
LINE
8
0
10
254.25
20
49.75
11
254.25
21
64.25
0
LINE
8
0
10
254.25
20
64.25
11
239.75
21
64.25
0
LINE
8
0
10
239.75
20
64.25
11
239.75
21
49.75
0
LINE
8
0
10
239.75
20
68.75
11
254.25
21
68.75
0
LINE
8
0
10
254.25
20
68.75
11
254.25
21
83.25
0
LINE
8
0
10
254.25
20
83.25
11
239.75
21
83.25
0
LINE
8
0
10
239.75
20
83.25
11
239.75
21
68.75
0
LINE
8
0
10
220.75
20
-0.25
11
235.25
21
-0.25
0
LINE
8
0
10
235.25
20
-0.25
11
235.25
21
14.25
0
LINE
8
0
10
235.25
20
14.25
11
220.75
21
14.25
0
LINE
8
0
10
220.75
20
14.25
11
220.75
21
-0.25
0
LINE
8
0
10
220.75
20
18.75
11
235.25
21
18.75
0
LINE
8
0
10
235.25
20
18.75
11
235.25
21
33.25
0
LINE
8
0
10
235.25
20
33.25
11
220.75
21
33.25
0
LINE
8
0
10
220.75
20
33.25
11
220.75
21
18.75
0
LINE
8
0
10
220.75
20
37.75
11
235.25
21
37.75
0
LINE
8
0
10
235.25
20
37.75
11
235.25
21
52.25
0
LINE
8
0
10
235.25
20
52.25
11
220.75
21
52.25
0
LINE
8
0
10
220.75
20
52.25
11
220.75
21
37.75
0
LINE
8
0
10
220.75
20
56.75
11
235.25
21
56.75
0
LINE
8
0
10
235.25
20
56.75
11
235.25
21
71.25
0
LINE
8
0
10
235.25
20
71.25
11
220.75
21
71.25
0
LINE
8
0
10
220.75
20
71.25
11
220.75
21
56.75
0
LINE
8
0
10
220.75
20
75.75
11
235.25
21
75.75
0
LINE
8
0
10
235.25
20
75.75
11
235.25
21
90.25
0
LINE
8
0
10
235.25
20
90.25
11
220.75
21
90.25
0
LINE
8
0
10
220.75
20
90.25
11
220.75
21
75.75
0
LINE
8
0
10
201.75
20
4.75
11
216.25
21
4.75
0
LINE
8
0
10
216.25
20
4.75
11
216.25
21
19.25
0
LINE
8
0
10
216.25
20
19.25
11
201.75
21
19.25
0
LINE
8
0
10
201.75
20
19.25
11
201.75
21
4.75
0
LINE
8
0
10
201.75
20
23.75
11
216.25
21
23.75
0
LINE
8
0
10
216.25
20
23.75
11
216.25
21
38.25
0
LINE
8
0
10
216.25
20
38.25
11
201.75
21
38.25
0
LINE
8
0
10
201.75
20
38.25
11
201.75
21
23.75
0
LINE
8
0
10
201.75
20
42.75
11
216.25
21
42.75
0
LINE
8
0
10
216.25
20
42.75
11
216.25
21
57.25
0
LINE
8
0
10
216.25
20
57.25
11
201.75
21
57.25
0
LINE
8
0
10
201.75
20
57.25
11
201.75
21
42.75
0
LINE
8
0
10
201.75
20
61.75
11
216.25
21
61.75
0
LINE
8
0
10
216.25
20
61.75
11
216.25
21
76.25
0
LINE
8
0
10
216.25
20
76.25
11
201.75
21
76.25
0
LINE
8
0
10
201.75
20
76.25
11
201.75
21
61.75
0
LINE
8
0
10
201.75
20
80.75
11
216.25
21
80.75
0
LINE
8
0
10
216.25
20
80.75
11
216.25
21
95.25
0
LINE
8
0
10
216.25
20
95.25
11
201.75
21
95.25
0
LINE
8
0
10
201.75
20
95.25
11
201.75
21
80.75
0
LINE
8
0
10
182.75
20
-1.25
11
197.25
21
-1.25
0
LINE
8
0
10
197.25
20
-1.25
11
197.25
21
13.25
0
LINE
8
0
10
197.25
20
13.25
11
182.75
21
13.25
0
LINE
8
0
10
182.75
20
13.25
11
182.75
21
-1.25
0
LINE
8
0
10
182.75
20
17.75
11
197.25
21
17.75
0
LINE
8
0
10
197.25
20
17.75
11
197.25
21
32.25
0
LINE
8
0
10
197.25
20
32.25
11
182.75
21
32.25
0
LINE
8
0
10
182.75
20
32.25
11
182.75
21
17.75
0
LINE
8
0
10
182.75
20
36.75
11
197.25
21
36.75
0
LINE
8
0
10
197.25
20
36.75
11
197.25
21
51.25
0
LINE
8
0
10
197.25
20
51.25
11
182.75
21
51.25
0
LINE
8
0
10
182.75
20
51.25
11
182.75
21
36.75
0
LINE
8
0
10
182.75
20
55.75
11
197.25
21
55.75
0
LINE
8
0
10
197.25
20
55.75
11
197.25
21
70.25
0
LINE
8
0
10
197.25
20
70.25
11
182.75
21
70.25
0
LINE
8
0
10
182.75
20
70.25
11
182.75
21
55.75
0
LINE
8
0
10
182.75
20
74.75
11
197.25
21
74.75
0
LINE
8
0
10
197.25
20
74.75
11
197.25
21
89.25
0
LINE
8
0
10
197.25
20
89.25
11
182.75
21
89.25
0
LINE
8
0
10
182.75
20
89.25
11
182.75
21
74.75
0
LINE
8
0
10
163.75
20
-4.25
11
178.25
21
-4.25
0
LINE
8
0
10
178.25
20
-4.25
11
178.25
21
10.25
0
LINE
8
0
10
178.25
20
10.25
11
163.75
21
10.25
0
LINE
8
0
10
163.75
20
10.25
11
163.75
21
-4.25
0
LINE
8
0
10
163.75
20
14.75
11
178.25
21
14.75
0
LINE
8
0
10
178.25
20
14.75
11
178.25
21
29.25
0
LINE
8
0
10
178.25
20
29.25
11
163.75
21
29.25
0
LINE
8
0
10
163.75
20
29.25
11
163.75
21
14.75
0
LINE
8
0
10
163.75
20
33.75
11
178.25
21
33.75
0
LINE
8
0
10
178.25
20
33.75
11
178.25
21
48.25
0
LINE
8
0
10
178.25
20
48.25
11
163.75
21
48.25
0
LINE
8
0
10
163.75
20
48.25
11
163.75
21
33.75
0
LINE
8
0
10
163.75
20
52.75
11
178.25
21
52.75
0
LINE
8
0
10
178.25
20
52.75
11
178.25
21
67.25
0
LINE
8
0
10
178.25
20
67.25
11
163.75
21
67.25
0
LINE
8
0
10
163.75
20
67.25
11
163.75
21
52.75
0
LINE
8
0
10
163.75
20
71.75
11
178.25
21
71.75
0
LINE
8
0
10
178.25
20
71.75
11
178.25
21
86.25
0
LINE
8
0
10
178.25
20
86.25
11
163.75
21
86.25
0
LINE
8
0
10
163.75
20
86.25
11
163.75
21
71.75
0
LINE
8
0
10
161.9168745
20
-28.1424175
11
175.5424175
21
-23.1831255
0
LINE
8
0
10
175.5424175
20
-23.1831255
11
170.5831255
21
-9.5575825
0
LINE
8
0
10
170.5831255
20
-9.5575825
11
156.9575825
21
-14.5168745
0
LINE
8
0
10
156.9575825
20
-14.5168745
11
161.9168745
21
-28.1424175
0
LINE
8
0
10
144.712553
20
-36.4262162
11
158.338096
21
-31.4669242
0
LINE
8
0
10
158.338096
20
-31.4669242
11
153.378804
21
-17.8413812
0
LINE
8
0
10
153.378804
20
-17.8413812
11
139.753261
21
-22.8006732
0
LINE
8
0
10
139.753261
20
-22.8006732
11
144.712553
21
-36.4262162
0
ENDSEC
0
EOF