0
SECTION
2
HEADER
9
$INSUNITS
70
4
0
ENDSEC
0
SECTION
2
TABLES
0
TABLE
2
LTYPE
0
LTYPE
72
65
70
64
2
CONTINUOUS
3
______
73
0
40
0
0
ENDTAB
0
TABLE
2
LAYER
0
ENDTAB
0
ENDSEC
0
SECTION
2
ENTITIES
0
LINE
8
0
10
277.5
20
-9
11
277.5
21
85
0
LINE
8
0
10
275.5
20
87
11
242.2345908
21
87
0
LINE
8
0
10
240.2546918
20
88.7171572
11
239.7453082
21
92.2828428
0
LINE
8
0
10
237.7654092
20
94
11
223.1396079
21
94
0
LINE
8
0
10
221.1784464
20
95.6077678
11
220.8215536
21
97.3922322
0
LINE
8
0
10
218.8603921
20
99
11
199.1942541
21
99
0
LINE
8
0
10
197.2214663
20
97.328798
11
196.7785337
21
94.671202
0
LINE
8
0
10
194.8057459
20
93
11
179.7915027
21
93
0
LINE
8
0
10
177.968627
20
91.8228756
11
177.6771244
21
91.1771244
0
LINE
8
0
10
175.8542487
20
90
11
161.5
21
90
0
LINE
8
0
10
159.5
20
88
11
159.5
21
-6.9747775
0
LINE
8
0
10
159.4993638
20
-7.0252177
11
159.4681563
21
-8.2622273
0
LINE
8
0
10
158.1528327
20
-10.0911723
11
152.3805322
21
-12.1921179
0
LINE
8
0
10
151.3184714
20
-13.0962435
11
150.6266697
21
-14.3348424
0
LINE
8
0
10
149.5646089
20
-15.238968
11
136.3563771
21
-20.0463712
0
LINE
8
0
10
135.161032
20
-22.6097966
11
141.3173946
21
-39.5242639
0
LINE
8
0
10
143.8808201
20
-40.7196089
11
162.9151463
21
-33.7916808
0
LINE
8
0
10
163.9772071
20
-32.8875552
11
164.6690088
21
-31.6489563
0
LINE
8
0
10
165.7310696
20
-30.7448307
11
178.9393014
21
-25.9374275
0
LINE
8
0
10
180.1346464
20
-23.3740021
11
176.5140936
21
-13.4266148
0
LINE
8
0
10
177.019768
20
-11.2889864
11
180.4794676
21
-8.0194041
0
LINE
8
0
10
180.5199704
20
-7.9800296
11
182.9142136
21
-5.5857864
0
LINE
8
0
10
184.3284272
20
-5
11
199.8057459
21
-5
0
LINE
8
0
10
201.7785337
20
-3.328798
11
202.2214663
21
-0.671202
0
LINE
8
0
10
204.1942541
20
1
11
213.8603921
21
1
0
LINE
8
0
10
215.8215536
20
-0.6077678
11
216.1784464
21
-2.3922322
0
LINE
8
0
10
218.1396079
20
-4
11
232.7654092
21
-4
0
LINE
8
0
10
234.7453082
20
-5.7171572
11
235.2546918
21
-9.2828428
0
LINE
8
0
10
237.2345908
20
-11
11
275.5
21
-11
0
ARC
8
0
10
275.5
20
85
40
2
50
0
51
90
0
ARC
8
0
10
242.2345908
20
89
40
2
50
188.1301048
51
270
0
ARC
8
0
10
237.7654092
20
92
40
2
50
8.1301048
51
90
0
ARC
8
0
10
223.1396079
20
96
40
2
50
191.3099302
51
270
0
ARC
8
0
10
218.8603921
20
97
40
2
50
11.3099302
51
90
0
ARC
8
0
10
199.1942541
20
97
40
2
50
90
51
170.5376769
0
ARC
8
0
10
194.8057459
20
95
40
2
50
270
51
350.5376769
0
ARC
8
0
10
179.7915027
20
91
40
2
50
90
51
155.7048119
0
ARC
8
0
10
175.8542487
20
92
40
2
50
270
51
335.7048119
0
ARC
8
0
10
161.5
20
88
40
2
50
90
51
180
0
ARC
8
0
10
157.5
20
-6.9747775
40
2
50
358.5548415
51
0
0
ARC
8
0
10
157.4687925
20
-8.2117871
40
2
50
289.9999981
51
358.5548415
0
ARC
8
0
10
153.0645724
20
-14.0715032
40
2
50
109.9999981
51
150.8150861
0
ARC
8
0
10
148.8805687
20
-13.3595827
40
2
50
289.9999981
51
330.8150861
0
ARC
8
0
10
137.0404173
20
-21.9257564
40
2
50
109.9999981
51
199.9999981
0
ARC
8
0
10
143.1967798
20
-38.8402237
40
2
50
199.9999981
51
289.9999981
0
ARC
8
0
10
162.2311061
20
-31.9122955
40
2
50
289.9999981
51
330.8150861
0
ARC
8
0
10
166.4151098
20
-32.624216
40
2
50
109.9999981
51
150.8150861
0
ARC
8
0
10
178.2552612
20
-24.0580423
40
2
50
289.9999981
51
19.9999981
0
ARC
8
0
10
178.3934788
20
-12.7425746
40
2
50
133.381699
51
199.9999981
0
ARC
8
0
10
179.1057568
20
-6.565816
40
2
50
313.381699
51
315
0
ARC
8
0
10
184.3284272
20
-7
40
2
50
90
51
135
0
ARC
8
0
10
199.8057459
20
-3
40
2
50
270
51
350.5376769
0
ARC
8
0
10
204.1942541
20
-1
40
2
50
90
51
170.5376769
0
ARC
8
0
10
213.8603921
20
-1
40
2
50
11.3099302
51
90
0
ARC
8
0
10
218.1396079
20
-2
40
2
50
191.3099302
51
270
0
ARC
8
0
10
232.7654092
20
-6
40
2
50
8.1301048
51
90
0
ARC
8
0
10
237.2345908
20
-9
40
2
50
188.1301048
51
270
0
ARC
8
0
10
275.5
20
-9
40
2
50
270
51
0
0
ENDSEC
0
EOF