0
SECTION
2
HEADER
9
$INSUNITS
70
4
0
ENDSEC
0
SECTION
2
TABLES
0
TABLE
2
LTYPE
0
LTYPE
72
65
70
64
2
CONTINUOUS
3
______
73
0
40
0
0
ENDTAB
0
TABLE
2
LAYER
0
ENDTAB
0
ENDSEC
0
SECTION
2
ENTITIES
0
LINE
8
0
10
277
20
-8.5
11
277
21
84.5
0
LINE
8
0
10
275
20
86.5
11
241.7345908
21
86.5
0
LINE
8
0
10
239.7546918
20
88.2171572
11
239.2453082
21
91.7828428
0
LINE
8
0
10
237.2654092
20
93.5
11
222.6396079
21
93.5
0
LINE
8
0
10
220.6784464
20
95.1077678
11
220.3215536
21
96.8922322
0
LINE
8
0
10
218.3603921
20
98.5
11
199.6942541
21
98.5
0
LINE
8
0
10
197.7214663
20
96.828798
11
197.2785337
21
94.171202
0
LINE
8
0
10
195.3057459
20
92.5
11
180.4410627
21
92.5
0
LINE
8
0
10
178.5438859
20
91.1330246
11
177.999
21
89.5
0
LINE
8
0
10
177.999
20
89.5
11
162
21
89.5
0
LINE
8
0
10
160
20
87.5
11
160
21
-7.4692153
0
LINE
8
0
10
160.0009475
20
-7.5307707
11
160.0301048
21
-8.4776748
0
LINE
8
0
10
158.7150925
20
-10.4186155
11
153.0213886
21
-12.4909542
0
LINE
8
0
10
151.9593278
20
-13.3950798
11
151.2675261
21
-14.6336787
0
LINE
8
0
10
150.2054653
20
-15.5378043
11
136.9972335
21
-20.3452075
0
LINE
8
0
10
135.8018885
20
-22.9086329
11
141.6162309
21
-38.8834075
0
LINE
8
0
10
144.1796563
20
-40.0787525
11
162.2742899
21
-33.4928445
0
LINE
8
0
10
163.3363507
20
-32.5887189
11
164.0281524
21
-31.35012
0
LINE
8
0
10
165.0902132
20
-30.4459944
11
178.298445
21
-25.6385912
0
LINE
8
0
10
179.49379
20
-23.0751658
11
175.8694289
21
-13.1173154
0
LINE
8
0
10
176.3638121
20
-10.9904414
11
179.9852454
21
-7.5141632
0
LINE
8
0
10
180.014457
20
-7.485543
11
182.4142136
21
-5.0857864
0
LINE
8
0
10
183.8284272
20
-4.5
11
199.3057459
21
-4.5
0
LINE
8
0
10
201.2785337
20
-2.828798
11
201.7214663
21
-0.171202
0
LINE
8
0
10
203.6942541
20
1.5
11
214.3603921
21
1.5
0
LINE
8
0
10
216.3215536
20
-0.1077678
11
216.6784464
21
-1.8922322
0
LINE
8
0
10
218.6396079
20
-3.5
11
233.2654092
21
-3.5
0
LINE
8
0
10
235.2453082
20
-5.2171572
11
235.7546918
21
-8.7828428
0
LINE
8
0
10
237.7345908
20
-10.5
11
275
21
-10.5
0
ARC
8
0
10
275
20
84.5
40
2
50
0
51
90
0
ARC
8
0
10
241.7345908
20
88.5
40
2
50
188.1301048
51
270
0
ARC
8
0
10
237.2654092
20
91.5
40
2
50
8.1301048
51
90
0
ARC
8
0
10
222.6396079
20
95.5
40
2
50
191.3099302
51
270
0
ARC
8
0
10
218.3603921
20
96.5
40
2
50
11.3099302
51
90
0
ARC
8
0
10
199.6942541
20
96.5
40
2
50
90
51
170.5376769
0
ARC
8
0
10
195.3057459
20
94.5
40
2
50
270
51
350.5376769
0
ARC
8
0
10
180.4410627
20
90.5
40
2
50
90
51
161.5478658
0
ARC
8
0
10
162
20
87.5
40
2
50
90
51
180
0
ARC
8
0
10
162
20
-7.4692153
40
2
50
180
51
181.7637108
0
ARC
8
0
10
158.0310523
20
-8.5392302
40
2
50
289.9999981
51
1.7637108
0
ARC
8
0
10
153.7054288
20
-14.3703395
40
2
50
109.9999981
51
150.8150861
0
ARC
8
0
10
149.5214251
20
-13.658419
40
2
50
289.9999981
51
330.8150861
0
ARC
8
0
10
137.6812737
20
-22.2245927
40
2
50
109.9999981
51
199.9999981
0
ARC
8
0
10
143.4956161
20
-38.1993673
40
2
50
199.9999981
51
289.9999981
0
ARC
8
0
10
161.5902497
20
-31.6134592
40
2
50
289.9999981
51
330.8150861
0
ARC
8
0
10
165.7742534
20
-32.3253797
40
2
50
109.9999981
51
150.8150861
0
ARC
8
0
10
177.6144048
20
-23.759206
40
2
50
289.9999981
51
19.9999981
0
ARC
8
0
10
177.7488141
20
-12.4332752
40
2
50
133.8284128
51
199.9999981
0
ARC
8
0
10
178.6002434
20
-6.0713294
40
2
50
313.8284128
51
315
0
ARC
8
0
10
183.8284272
20
-6.5
40
2
50
90
51
135
0
ARC
8
0
10
199.3057459
20
-2.5
40
2
50
270
51
350.5376769
0
ARC
8
0
10
203.6942541
20
-0.5
40
2
50
90
51
170.5376769
0
ARC
8
0
10
214.3603921
20
-0.5
40
2
50
11.3099302
51
90
0
ARC
8
0
10
218.6396079
20
-1.5
40
2
50
191.3099302
51
270
0
ARC
8
0
10
233.2654092
20
-5.5
40
2
50
8.1301048
51
90
0
ARC
8
0
10
237.7345908
20
-8.5
40
2
50
188.1301048
51
270
0
ARC
8
0
10
275
20
-8.5
40
2
50
270
51
0
0
ENDSEC
0
EOF