0
SECTION
2
HEADER
9
$INSUNITS
70
4
0
ENDSEC
0
SECTION
2
TABLES
0
TABLE
2
LTYPE
0
LTYPE
72
65
70
64
2
CONTINUOUS
3
______
73
0
40
0
0
ENDTAB
0
TABLE
2
LAYER
0
ENDTAB
0
ENDSEC
0
SECTION
2
ENTITIES
0
LINE
8
0
10
-11
20
-8.5
11
-11
21
84.5
0
LINE
8
0
10
-9
20
86.5
11
24.2654092
21
86.5
0
LINE
8
0
10
26.2453082
20
88.2171572
11
26.7546918
21
91.7828428
0
LINE
8
0
10
28.7345908
20
93.5
11
43.3603921
21
93.5
0
LINE
8
0
10
45.3215536
20
95.1077678
11
45.6784464
21
96.8922322
0
LINE
8
0
10
47.6396079
20
98.5
11
66.3057459
21
98.5
0
LINE
8
0
10
68.2785337
20
96.828798
11
68.7214663
21
94.171202
0
LINE
8
0
10
70.6942541
20
92.5
11
85.7084973
21
92.5
0
LINE
8
0
10
87.531373
20
91.3228756
11
87.8228756
21
90.6771244
0
LINE
8
0
10
89.6457513
20
89.5
11
104
21
89.5
0
LINE
8
0
10
106
20
87.5
11
106
21
-7.4692153
0
LINE
8
0
10
105.9990525
20
-7.5307707
11
105.9698952
21
-8.4776748
0
LINE
8
0
10
107.2849075
20
-10.4186155
11
112.9786114
21
-12.4909542
0
LINE
8
0
10
114.0406722
20
-13.3950798
11
114.7324739
21
-14.6336787
0
LINE
8
0
10
115.7945347
20
-15.5378043
11
129.0027665
21
-20.3452075
0
LINE
8
0
10
130.1981115
20
-22.9086329
11
124.3837691
21
-38.8834075
0
LINE
8
0
10
121.8203437
20
-40.0787525
11
103.7257101
21
-33.4928445
0
LINE
8
0
10
102.6636493
20
-32.5887189
11
101.9718476
21
-31.35012
0
LINE
8
0
10
100.9097868
20
-30.4459944
11
87.701555
21
-25.6385912
0
LINE
8
0
10
86.50621
20
-23.0751658
11
90.1305711
21
-13.1173154
0
LINE
8
0
10
89.6361879
20
-10.9904414
11
86.0147546
21
-7.5141632
0
LINE
8
0
10
85.985543
20
-7.485543
11
83.5857864
21
-5.0857864
0
LINE
8
0
10
82.1715728
20
-4.5
11
66.6942541
21
-4.5
0
LINE
8
0
10
64.7214663
20
-2.828798
11
64.2785337
21
-0.171202
0
LINE
8
0
10
62.3057459
20
1.5
11
51.6396079
21
1.5
0
LINE
8
0
10
49.6784464
20
-0.1077678
11
49.3215536
21
-1.8922322
0
LINE
8
0
10
47.3603921
20
-3.5
11
32.7345908
21
-3.5
0
LINE
8
0
10
30.7546918
20
-5.2171572
11
30.2453082
21
-8.7828428
0
LINE
8
0
10
-9
20
-10.5
11
28.2654092
21
-10.5
0
ARC
8
0
10
-9
20
84.5
40
2
50
90
51
180
0
ARC
8
0
10
24.2654092
20
88.5
40
2
50
270
51
351.8698952
0
ARC
8
0
10
28.7345908
20
91.5
40
2
50
90
51
171.8698952
0
ARC
8
0
10
43.3603921
20
95.5
40
2
50
270
51
348.6900698
0
ARC
8
0
10
47.6396079
20
96.5
40
2
50
90
51
168.6900698
0
ARC
8
0
10
66.3057459
20
96.5
40
2
50
9.4623231
51
90
0
ARC
8
0
10
70.6942541
20
94.5
40
2
50
189.4623231
51
270
0
ARC
8
0
10
85.7084973
20
90.5
40
2
50
24.2951881
51
90
0
ARC
8
0
10
89.6457513
20
91.5
40
2
50
204.2951881
51
270
0
ARC
8
0
10
104
20
87.5
40
2
50
0
51
90
0
ARC
8
0
10
104
20
-7.4692153
40
2
50
358.2362892
51
0
0
ARC
8
0
10
107.9689477
20
-8.5392302
40
2
50
178.2362892
51
250.0000019
0
ARC
8
0
10
112.2945712
20
-14.3703395
40
2
50
29.1849139
51
70.0000019
0
ARC
8
0
10
116.4785749
20
-13.658419
40
2
50
209.1849139
51
250.0000019
0
ARC
8
0
10
128.3187263
20
-22.2245927
40
2
50
340.0000019
51
70.0000019
0
ARC
8
0
10
122.5043839
20
-38.1993673
40
2
50
250.0000019
51
340.0000019
0
ARC
8
0
10
104.4097503
20
-31.6134592
40
2
50
209.1849139
51
250.0000019
0
ARC
8
0
10
100.2257466
20
-32.3253797
40
2
50
29.1849139
51
70.0000019
0
ARC
8
0
10
88.3855952
20
-23.759206
40
2
50
160.0000019
51
250.0000019
0
ARC
8
0
10
88.2511859
20
-12.4332752
40
2
50
340.0000019
51
46.1715872
0
ARC
8
0
10
87.3997566
20
-6.0713294
40
2
50
225
51
226.1715872
0
ARC
8
0
10
82.1715728
20
-6.5
40
2
50
45
51
90
0
ARC
8
0
10
66.6942541
20
-2.5
40
2
50
189.4623231
51
270
0
ARC
8
0
10
62.3057459
20
-0.5
40
2
50
9.4623231
51
90
0
ARC
8
0
10
51.6396079
20
-0.5
40
2
50
90
51
168.6900698
0
ARC
8
0
10
47.3603921
20
-1.5
40
2
50
270
51
348.6900698
0
ARC
8
0
10
32.7345908
20
-5.5
40
2
50
90
51
171.8698952
0
ARC
8
0
10
28.2654092
20
-8.5
40
2
50
270
51
351.8698952
0
ARC
8
0
10
-9
20
-8.5
40
2
50
180
51
270
0
ENDSEC
0
EOF