0
SECTION
2
HEADER
9
$INSUNITS
70
4
0
ENDSEC
0
SECTION
2
TABLES
0
TABLE
2
LTYPE
0
LTYPE
72
65
70
64
2
CONTINUOUS
3
______
73
0
40
0
0
ENDTAB
0
TABLE
2
LAYER
0
ENDTAB
0
ENDSEC
0
SECTION
2
ENTITIES
0
LINE
8
0
10
-13.5
20
-11
11
-13.5
21
87
0
LINE
8
0
10
-11.5
20
89
11
21.7654092
21
89
0
LINE
8
0
10
23.7453082
20
90.7171572
11
24.2546918
21
94.2828428
0
LINE
8
0
10
26.2345908
20
96
11
40.8603921
21
96
0
LINE
8
0
10
42.8215536
20
97.6077678
11
43.1784464
21
99.3922322
0
LINE
8
0
10
45.1396079
20
101
11
68.8057459
21
101
0
LINE
8
0
10
70.7785337
20
99.328798
11
71.2214663
21
96.671202
0
LINE
8
0
10
73.1942541
20
95
11
88.2084973
21
95
0
LINE
8
0
10
90.031373
20
93.8228756
11
90.3228756
21
93.1771244
0
LINE
8
0
10
92.1457513
20
92
11
106.5
21
92
0
LINE
8
0
10
108.5
20
90
11
108.5
21
-4.8179295
0
LINE
8
0
10
108.5328773
20
-5.1790779
11
108.9228299
21
-7.303093
0
LINE
8
0
10
110.2059124
20
-8.8213299
11
116.1828933
21
-10.996773
0
LINE
8
0
10
117.2449541
20
-11.9008986
11
117.9367558
21
-13.1394975
0
LINE
8
0
10
118.9988166
20
-14.0436231
11
132.2070484
21
-18.8510263
0
LINE
8
0
10
133.4023934
20
-21.4144517
11
125.8779503
21
-42.0876894
0
LINE
8
0
10
123.3145249
20
-43.2830344
11
100.5214282
21
-34.9870257
0
LINE
8
0
10
99.4593674
20
-34.0829001
11
98.7675657
21
-32.8443012
0
LINE
8
0
10
97.7055049
20
-31.9401756
11
84.4972731
21
-27.1327724
0
LINE
8
0
10
83.301928
20
-24.569347
11
86.9034011
21
-14.674381
0
LINE
8
0
10
86.3408121
20
-12.4850011
11
83.5502292
21
-10.043938
0
LINE
8
0
10
83.4528119
20
-9.9528119
11
81.0857864
21
-7.5857864
0
LINE
8
0
10
79.6715728
20
-7
11
64.1942541
21
-7
0
LINE
8
0
10
62.2214663
20
-5.328798
11
61.7785337
21
-2.671202
0
LINE
8
0
10
59.8057459
20
-1
11
54.1396079
21
-1
0
LINE
8
0
10
52.1784464
20
-2.6077678
11
51.8215536
21
-4.3922322
0
LINE
8
0
10
49.8603921
20
-6
11
35.2345908
21
-6
0
LINE
8
0
10
33.2546918
20
-7.7171572
11
32.7453082
21
-11.2828428
0
LINE
8
0
10
-11.5
20
-13
11
30.7654092
21
-13
0
ARC
8
0
10
-11.5
20
87
40
2
50
90
51
180
0
ARC
8
0
10
21.7654092
20
91
40
2
50
270
51
351.8698952
0
ARC
8
0
10
26.2345908
20
94
40
2
50
90
51
171.8698952
0
ARC
8
0
10
40.8603921
20
98
40
2
50
270
51
348.6900698
0
ARC
8
0
10
45.1396079
20
99
40
2
50
90
51
168.6900698
0
ARC
8
0
10
68.8057459
20
99
40
2
50
9.4623231
51
90
0
ARC
8
0
10
73.1942541
20
97
40
2
50
189.4623231
51
270
0
ARC
8
0
10
88.2084973
20
93
40
2
50
24.2951881
51
90
0
ARC
8
0
10
92.1457513
20
94
40
2
50
204.2951881
51
270
0
ARC
8
0
10
106.5
20
90
40
2
50
0
51
90
0
ARC
8
0
10
110.5
20
-4.8179295
40
2
50
180
51
190.4032067
0
ARC
8
0
10
110.8899526
20
-6.9419446
40
2
50
190.4032067
51
250.0000019
0
ARC
8
0
10
115.4988531
20
-12.8761583
40
2
50
29.1849139
51
70.0000019
0
ARC
8
0
10
119.6828568
20
-12.1642378
40
2
50
209.1849139
51
250.0000019
0
ARC
8
0
10
131.5230082
20
-20.7304115
40
2
50
340.0000019
51
70.0000019
0
ARC
8
0
10
123.9985651
20
-41.4036492
40
2
50
250.0000019
51
340.0000019
0
ARC
8
0
10
101.2054684
20
-33.1076404
40
2
50
209.1849139
51
250.0000019
0
ARC
8
0
10
97.0214647
20
-33.8195609
40
2
50
29.1849139
51
70.0000019
0
ARC
8
0
10
85.1813133
20
-25.2533872
40
2
50
160.0000019
51
250.0000019
0
ARC
8
0
10
85.0240158
20
-13.9903408
40
2
50
340.0000019
51
48.8221802
0
ARC
8
0
10
84.8670255
20
-8.5385983
40
2
50
225
51
228.8221802
0
ARC
8
0
10
79.6715728
20
-9
40
2
50
45
51
90
0
ARC
8
0
10
64.1942541
20
-5
40
2
50
189.4623231
51
270
0
ARC
8
0
10
59.8057459
20
-3
40
2
50
9.4623231
51
90
0
ARC
8
0
10
54.1396079
20
-3
40
2
50
90
51
168.6900698
0
ARC
8
0
10
49.8603921
20
-4
40
2
50
270
51
348.6900698
0
ARC
8
0
10
35.2345908
20
-8
40
2
50
90
51
171.8698952
0
ARC
8
0
10
30.7654092
20
-11
40
2
50
270
51
351.8698952
0
ARC
8
0
10
-11.5
20
-11
40
2
50
180
51
270
0
LINE
8
0
10
-7.25
20
-7.25
11
7.25
21
-7.25
0
LINE
8
0
10
7.25
20
-7.25
11
7.25
21
7.25
0
LINE
8
0
10
7.25
20
7.25
11
-7.25
21
7.25
0
LINE
8
0
10
-7.25
20
7.25
11
-7.25
21
-7.25
0
LINE
8
0
10
-7.25
20
11.75
11
7.25
21
11.75
0
LINE
8
0
10
7.25
20
11.75
11
7.25
21
26.25
0
LINE
8
0
10
7.25
20
26.25
11
-7.25
21
26.25
0
LINE
8
0
10
-7.25
20
26.25
11
-7.25
21
11.75
0
LINE
8
0
10
-7.25
20
30.75
11
7.25
21
30.75
0
LINE
8
0
10
7.25
20
30.75
11
7.25
21
45.25
0
LINE
8
0
10
7.25
20
45.25
11
-7.25
21
45.25
0
LINE
8
0
10
-7.25
20
45.25
11
-7.25
21
30.75
0
LINE
8
0
10
-7.25
20
49.75
11
7.25
21
49.75
0
LINE
8
0
10
7.25
20
49.75
11
7.25
21
64.25
0
LINE
8
0
10
7.25
20
64.25
11
-7.25
21
64.25
0
LINE
8
0
10
-7.25
20
64.25
11
-7.25
21
49.75
0
LINE
8
0
10
-7.25
20
68.75
11
7.25
21
68.75
0
LINE
8
0
10
7.25
20
68.75
11
7.25
21
83.25
0
LINE
8
0
10
7.25
20
83.25
11
-7.25
21
83.25
0
LINE
8
0
10
-7.25
20
83.25
11
-7.25
21
68.75
0
LINE
8
0
10
11.75
20
-7.25
11
26.25
21
-7.25
0
LINE
8
0
10
26.25
20
-7.25
11
26.25
21
7.25
0
LINE
8
0
10
26.25
20
7.25
11
11.75
21
7.25
0
LINE
8
0
10
11.75
20
7.25
11
11.75
21
-7.25
0
LINE
8
0
10
11.75
20
11.75
11
26.25
21
11.75
0
LINE
8
0
10
26.25
20
11.75
11
26.25
21
26.25
0
LINE
8
0
10
26.25
20
26.25
11
11.75
21
26.25
0
LINE
8
0
10
11.75
20
26.25
11
11.75
21
11.75
0
LINE
8
0
10
11.75
20
30.75
11
26.25
21
30.75
0
LINE
8
0
10
26.25
20
30.75
11
26.25
21
45.25
0
LINE
8
0
10
26.25
20
45.25
11
11.75
21
45.25
0
LINE
8
0
10
11.75
20
45.25
11
11.75
21
30.75
0
LINE
8
0
10
11.75
20
49.75
11
26.25
21
49.75
0
LINE
8
0
10
26.25
20
49.75
11
26.25
21
64.25
0
LINE
8
0
10
26.25
20
64.25
11
11.75
21
64.25
0
LINE
8
0
10
11.75
20
64.25
11
11.75
21
49.75
0
LINE
8
0
10
11.75
20
68.75
11
26.25
21
68.75
0
LINE
8
0
10
26.25
20
68.75
11
26.25
21
83.25
0
LINE
8
0
10
26.25
20
83.25
11
11.75
21
83.25
0
LINE
8
0
10
11.75
20
83.25
11
11.75
21
68.75
0
LINE
8
0
10
30.75
20
-0.25
11
45.25
21
-0.25
0
LINE
8
0
10
45.25
20
-0.25
11
45.25
21
14.25
0
LINE
8
0
10
45.25
20
14.25
11
30.75
21
14.25
0
LINE
8
0
10
30.75
20
14.25
11
30.75
21
-0.25
0
LINE
8
0
10
30.75
20
18.75
11
45.25
21
18.75
0
LINE
8
0
10
45.25
20
18.75
11
45.25
21
33.25
0
LINE
8
0
10
45.25
20
33.25
11
30.75
21
33.25
0
LINE
8
0
10
30.75
20
33.25
11
30.75
21
18.75
0
LINE
8
0
10
30.75
20
37.75
11
45.25
21
37.75
0
LINE
8
0
10
45.25
20
37.75
11
45.25
21
52.25
0
LINE
8
0
10
45.25
20
52.25
11
30.75
21
52.25
0
LINE
8
0
10
30.75
20
52.25
11
30.75
21
37.75
0
LINE
8
0
10
30.75
20
56.75
11
45.25
21
56.75
0
LINE
8
0
10
45.25
20
56.75
11
45.25
21
71.25
0
LINE
8
0
10
45.25
20
71.25
11
30.75
21
71.25
0
LINE
8
0
10
30.75
20
71.25
11
30.75
21
56.75
0
LINE
8
0
10
30.75
20
75.75
11
45.25
21
75.75
0
LINE
8
0
10
45.25
20
75.75
11
45.25
21
90.25
0
LINE
8
0
10
45.25
20
90.25
11
30.75
21
90.25
0
LINE
8
0
10
30.75
20
90.25
11
30.75
21
75.75
0
LINE
8
0
10
49.75
20
4.75
11
64.25
21
4.75
0
LINE
8
0
10
64.25
20
4.75
11
64.25
21
19.25
0
LINE
8
0
10
64.25
20
19.25
11
49.75
21
19.25
0
LINE
8
0
10
49.75
20
19.25
11
49.75
21
4.75
0
LINE
8
0
10
49.75
20
23.75
11
64.25
21
23.75
0
LINE
8
0
10
64.25
20
23.75
11
64.25
21
38.25
0
LINE
8
0
10
64.25
20
38.25
11
49.75
21
38.25
0
LINE
8
0
10
49.75
20
38.25
11
49.75
21
23.75
0
LINE
8
0
10
49.75
20
42.75
11
64.25
21
42.75
0
LINE
8
0
10
64.25
20
42.75
11
64.25
21
57.25
0
LINE
8
0
10
64.25
20
57.25
11
49.75
21
57.25
0
LINE
8
0
10
49.75
20
57.25
11
49.75
21
42.75
0
LINE
8
0
10
49.75
20
61.75
11
64.25
21
61.75
0
LINE
8
0
10
64.25
20
61.75
11
64.25
21
76.25
0
LINE
8
0
10
64.25
20
76.25
11
49.75
21
76.25
0
LINE
8
0
10
49.75
20
76.25
11
49.75
21
61.75
0
LINE
8
0
10
49.75
20
80.75
11
64.25
21
80.75
0
LINE
8
0
10
64.25
20
80.75
11
64.25
21
95.25
0
LINE
8
0
10
64.25
20
95.25
11
49.75
21
95.25
0
LINE
8
0
10
49.75
20
95.25
11
49.75
21
80.75
0
LINE
8
0
10
68.75
20
-1.25
11
83.25
21
-1.25
0
LINE
8
0
10
83.25
20
-1.25
11
83.25
21
13.25
0
LINE
8
0
10
83.25
20
13.25
11
68.75
21
13.25
0
LINE
8
0
10
68.75
20
13.25
11
68.75
21
-1.25
0
LINE
8
0
10
68.75
20
17.75
11
83.25
21
17.75
0
LINE
8
0
10
83.25
20
17.75
11
83.25
21
32.25
0
LINE
8
0
10
83.25
20
32.25
11
68.75
21
32.25
0
LINE
8
0
10
68.75
20
32.25
11
68.75
21
17.75
0
LINE
8
0
10
68.75
20
36.75
11
83.25
21
36.75
0
LINE
8
0
10
83.25
20
36.75
11
83.25
21
51.25
0
LINE
8
0
10
83.25
20
51.25
11
68.75
21
51.25
0
LINE
8
0
10
68.75
20
51.25
11
68.75
21
36.75
0
LINE
8
0
10
68.75
20
55.75
11
83.25
21
55.75
0
LINE
8
0
10
83.25
20
55.75
11
83.25
21
70.25
0
LINE
8
0
10
83.25
20
70.25
11
68.75
21
70.25
0
LINE
8
0
10
68.75
20
70.25
11
68.75
21
55.75
0
LINE
8
0
10
68.75
20
74.75
11
83.25
21
74.75
0
LINE
8
0
10
83.25
20
74.75
11
83.25
21
89.25
0
LINE
8
0
10
83.25
20
89.25
11
68.75
21
89.25
0
LINE
8
0
10
68.75
20
89.25
11
68.75
21
74.75
0
LINE
8
0
10
87.75
20
-4.25
11
102.25
21
-4.25
0
LINE
8
0
10
102.25
20
-4.25
11
102.25
21
10.25
0
LINE
8
0
10
102.25
20
10.25
11
87.75
21
10.25
0
LINE
8
0
10
87.75
20
10.25
11
87.75
21
-4.25
0
LINE
8
0
10
87.75
20
14.75
11
102.25
21
14.75
0
LINE
8
0
10
102.25
20
14.75
11
102.25
21
29.25
0
LINE
8
0
10
102.25
20
29.25
11
87.75
21
29.25
0
LINE
8
0
10
87.75
20
29.25
11
87.75
21
14.75
0
LINE
8
0
10
87.75
20
33.75
11
102.25
21
33.75
0
LINE
8
0
10
102.25
20
33.75
11
102.25
21
48.25
0
LINE
8
0
10
102.25
20
48.25
11
87.75
21
48.25
0
LINE
8
0
10
87.75
20
48.25
11
87.75
21
33.75
0
LINE
8
0
10
87.75
20
52.75
11
102.25
21
52.75
0
LINE
8
0
10
102.25
20
52.75
11
102.25
21
67.25
0
LINE
8
0
10
102.25
20
67.25
11
87.75
21
67.25
0
LINE
8
0
10
87.75
20
67.25
11
87.75
21
52.75
0
LINE
8
0
10
87.75
20
71.75
11
102.25
21
71.75
0
LINE
8
0
10
102.25
20
71.75
11
102.25
21
86.25
0
LINE
8
0
10
102.25
20
86.25
11
87.75
21
86.25
0
LINE
8
0
10
87.75
20
86.25
11
87.75
21
71.75
0
LINE
8
0
10
90.4575825
20
-23.1831255
11
104.0831255
21
-28.1424175
0
LINE
8
0
10
104.0831255
20
-28.1424175
11
109.0424175
21
-14.5168745
0
LINE
8
0
10
109.0424175
20
-14.5168745
11
95.4168745
21
-9.5575825
0
LINE
8
0
10
95.4168745
20
-9.5575825
11
90.4575825
21
-23.1831255
0
LINE
8
0
10
107.661904
20
-31.4669242
11
121.287447
21
-36.4262162
0
LINE
8
0
10
121.287447
20
-36.4262162
11
126.246739
21
-22.8006732
0
LINE
8
0
10
126.246739
20
-22.8006732
11
112.621196
21
-17.8413812
0
LINE
8
0
10
112.621196
20
-17.8413812
11
107.661904
21
-31.4669242
0
ENDSEC
0
EOF