0
SECTION
2
HEADER
9
$INSUNITS
70
4
0
ENDSEC
0
SECTION
2
TABLES
0
TABLE
2
LTYPE
0
LTYPE
72
65
70
64
2
CONTINUOUS
3
______
73
0
40
0
0
ENDTAB
0
TABLE
2
LAYER
0
ENDTAB
0
ENDSEC
0
SECTION
2
ENTITIES
0
LINE
8
0
10
-13.5
20
-11
11
-13.5
21
87
0
LINE
8
0
10
-11.5
20
89
11
21.7654092
21
89
0
LINE
8
0
10
23.7453082
20
90.7171572
11
24.2546918
21
94.2828428
0
LINE
8
0
10
26.2345908
20
96
11
40.8603921
21
96
0
LINE
8
0
10
42.8215536
20
97.6077678
11
43.1784464
21
99.3922322
0
LINE
8
0
10
45.1396079
20
101
11
68.8057459
21
101
0
LINE
8
0
10
70.7785337
20
99.328798
11
71.2214663
21
96.671202
0
LINE
8
0
10
73.1942541
20
95
11
88.2084973
21
95
0
LINE
8
0
10
90.031373
20
93.8228756
11
90.3228756
21
93.1771244
0
LINE
8
0
10
92.1457513
20
92
11
106.5
21
92
0
LINE
8
0
10
108.5
20
90
11
108.5
21
-4.8179295
0
LINE
8
0
10
108.5328773
20
-5.1790779
11
108.9228299
21
-7.303093
0
LINE
8
0
10
110.2059124
20
-8.8213299
11
116.1828933
21
-10.996773
0
LINE
8
0
10
117.2449541
20
-11.9008986
11
117.9367558
21
-13.1394975
0
LINE
8
0
10
118.9988166
20
-14.0436231
11
132.2070484
21
-18.8510263
0
LINE
8
0
10
133.4023934
20
-21.4144517
11
125.8779503
21
-42.0876894
0
LINE
8
0
10
123.3145249
20
-43.2830344
11
100.5214282
21
-34.9870257
0
LINE
8
0
10
99.4593674
20
-34.0829001
11
98.7675657
21
-32.8443012
0
LINE
8
0
10
97.7055049
20
-31.9401756
11
84.4972731
21
-27.1327724
0
LINE
8
0
10
83.301928
20
-24.569347
11
86.9034011
21
-14.674381
0
LINE
8
0
10
86.3408121
20
-12.4850011
11
83.5502292
21
-10.043938
0
LINE
8
0
10
83.4528119
20
-9.9528119
11
81.0857864
21
-7.5857864
0
LINE
8
0
10
79.6715728
20
-7
11
64.1942541
21
-7
0
LINE
8
0
10
62.2214663
20
-5.328798
11
61.7785337
21
-2.671202
0
LINE
8
0
10
59.8057459
20
-1
11
54.1396079
21
-1
0
LINE
8
0
10
52.1784464
20
-2.6077678
11
51.8215536
21
-4.3922322
0
LINE
8
0
10
49.8603921
20
-6
11
35.2345908
21
-6
0
LINE
8
0
10
33.2546918
20
-7.7171572
11
32.7453082
21
-11.2828428
0
LINE
8
0
10
-11.5
20
-13
11
30.7654092
21
-13
0
ARC
8
0
10
-11.5
20
87
40
2
50
90
51
180
0
ARC
8
0
10
21.7654092
20
91
40
2
50
270
51
351.8698952
0
ARC
8
0
10
26.2345908
20
94
40
2
50
90
51
171.8698952
0
ARC
8
0
10
40.8603921
20
98
40
2
50
270
51
348.6900698
0
ARC
8
0
10
45.1396079
20
99
40
2
50
90
51
168.6900698
0
ARC
8
0
10
68.8057459
20
99
40
2
50
9.4623231
51
90
0
ARC
8
0
10
73.1942541
20
97
40
2
50
189.4623231
51
270
0
ARC
8
0
10
88.2084973
20
93
40
2
50
24.2951881
51
90
0
ARC
8
0
10
92.1457513
20
94
40
2
50
204.2951881
51
270
0
ARC
8
0
10
106.5
20
90
40
2
50
0
51
90
0
ARC
8
0
10
110.5
20
-4.8179295
40
2
50
180
51
190.4032067
0
ARC
8
0
10
110.8899526
20
-6.9419446
40
2
50
190.4032067
51
250.0000019
0
ARC
8
0
10
115.4988531
20
-12.8761583
40
2
50
29.1849139
51
70.0000019
0
ARC
8
0
10
119.6828568
20
-12.1642378
40
2
50
209.1849139
51
250.0000019
0
ARC
8
0
10
131.5230082
20
-20.7304115
40
2
50
340.0000019
51
70.0000019
0
ARC
8
0
10
123.9985651
20
-41.4036492
40
2
50
250.0000019
51
340.0000019
0
ARC
8
0
10
101.2054684
20
-33.1076404
40
2
50
209.1849139
51
250.0000019
0
ARC
8
0
10
97.0214647
20
-33.8195609
40
2
50
29.1849139
51
70.0000019
0
ARC
8
0
10
85.1813133
20
-25.2533872
40
2
50
160.0000019
51
250.0000019
0
ARC
8
0
10
85.0240158
20
-13.9903408
40
2
50
340.0000019
51
48.8221802
0
ARC
8
0
10
84.8670255
20
-8.5385983
40
2
50
225
51
228.8221802
0
ARC
8
0
10
79.6715728
20
-9
40
2
50
45
51
90
0
ARC
8
0
10
64.1942541
20
-5
40
2
50
189.4623231
51
270
0
ARC
8
0
10
59.8057459
20
-3
40
2
50
9.4623231
51
90
0
ARC
8
0
10
54.1396079
20
-3
40
2
50
90
51
168.6900698
0
ARC
8
0
10
49.8603921
20
-4
40
2
50
270
51
348.6900698
0
ARC
8
0
10
35.2345908
20
-8
40
2
50
90
51
171.8698952
0
ARC
8
0
10
30.7654092
20
-11
40
2
50
270
51
351.8698952
0
ARC
8
0
10
-11.5
20
-11
40
2
50
180
51
270
0
LINE
8
0
10
-7
20
-7
11
7
21
-7
0
LINE
8
0
10
7
20
-7
11
7
21
7
0
LINE
8
0
10
7
20
7
11
-7
21
7
0
LINE
8
0
10
-7
20
7
11
-7
21
-7
0
LINE
8
0
10
-7
20
12
11
7
21
12
0
LINE
8
0
10
7
20
12
11
7
21
26
0
LINE
8
0
10
7
20
26
11
-7
21
26
0
LINE
8
0
10
-7
20
26
11
-7
21
12
0
LINE
8
0
10
-7
20
31
11
7
21
31
0
LINE
8
0
10
7
20
31
11
7
21
45
0
LINE
8
0
10
7
20
45
11
-7
21
45
0
LINE
8
0
10
-7
20
45
11
-7
21
31
0
LINE
8
0
10
-7
20
50
11
7
21
50
0
LINE
8
0
10
7
20
50
11
7
21
64
0
LINE
8
0
10
7
20
64
11
-7
21
64
0
LINE
8
0
10
-7
20
64
11
-7
21
50
0
LINE
8
0
10
-7
20
69
11
7
21
69
0
LINE
8
0
10
7
20
69
11
7
21
83
0
LINE
8
0
10
7
20
83
11
-7
21
83
0
LINE
8
0
10
-7
20
83
11
-7
21
69
0
LINE
8
0
10
12
20
-7
11
26
21
-7
0
LINE
8
0
10
26
20
-7
11
26
21
7
0
LINE
8
0
10
26
20
7
11
12
21
7
0
LINE
8
0
10
12
20
7
11
12
21
-7
0
LINE
8
0
10
12
20
12
11
26
21
12
0
LINE
8
0
10
26
20
12
11
26
21
26
0
LINE
8
0
10
26
20
26
11
12
21
26
0
LINE
8
0
10
12
20
26
11
12
21
12
0
LINE
8
0
10
12
20
31
11
26
21
31
0
LINE
8
0
10
26
20
31
11
26
21
45
0
LINE
8
0
10
26
20
45
11
12
21
45
0
LINE
8
0
10
12
20
45
11
12
21
31
0
LINE
8
0
10
12
20
50
11
26
21
50
0
LINE
8
0
10
26
20
50
11
26
21
64
0
LINE
8
0
10
26
20
64
11
12
21
64
0
LINE
8
0
10
12
20
64
11
12
21
50
0
LINE
8
0
10
12
20
69
11
26
21
69
0
LINE
8
0
10
26
20
69
11
26
21
83
0
LINE
8
0
10
26
20
83
11
12
21
83
0
LINE
8
0
10
12
20
83
11
12
21
69
0
LINE
8
0
10
31
20
0
11
45
21
0
0
LINE
8
0
10
45
20
0
11
45
21
14
0
LINE
8
0
10
45
20
14
11
31
21
14
0
LINE
8
0
10
31
20
14
11
31
21
0
0
LINE
8
0
10
31
20
19
11
45
21
19
0
LINE
8
0
10
45
20
19
11
45
21
33
0
LINE
8
0
10
45
20
33
11
31
21
33
0
LINE
8
0
10
31
20
33
11
31
21
19
0
LINE
8
0
10
31
20
38
11
45
21
38
0
LINE
8
0
10
45
20
38
11
45
21
52
0
LINE
8
0
10
45
20
52
11
31
21
52
0
LINE
8
0
10
31
20
52
11
31
21
38
0
LINE
8
0
10
31
20
57
11
45
21
57
0
LINE
8
0
10
45
20
57
11
45
21
71
0
LINE
8
0
10
45
20
71
11
31
21
71
0
LINE
8
0
10
31
20
71
11
31
21
57
0
LINE
8
0
10
31
20
76
11
45
21
76
0
LINE
8
0
10
45
20
76
11
45
21
90
0
LINE
8
0
10
45
20
90
11
31
21
90
0
LINE
8
0
10
31
20
90
11
31
21
76
0
LINE
8
0
10
50
20
5
11
64
21
5
0
LINE
8
0
10
64
20
5
11
64
21
19
0
LINE
8
0
10
64
20
19
11
50
21
19
0
LINE
8
0
10
50
20
19
11
50
21
5
0
LINE
8
0
10
50
20
24
11
64
21
24
0
LINE
8
0
10
64
20
24
11
64
21
38
0
LINE
8
0
10
64
20
38
11
50
21
38
0
LINE
8
0
10
50
20
38
11
50
21
24
0
LINE
8
0
10
50
20
43
11
64
21
43
0
LINE
8
0
10
64
20
43
11
64
21
57
0
LINE
8
0
10
64
20
57
11
50
21
57
0
LINE
8
0
10
50
20
57
11
50
21
43
0
LINE
8
0
10
50
20
62
11
64
21
62
0
LINE
8
0
10
64
20
62
11
64
21
76
0
LINE
8
0
10
64
20
76
11
50
21
76
0
LINE
8
0
10
50
20
76
11
50
21
62
0
LINE
8
0
10
50
20
81
11
64
21
81
0
LINE
8
0
10
64
20
81
11
64
21
95
0
LINE
8
0
10
64
20
95
11
50
21
95
0
LINE
8
0
10
50
20
95
11
50
21
81
0
LINE
8
0
10
69
20
-1
11
83
21
-1
0
LINE
8
0
10
83
20
-1
11
83
21
13
0
LINE
8
0
10
83
20
13
11
69
21
13
0
LINE
8
0
10
69
20
13
11
69
21
-1
0
LINE
8
0
10
69
20
18
11
83
21
18
0
LINE
8
0
10
83
20
18
11
83
21
32
0
LINE
8
0
10
83
20
32
11
69
21
32
0
LINE
8
0
10
69
20
32
11
69
21
18
0
LINE
8
0
10
69
20
37
11
83
21
37
0
LINE
8
0
10
83
20
37
11
83
21
51
0
LINE
8
0
10
83
20
51
11
69
21
51
0
LINE
8
0
10
69
20
51
11
69
21
37
0
LINE
8
0
10
69
20
56
11
83
21
56
0
LINE
8
0
10
83
20
56
11
83
21
70
0
LINE
8
0
10
83
20
70
11
69
21
70
0
LINE
8
0
10
69
20
70
11
69
21
56
0
LINE
8
0
10
69
20
75
11
83
21
75
0
LINE
8
0
10
83
20
75
11
83
21
89
0
LINE
8
0
10
83
20
89
11
69
21
89
0
LINE
8
0
10
69
20
89
11
69
21
75
0
LINE
8
0
10
88
20
-4
11
102
21
-4
0
LINE
8
0
10
102
20
-4
11
102
21
10
0
LINE
8
0
10
102
20
10
11
88
21
10
0
LINE
8
0
10
88
20
10
11
88
21
-4
0
LINE
8
0
10
88
20
15
11
102
21
15
0
LINE
8
0
10
102
20
15
11
102
21
29
0
LINE
8
0
10
102
20
29
11
88
21
29
0
LINE
8
0
10
88
20
29
11
88
21
15
0
LINE
8
0
10
88
20
34
11
102
21
34
0
LINE
8
0
10
102
20
34
11
102
21
48
0
LINE
8
0
10
102
20
48
11
88
21
48
0
LINE
8
0
10
88
20
48
11
88
21
34
0
LINE
8
0
10
88
20
53
11
102
21
53
0
LINE
8
0
10
102
20
53
11
102
21
67
0
LINE
8
0
10
102
20
67
11
88
21
67
0
LINE
8
0
10
88
20
67
11
88
21
53
0
LINE
8
0
10
88
20
72
11
102
21
72
0
LINE
8
0
10
102
20
72
11
102
21
86
0
LINE
8
0
10
102
20
86
11
88
21
86
0
LINE
8
0
10
88
20
86
11
88
21
72
0
LINE
8
0
10
90.7780107
20
-23.0337073
11
103.9337073
21
-27.8219893
0
LINE
8
0
10
103.9337073
20
-27.8219893
11
108.7219893
21
-14.6662927
0
LINE
8
0
10
108.7219893
20
-14.6662927
11
95.5662927
21
-9.8780107
0
LINE
8
0
10
95.5662927
20
-9.8780107
11
90.7780107
21
-23.0337073
0
LINE
8
0
10
107.9823322
20
-31.317506
11
121.1380288
21
-36.105788
0
LINE
8
0
10
121.1380288
20
-36.105788
11
125.9263108
21
-22.9500914
0
LINE
8
0
10
125.9263108
20
-22.9500914
11
112.7706142
21
-18.1618094
0
LINE
8
0
10
112.7706142
20
-18.1618094
11
107.9823322
21
-31.317506
0
ENDSEC
0
EOF