0
SECTION
2
HEADER
9
$INSUNITS
70
4
0
ENDSEC
0
SECTION
2
TABLES
0
TABLE
2
LTYPE
0
LTYPE
72
65
70
64
2
CONTINUOUS
3
______
73
0
40
0
0
ENDTAB
0
TABLE
2
LAYER
0
ENDTAB
0
ENDSEC
0
SECTION
2
ENTITIES
0
LINE
8
0
10
-7
20
-7
11
7
21
-7
0
LINE
8
0
10
7
20
-7
11
7
21
7
0
LINE
8
0
10
7
20
7
11
-7
21
7
0
LINE
8
0
10
-7
20
7
11
-7
21
-7
0
LINE
8
0
10
-7
20
12
11
7
21
12
0
LINE
8
0
10
7
20
12
11
7
21
26
0
LINE
8
0
10
7
20
26
11
-7
21
26
0
LINE
8
0
10
-7
20
26
11
-7
21
12
0
LINE
8
0
10
-7
20
31
11
7
21
31
0
LINE
8
0
10
7
20
31
11
7
21
45
0
LINE
8
0
10
7
20
45
11
-7
21
45
0
LINE
8
0
10
-7
20
45
11
-7
21
31
0
LINE
8
0
10
-7
20
50
11
7
21
50
0
LINE
8
0
10
7
20
50
11
7
21
64
0
LINE
8
0
10
7
20
64
11
-7
21
64
0
LINE
8
0
10
-7
20
64
11
-7
21
50
0
LINE
8
0
10
-7
20
69
11
7
21
69
0
LINE
8
0
10
7
20
69
11
7
21
83
0
LINE
8
0
10
7
20
83
11
-7
21
83
0
LINE
8
0
10
-7
20
83
11
-7
21
69
0
LINE
8
0
10
12
20
-7
11
26
21
-7
0
LINE
8
0
10
26
20
-7
11
26
21
7
0
LINE
8
0
10
26
20
7
11
12
21
7
0
LINE
8
0
10
12
20
7
11
12
21
-7
0
LINE
8
0
10
12
20
12
11
26
21
12
0
LINE
8
0
10
26
20
12
11
26
21
26
0
LINE
8
0
10
26
20
26
11
12
21
26
0
LINE
8
0
10
12
20
26
11
12
21
12
0
LINE
8
0
10
12
20
31
11
26
21
31
0
LINE
8
0
10
26
20
31
11
26
21
45
0
LINE
8
0
10
26
20
45
11
12
21
45
0
LINE
8
0
10
12
20
45
11
12
21
31
0
LINE
8
0
10
12
20
50
11
26
21
50
0
LINE
8
0
10
26
20
50
11
26
21
64
0
LINE
8
0
10
26
20
64
11
12
21
64
0
LINE
8
0
10
12
20
64
11
12
21
50
0
LINE
8
0
10
12
20
69
11
26
21
69
0
LINE
8
0
10
26
20
69
11
26
21
83
0
LINE
8
0
10
26
20
83
11
12
21
83
0
LINE
8
0
10
12
20
83
11
12
21
69
0
LINE
8
0
10
31
20
0
11
45
21
0
0
LINE
8
0
10
45
20
0
11
45
21
14
0
LINE
8
0
10
45
20
14
11
31
21
14
0
LINE
8
0
10
31
20
14
11
31
21
0
0
LINE
8
0
10
31
20
19
11
45
21
19
0
LINE
8
0
10
45
20
19
11
45
21
33
0
LINE
8
0
10
45
20
33
11
31
21
33
0
LINE
8
0
10
31
20
33
11
31
21
19
0
LINE
8
0
10
31
20
38
11
45
21
38
0
LINE
8
0
10
45
20
38
11
45
21
52
0
LINE
8
0
10
45
20
52
11
31
21
52
0
LINE
8
0
10
31
20
52
11
31
21
38
0
LINE
8
0
10
31
20
57
11
45
21
57
0
LINE
8
0
10
45
20
57
11
45
21
71
0
LINE
8
0
10
45
20
71
11
31
21
71
0
LINE
8
0
10
31
20
71
11
31
21
57
0
LINE
8
0
10
31
20
76
11
45
21
76
0
LINE
8
0
10
45
20
76
11
45
21
90
0
LINE
8
0
10
45
20
90
11
31
21
90
0
LINE
8
0
10
31
20
90
11
31
21
76
0
LINE
8
0
10
50
20
5
11
64
21
5
0
LINE
8
0
10
64
20
5
11
64
21
19
0
LINE
8
0
10
64
20
19
11
50
21
19
0
LINE
8
0
10
50
20
19
11
50
21
5
0
LINE
8
0
10
50
20
24
11
64
21
24
0
LINE
8
0
10
64
20
24
11
64
21
38
0
LINE
8
0
10
64
20
38
11
50
21
38
0
LINE
8
0
10
50
20
38
11
50
21
24
0
LINE
8
0
10
50
20
43
11
64
21
43
0
LINE
8
0
10
64
20
43
11
64
21
57
0
LINE
8
0
10
64
20
57
11
50
21
57
0
LINE
8
0
10
50
20
57
11
50
21
43
0
LINE
8
0
10
50
20
62
11
64
21
62
0
LINE
8
0
10
64
20
62
11
64
21
76
0
LINE
8
0
10
64
20
76
11
50
21
76
0
LINE
8
0
10
50
20
76
11
50
21
62
0
LINE
8
0
10
50
20
81
11
64
21
81
0
LINE
8
0
10
64
20
81
11
64
21
95
0
LINE
8
0
10
64
20
95
11
50
21
95
0
LINE
8
0
10
50
20
95
11
50
21
81
0
LINE
8
0
10
69
20
-1
11
83
21
-1
0
LINE
8
0
10
83
20
-1
11
83
21
13
0
LINE
8
0
10
83
20
13
11
69
21
13
0
LINE
8
0
10
69
20
13
11
69
21
-1
0
LINE
8
0
10
69
20
18
11
83
21
18
0
LINE
8
0
10
83
20
18
11
83
21
32
0
LINE
8
0
10
83
20
32
11
69
21
32
0
LINE
8
0
10
69
20
32
11
69
21
18
0
LINE
8
0
10
69
20
37
11
83
21
37
0
LINE
8
0
10
83
20
37
11
83
21
51
0
LINE
8
0
10
83
20
51
11
69
21
51
0
LINE
8
0
10
69
20
51
11
69
21
37
0
LINE
8
0
10
69
20
56
11
83
21
56
0
LINE
8
0
10
83
20
56
11
83
21
70
0
LINE
8
0
10
83
20
70
11
69
21
70
0
LINE
8
0
10
69
20
70
11
69
21
56
0
LINE
8
0
10
69
20
75
11
83
21
75
0
LINE
8
0
10
83
20
75
11
83
21
89
0
LINE
8
0
10
83
20
89
11
69
21
89
0
LINE
8
0
10
69
20
89
11
69
21
75
0
LINE
8
0
10
88
20
-4
11
102
21
-4
0
LINE
8
0
10
102
20
-4
11
102
21
10
0
LINE
8
0
10
102
20
10
11
88
21
10
0
LINE
8
0
10
88
20
10
11
88
21
-4
0
LINE
8
0
10
88
20
15
11
102
21
15
0
LINE
8
0
10
102
20
15
11
102
21
29
0
LINE
8
0
10
102
20
29
11
88
21
29
0
LINE
8
0
10
88
20
29
11
88
21
15
0
LINE
8
0
10
88
20
34
11
102
21
34
0
LINE
8
0
10
102
20
34
11
102
21
48
0
LINE
8
0
10
102
20
48
11
88
21
48
0
LINE
8
0
10
88
20
48
11
88
21
34
0
LINE
8
0
10
88
20
53
11
102
21
53
0
LINE
8
0
10
102
20
53
11
102
21
67
0
LINE
8
0
10
102
20
67
11
88
21
67
0
LINE
8
0
10
88
20
67
11
88
21
53
0
LINE
8
0
10
88
20
72
11
102
21
72
0
LINE
8
0
10
102
20
72
11
102
21
86
0
LINE
8
0
10
102
20
86
11
88
21
86
0
LINE
8
0
10
88
20
86
11
88
21
72
0
LINE
8
0
10
90.7780107
20
-23.0337073
11
103.9337073
21
-27.8219893
0
LINE
8
0
10
103.9337073
20
-27.8219893
11
108.7219893
21
-14.6662927
0
LINE
8
0
10
108.7219893
20
-14.6662927
11
95.5662927
21
-9.8780107
0
LINE
8
0
10
95.5662927
20
-9.8780107
11
90.7780107
21
-23.0337073
0
LINE
8
0
10
107.9823322
20
-31.317506
11
121.1380288
21
-36.105788
0
LINE
8
0
10
121.1380288
20
-36.105788
11
125.9263108
21
-22.9500914
0
LINE
8
0
10
125.9263108
20
-22.9500914
11
112.7706142
21
-18.1618094
0
LINE
8
0
10
112.7706142
20
-18.1618094
11
107.9823322
21
-31.317506
0
LINE
8
0
10
259
20
-7
11
273
21
-7
0
LINE
8
0
10
273
20
-7
11
273
21
7
0
LINE
8
0
10
273
20
7
11
259
21
7
0
LINE
8
0
10
259
20
7
11
259
21
-7
0
LINE
8
0
10
259
20
12
11
273
21
12
0
LINE
8
0
10
273
20
12
11
273
21
26
0
LINE
8
0
10
273
20
26
11
259
21
26
0
LINE
8
0
10
259
20
26
11
259
21
12
0
LINE
8
0
10
259
20
31
11
273
21
31
0
LINE
8
0
10
273
20
31
11
273
21
45
0
LINE
8
0
10
273
20
45
11
259
21
45
0
LINE
8
0
10
259
20
45
11
259
21
31
0
LINE
8
0
10
259
20
50
11
273
21
50
0
LINE
8
0
10
273
20
50
11
273
21
64
0
LINE
8
0
10
273
20
64
11
259
21
64
0
LINE
8
0
10
259
20
64
11
259
21
50
0
LINE
8
0
10
259
20
69
11
273
21
69
0
LINE
8
0
10
273
20
69
11
273
21
83
0
LINE
8
0
10
273
20
83
11
259
21
83
0
LINE
8
0
10
259
20
83
11
259
21
69
0
LINE
8
0
10
240
20
-7
11
254
21
-7
0
LINE
8
0
10
254
20
-7
11
254
21
7
0
LINE
8
0
10
254
20
7
11
240
21
7
0
LINE
8
0
10
240
20
7
11
240
21
-7
0
LINE
8
0
10
240
20
12
11
254
21
12
0
LINE
8
0
10
254
20
12
11
254
21
26
0
LINE
8
0
10
254
20
26
11
240
21
26
0
LINE
8
0
10
240
20
26
11
240
21
12
0
LINE
8
0
10
240
20
31
11
254
21
31
0
LINE
8
0
10
254
20
31
11
254
21
45
0
LINE
8
0
10
254
20
45
11
240
21
45
0
LINE
8
0
10
240
20
45
11
240
21
31
0
LINE
8
0
10
240
20
50
11
254
21
50
0
LINE
8
0
10
254
20
50
11
254
21
64
0
LINE
8
0
10
254
20
64
11
240
21
64
0
LINE
8
0
10
240
20
64
11
240
21
50
0
LINE
8
0
10
240
20
69
11
254
21
69
0
LINE
8
0
10
254
20
69
11
254
21
83
0
LINE
8
0
10
254
20
83
11
240
21
83
0
LINE
8
0
10
240
20
83
11
240
21
69
0
LINE
8
0
10
221
20
0
11
235
21
0
0
LINE
8
0
10
235
20
0
11
235
21
14
0
LINE
8
0
10
235
20
14
11
221
21
14
0
LINE
8
0
10
221
20
14
11
221
21
0
0
LINE
8
0
10
221
20
19
11
235
21
19
0
LINE
8
0
10
235
20
19
11
235
21
33
0
LINE
8
0
10
235
20
33
11
221
21
33
0
LINE
8
0
10
221
20
33
11
221
21
19
0
LINE
8
0
10
221
20
38
11
235
21
38
0
LINE
8
0
10
235
20
38
11
235
21
52
0
LINE
8
0
10
235
20
52
11
221
21
52
0
LINE
8
0
10
221
20
52
11
221
21
38
0
LINE
8
0
10
221
20
57
11
235
21
57
0
LINE
8
0
10
235
20
57
11
235
21
71
0
LINE
8
0
10
235
20
71
11
221
21
71
0
LINE
8
0
10
221
20
71
11
221
21
57
0
LINE
8
0
10
221
20
76
11
235
21
76
0
LINE
8
0
10
235
20
76
11
235
21
90
0
LINE
8
0
10
235
20
90
11
221
21
90
0
LINE
8
0
10
221
20
90
11
221
21
76
0
LINE
8
0
10
202
20
5
11
216
21
5
0
LINE
8
0
10
216
20
5
11
216
21
19
0
LINE
8
0
10
216
20
19
11
202
21
19
0
LINE
8
0
10
202
20
19
11
202
21
5
0
LINE
8
0
10
202
20
24
11
216
21
24
0
LINE
8
0
10
216
20
24
11
216
21
38
0
LINE
8
0
10
216
20
38
11
202
21
38
0
LINE
8
0
10
202
20
38
11
202
21
24
0
LINE
8
0
10
202
20
43
11
216
21
43
0
LINE
8
0
10
216
20
43
11
216
21
57
0
LINE
8
0
10
216
20
57
11
202
21
57
0
LINE
8
0
10
202
20
57
11
202
21
43
0
LINE
8
0
10
202
20
62
11
216
21
62
0
LINE
8
0
10
216
20
62
11
216
21
76
0
LINE
8
0
10
216
20
76
11
202
21
76
0
LINE
8
0
10
202
20
76
11
202
21
62
0
LINE
8
0
10
202
20
81
11
216
21
81
0
LINE
8
0
10
216
20
81
11
216
21
95
0
LINE
8
0
10
216
20
95
11
202
21
95
0
LINE
8
0
10
202
20
95
11
202
21
81
0
LINE
8
0
10
183
20
-1
11
197
21
-1
0
LINE
8
0
10
197
20
-1
11
197
21
13
0
LINE
8
0
10
197
20
13
11
183
21
13
0
LINE
8
0
10
183
20
13
11
183
21
-1
0
LINE
8
0
10
183
20
18
11
197
21
18
0
LINE
8
0
10
197
20
18
11
197
21
32
0
LINE
8
0
10
197
20
32
11
183
21
32
0
LINE
8
0
10
183
20
32
11
183
21
18
0
LINE
8
0
10
183
20
37
11
197
21
37
0
LINE
8
0
10
197
20
37
11
197
21
51
0
LINE
8
0
10
197
20
51
11
183
21
51
0
LINE
8
0
10
183
20
51
11
183
21
37
0
LINE
8
0
10
183
20
56
11
197
21
56
0
LINE
8
0
10
197
20
56
11
197
21
70
0
LINE
8
0
10
197
20
70
11
183
21
70
0
LINE
8
0
10
183
20
70
11
183
21
56
0
LINE
8
0
10
183
20
75
11
197
21
75
0
LINE
8
0
10
197
20
75
11
197
21
89
0
LINE
8
0
10
197
20
89
11
183
21
89
0
LINE
8
0
10
183
20
89
11
183
21
75
0
LINE
8
0
10
164
20
-4
11
178
21
-4
0
LINE
8
0
10
178
20
-4
11
178
21
10
0
LINE
8
0
10
178
20
10
11
164
21
10
0
LINE
8
0
10
164
20
10
11
164
21
-4
0
LINE
8
0
10
164
20
15
11
178
21
15
0
LINE
8
0
10
178
20
15
11
178
21
29
0
LINE
8
0
10
178
20
29
11
164
21
29
0
LINE
8
0
10
164
20
29
11
164
21
15
0
LINE
8
0
10
164
20
34
11
178
21
34
0
LINE
8
0
10
178
20
34
11
178
21
48
0
LINE
8
0
10
178
20
48
11
164
21
48
0
LINE
8
0
10
164
20
48
11
164
21
34
0
LINE
8
0
10
164
20
53
11
178
21
53
0
LINE
8
0
10
178
20
53
11
178
21
67
0
LINE
8
0
10
178
20
67
11
164
21
67
0
LINE
8
0
10
164
20
67
11
164
21
53
0
LINE
8
0
10
164
20
72
11
178
21
72
0
LINE
8
0
10
178
20
72
11
178
21
86
0
LINE
8
0
10
178
20
86
11
164
21
86
0
LINE
8
0
10
164
20
86
11
164
21
72
0
LINE
8
0
10
162.0662927
20
-27.8219893
11
175.2219893
21
-23.0337073
0
LINE
8
0
10
175.2219893
20
-23.0337073
11
170.4337073
21
-9.8780107
0
LINE
8
0
10
170.4337073
20
-9.8780107
11
157.2780107
21
-14.6662927
0
LINE
8
0
10
157.2780107
20
-14.6662927
11
162.0662927
21
-27.8219893
0
LINE
8
0
10
144.8619712
20
-36.105788
11
158.0176678
21
-31.317506
0
LINE
8
0
10
158.0176678
20
-31.317506
11
153.2293858
21
-18.1618094
0
LINE
8
0
10
153.2293858
20
-18.1618094
11
140.0736892
21
-22.9500914
0
LINE
8
0
10
140.0736892
20
-22.9500914
11
144.8619712
21
-36.105788
0
ENDSEC
0
EOF