0
SECTION
2
HEADER
9
$INSUNITS
70
4
0
ENDSEC
0
SECTION
2
TABLES
0
TABLE
2
LTYPE
0
LTYPE
72
65
70
64
2
CONTINUOUS
3
______
73
0
40
0
0
ENDTAB
0
TABLE
2
LAYER
0
ENDTAB
0
ENDSEC
0
SECTION
2
ENTITIES
0
LINE
8
0
10
-7.25
20
-7.25
11
7.25
21
-7.25
0
LINE
8
0
10
7.25
20
-7.25
11
7.25
21
7.25
0
LINE
8
0
10
7.25
20
7.25
11
-7.25
21
7.25
0
LINE
8
0
10
-7.25
20
7.25
11
-7.25
21
-7.25
0
LINE
8
0
10
-7.25
20
11.75
11
7.25
21
11.75
0
LINE
8
0
10
7.25
20
11.75
11
7.25
21
26.25
0
LINE
8
0
10
7.25
20
26.25
11
-7.25
21
26.25
0
LINE
8
0
10
-7.25
20
26.25
11
-7.25
21
11.75
0
LINE
8
0
10
-7.25
20
30.75
11
7.25
21
30.75
0
LINE
8
0
10
7.25
20
30.75
11
7.25
21
45.25
0
LINE
8
0
10
7.25
20
45.25
11
-7.25
21
45.25
0
LINE
8
0
10
-7.25
20
45.25
11
-7.25
21
30.75
0
LINE
8
0
10
-7.25
20
49.75
11
7.25
21
49.75
0
LINE
8
0
10
7.25
20
49.75
11
7.25
21
64.25
0
LINE
8
0
10
7.25
20
64.25
11
-7.25
21
64.25
0
LINE
8
0
10
-7.25
20
64.25
11
-7.25
21
49.75
0
LINE
8
0
10
-7.25
20
68.75
11
7.25
21
68.75
0
LINE
8
0
10
7.25
20
68.75
11
7.25
21
83.25
0
LINE
8
0
10
7.25
20
83.25
11
-7.25
21
83.25
0
LINE
8
0
10
-7.25
20
83.25
11
-7.25
21
68.75
0
LINE
8
0
10
11.75
20
-7.25
11
26.25
21
-7.25
0
LINE
8
0
10
26.25
20
-7.25
11
26.25
21
7.25
0
LINE
8
0
10
26.25
20
7.25
11
11.75
21
7.25
0
LINE
8
0
10
11.75
20
7.25
11
11.75
21
-7.25
0
LINE
8
0
10
11.75
20
11.75
11
26.25
21
11.75
0
LINE
8
0
10
26.25
20
11.75
11
26.25
21
26.25
0
LINE
8
0
10
26.25
20
26.25
11
11.75
21
26.25
0
LINE
8
0
10
11.75
20
26.25
11
11.75
21
11.75
0
LINE
8
0
10
11.75
20
30.75
11
26.25
21
30.75
0
LINE
8
0
10
26.25
20
30.75
11
26.25
21
45.25
0
LINE
8
0
10
26.25
20
45.25
11
11.75
21
45.25
0
LINE
8
0
10
11.75
20
45.25
11
11.75
21
30.75
0
LINE
8
0
10
11.75
20
49.75
11
26.25
21
49.75
0
LINE
8
0
10
26.25
20
49.75
11
26.25
21
64.25
0
LINE
8
0
10
26.25
20
64.25
11
11.75
21
64.25
0
LINE
8
0
10
11.75
20
64.25
11
11.75
21
49.75
0
LINE
8
0
10
11.75
20
68.75
11
26.25
21
68.75
0
LINE
8
0
10
26.25
20
68.75
11
26.25
21
83.25
0
LINE
8
0
10
26.25
20
83.25
11
11.75
21
83.25
0
LINE
8
0
10
11.75
20
83.25
11
11.75
21
68.75
0
LINE
8
0
10
30.75
20
-0.25
11
45.25
21
-0.25
0
LINE
8
0
10
45.25
20
-0.25
11
45.25
21
14.25
0
LINE
8
0
10
45.25
20
14.25
11
30.75
21
14.25
0
LINE
8
0
10
30.75
20
14.25
11
30.75
21
-0.25
0
LINE
8
0
10
30.75
20
18.75
11
45.25
21
18.75
0
LINE
8
0
10
45.25
20
18.75
11
45.25
21
33.25
0
LINE
8
0
10
45.25
20
33.25
11
30.75
21
33.25
0
LINE
8
0
10
30.75
20
33.25
11
30.75
21
18.75
0
LINE
8
0
10
30.75
20
37.75
11
45.25
21
37.75
0
LINE
8
0
10
45.25
20
37.75
11
45.25
21
52.25
0
LINE
8
0
10
45.25
20
52.25
11
30.75
21
52.25
0
LINE
8
0
10
30.75
20
52.25
11
30.75
21
37.75
0
LINE
8
0
10
30.75
20
56.75
11
45.25
21
56.75
0
LINE
8
0
10
45.25
20
56.75
11
45.25
21
71.25
0
LINE
8
0
10
45.25
20
71.25
11
30.75
21
71.25
0
LINE
8
0
10
30.75
20
71.25
11
30.75
21
56.75
0
LINE
8
0
10
30.75
20
75.75
11
45.25
21
75.75
0
LINE
8
0
10
45.25
20
75.75
11
45.25
21
90.25
0
LINE
8
0
10
45.25
20
90.25
11
30.75
21
90.25
0
LINE
8
0
10
30.75
20
90.25
11
30.75
21
75.75
0
LINE
8
0
10
49.75
20
4.75
11
64.25
21
4.75
0
LINE
8
0
10
64.25
20
4.75
11
64.25
21
19.25
0
LINE
8
0
10
64.25
20
19.25
11
49.75
21
19.25
0
LINE
8
0
10
49.75
20
19.25
11
49.75
21
4.75
0
LINE
8
0
10
49.75
20
23.75
11
64.25
21
23.75
0
LINE
8
0
10
64.25
20
23.75
11
64.25
21
38.25
0
LINE
8
0
10
64.25
20
38.25
11
49.75
21
38.25
0
LINE
8
0
10
49.75
20
38.25
11
49.75
21
23.75
0
LINE
8
0
10
49.75
20
42.75
11
64.25
21
42.75
0
LINE
8
0
10
64.25
20
42.75
11
64.25
21
57.25
0
LINE
8
0
10
64.25
20
57.25
11
49.75
21
57.25
0
LINE
8
0
10
49.75
20
57.25
11
49.75
21
42.75
0
LINE
8
0
10
49.75
20
61.75
11
64.25
21
61.75
0
LINE
8
0
10
64.25
20
61.75
11
64.25
21
76.25
0
LINE
8
0
10
64.25
20
76.25
11
49.75
21
76.25
0
LINE
8
0
10
49.75
20
76.25
11
49.75
21
61.75
0
LINE
8
0
10
49.75
20
80.75
11
64.25
21
80.75
0
LINE
8
0
10
64.25
20
80.75
11
64.25
21
95.25
0
LINE
8
0
10
64.25
20
95.25
11
49.75
21
95.25
0
LINE
8
0
10
49.75
20
95.25
11
49.75
21
80.75
0
LINE
8
0
10
68.75
20
-1.25
11
83.25
21
-1.25
0
LINE
8
0
10
83.25
20
-1.25
11
83.25
21
13.25
0
LINE
8
0
10
83.25
20
13.25
11
68.75
21
13.25
0
LINE
8
0
10
68.75
20
13.25
11
68.75
21
-1.25
0
LINE
8
0
10
68.75
20
17.75
11
83.25
21
17.75
0
LINE
8
0
10
83.25
20
17.75
11
83.25
21
32.25
0
LINE
8
0
10
83.25
20
32.25
11
68.75
21
32.25
0
LINE
8
0
10
68.75
20
32.25
11
68.75
21
17.75
0
LINE
8
0
10
68.75
20
36.75
11
83.25
21
36.75
0
LINE
8
0
10
83.25
20
36.75
11
83.25
21
51.25
0
LINE
8
0
10
83.25
20
51.25
11
68.75
21
51.25
0
LINE
8
0
10
68.75
20
51.25
11
68.75
21
36.75
0
LINE
8
0
10
68.75
20
55.75
11
83.25
21
55.75
0
LINE
8
0
10
83.25
20
55.75
11
83.25
21
70.25
0
LINE
8
0
10
83.25
20
70.25
11
68.75
21
70.25
0
LINE
8
0
10
68.75
20
70.25
11
68.75
21
55.75
0
LINE
8
0
10
68.75
20
74.75
11
83.25
21
74.75
0
LINE
8
0
10
83.25
20
74.75
11
83.25
21
89.25
0
LINE
8
0
10
83.25
20
89.25
11
68.75
21
89.25
0
LINE
8
0
10
68.75
20
89.25
11
68.75
21
74.75
0
LINE
8
0
10
87.75
20
-4.25
11
102.25
21
-4.25
0
LINE
8
0
10
102.25
20
-4.25
11
102.25
21
10.25
0
LINE
8
0
10
102.25
20
10.25
11
87.75
21
10.25
0
LINE
8
0
10
87.75
20
10.25
11
87.75
21
-4.25
0
LINE
8
0
10
87.75
20
14.75
11
102.25
21
14.75
0
LINE
8
0
10
102.25
20
14.75
11
102.25
21
29.25
0
LINE
8
0
10
102.25
20
29.25
11
87.75
21
29.25
0
LINE
8
0
10
87.75
20
29.25
11
87.75
21
14.75
0
LINE
8
0
10
87.75
20
33.75
11
102.25
21
33.75
0
LINE
8
0
10
102.25
20
33.75
11
102.25
21
48.25
0
LINE
8
0
10
102.25
20
48.25
11
87.75
21
48.25
0
LINE
8
0
10
87.75
20
48.25
11
87.75
21
33.75
0
LINE
8
0
10
87.75
20
52.75
11
102.25
21
52.75
0
LINE
8
0
10
102.25
20
52.75
11
102.25
21
67.25
0
LINE
8
0
10
102.25
20
67.25
11
87.75
21
67.25
0
LINE
8
0
10
87.75
20
67.25
11
87.75
21
52.75
0
LINE
8
0
10
87.75
20
71.75
11
102.25
21
71.75
0
LINE
8
0
10
102.25
20
71.75
11
102.25
21
86.25
0
LINE
8
0
10
102.25
20
86.25
11
87.75
21
86.25
0
LINE
8
0
10
87.75
20
86.25
11
87.75
21
71.75
0
LINE
8
0
10
90.4575825
20
-23.1831255
11
104.0831255
21
-28.1424175
0
LINE
8
0
10
104.0831255
20
-28.1424175
11
109.0424175
21
-14.5168745
0
LINE
8
0
10
109.0424175
20
-14.5168745
11
95.4168745
21
-9.5575825
0
LINE
8
0
10
95.4168745
20
-9.5575825
11
90.4575825
21
-23.1831255
0
LINE
8
0
10
107.661904
20
-31.4669242
11
121.287447
21
-36.4262162
0
LINE
8
0
10
121.287447
20
-36.4262162
11
126.246739
21
-22.8006732
0
LINE
8
0
10
126.246739
20
-22.8006732
11
112.621196
21
-17.8413812
0
LINE
8
0
10
112.621196
20
-17.8413812
11
107.661904
21
-31.4669242
0
LINE
8
0
10
258.75
20
-7.25
11
273.25
21
-7.25
0
LINE
8
0
10
273.25
20
-7.25
11
273.25
21
7.25
0
LINE
8
0
10
273.25
20
7.25
11
258.75
21
7.25
0
LINE
8
0
10
258.75
20
7.25
11
258.75
21
-7.25
0
LINE
8
0
10
258.75
20
11.75
11
273.25
21
11.75
0
LINE
8
0
10
273.25
20
11.75
11
273.25
21
26.25
0
LINE
8
0
10
273.25
20
26.25
11
258.75
21
26.25
0
LINE
8
0
10
258.75
20
26.25
11
258.75
21
11.75
0
LINE
8
0
10
258.75
20
30.75
11
273.25
21
30.75
0
LINE
8
0
10
273.25
20
30.75
11
273.25
21
45.25
0
LINE
8
0
10
273.25
20
45.25
11
258.75
21
45.25
0
LINE
8
0
10
258.75
20
45.25
11
258.75
21
30.75
0
LINE
8
0
10
258.75
20
49.75
11
273.25
21
49.75
0
LINE
8
0
10
273.25
20
49.75
11
273.25
21
64.25
0
LINE
8
0
10
273.25
20
64.25
11
258.75
21
64.25
0
LINE
8
0
10
258.75
20
64.25
11
258.75
21
49.75
0
LINE
8
0
10
258.75
20
68.75
11
273.25
21
68.75
0
LINE
8
0
10
273.25
20
68.75
11
273.25
21
83.25
0
LINE
8
0
10
273.25
20
83.25
11
258.75
21
83.25
0
LINE
8
0
10
258.75
20
83.25
11
258.75
21
68.75
0
LINE
8
0
10
239.75
20
-7.25
11
254.25
21
-7.25
0
LINE
8
0
10
254.25
20
-7.25
11
254.25
21
7.25
0
LINE
8
0
10
254.25
20
7.25
11
239.75
21
7.25
0
LINE
8
0
10
239.75
20
7.25
11
239.75
21
-7.25
0
LINE
8
0
10
239.75
20
11.75
11
254.25
21
11.75
0
LINE
8
0
10
254.25
20
11.75
11
254.25
21
26.25
0
LINE
8
0
10
254.25
20
26.25
11
239.75
21
26.25
0
LINE
8
0
10
239.75
20
26.25
11
239.75
21
11.75
0
LINE
8
0
10
239.75
20
30.75
11
254.25
21
30.75
0
LINE
8
0
10
254.25
20
30.75
11
254.25
21
45.25
0
LINE
8
0
10
254.25
20
45.25
11
239.75
21
45.25
0
LINE
8
0
10
239.75
20
45.25
11
239.75
21
30.75
0
LINE
8
0
10
239.75
20
49.75
11
254.25
21
49.75
0
LINE
8
0
10
254.25
20
49.75
11
254.25
21
64.25
0
LINE
8
0
10
254.25
20
64.25
11
239.75
21
64.25
0
LINE
8
0
10
239.75
20
64.25
11
239.75
21
49.75
0
LINE
8
0
10
239.75
20
68.75
11
254.25
21
68.75
0
LINE
8
0
10
254.25
20
68.75
11
254.25
21
83.25
0
LINE
8
0
10
254.25
20
83.25
11
239.75
21
83.25
0
LINE
8
0
10
239.75
20
83.25
11
239.75
21
68.75
0
LINE
8
0
10
220.75
20
-0.25
11
235.25
21
-0.25
0
LINE
8
0
10
235.25
20
-0.25
11
235.25
21
14.25
0
LINE
8
0
10
235.25
20
14.25
11
220.75
21
14.25
0
LINE
8
0
10
220.75
20
14.25
11
220.75
21
-0.25
0
LINE
8
0
10
220.75
20
18.75
11
235.25
21
18.75
0
LINE
8
0
10
235.25
20
18.75
11
235.25
21
33.25
0
LINE
8
0
10
235.25
20
33.25
11
220.75
21
33.25
0
LINE
8
0
10
220.75
20
33.25
11
220.75
21
18.75
0
LINE
8
0
10
220.75
20
37.75
11
235.25
21
37.75
0
LINE
8
0
10
235.25
20
37.75
11
235.25
21
52.25
0
LINE
8
0
10
235.25
20
52.25
11
220.75
21
52.25
0
LINE
8
0
10
220.75
20
52.25
11
220.75
21
37.75
0
LINE
8
0
10
220.75
20
56.75
11
235.25
21
56.75
0
LINE
8
0
10
235.25
20
56.75
11
235.25
21
71.25
0
LINE
8
0
10
235.25
20
71.25
11
220.75
21
71.25
0
LINE
8
0
10
220.75
20
71.25
11
220.75
21
56.75
0
LINE
8
0
10
220.75
20
75.75
11
235.25
21
75.75
0
LINE
8
0
10
235.25
20
75.75
11
235.25
21
90.25
0
LINE
8
0
10
235.25
20
90.25
11
220.75
21
90.25
0
LINE
8
0
10
220.75
20
90.25
11
220.75
21
75.75
0
LINE
8
0
10
201.75
20
4.75
11
216.25
21
4.75
0
LINE
8
0
10
216.25
20
4.75
11
216.25
21
19.25
0
LINE
8
0
10
216.25
20
19.25
11
201.75
21
19.25
0
LINE
8
0
10
201.75
20
19.25
11
201.75
21
4.75
0
LINE
8
0
10
201.75
20
23.75
11
216.25
21
23.75
0
LINE
8
0
10
216.25
20
23.75
11
216.25
21
38.25
0
LINE
8
0
10
216.25
20
38.25
11
201.75
21
38.25
0
LINE
8
0
10
201.75
20
38.25
11
201.75
21
23.75
0
LINE
8
0
10
201.75
20
42.75
11
216.25
21
42.75
0
LINE
8
0
10
216.25
20
42.75
11
216.25
21
57.25
0
LINE
8
0
10
216.25
20
57.25
11
201.75
21
57.25
0
LINE
8
0
10
201.75
20
57.25
11
201.75
21
42.75
0
LINE
8
0
10
201.75
20
61.75
11
216.25
21
61.75
0
LINE
8
0
10
216.25
20
61.75
11
216.25
21
76.25
0
LINE
8
0
10
216.25
20
76.25
11
201.75
21
76.25
0
LINE
8
0
10
201.75
20
76.25
11
201.75
21
61.75
0
LINE
8
0
10
201.75
20
80.75
11
216.25
21
80.75
0
LINE
8
0
10
216.25
20
80.75
11
216.25
21
95.25
0
LINE
8
0
10
216.25
20
95.25
11
201.75
21
95.25
0
LINE
8
0
10
201.75
20
95.25
11
201.75
21
80.75
0
LINE
8
0
10
182.75
20
-1.25
11
197.25
21
-1.25
0
LINE
8
0
10
197.25
20
-1.25
11
197.25
21
13.25
0
LINE
8
0
10
197.25
20
13.25
11
182.75
21
13.25
0
LINE
8
0
10
182.75
20
13.25
11
182.75
21
-1.25
0
LINE
8
0
10
182.75
20
17.75
11
197.25
21
17.75
0
LINE
8
0
10
197.25
20
17.75
11
197.25
21
32.25
0
LINE
8
0
10
197.25
20
32.25
11
182.75
21
32.25
0
LINE
8
0
10
182.75
20
32.25
11
182.75
21
17.75
0
LINE
8
0
10
182.75
20
36.75
11
197.25
21
36.75
0
LINE
8
0
10
197.25
20
36.75
11
197.25
21
51.25
0
LINE
8
0
10
197.25
20
51.25
11
182.75
21
51.25
0
LINE
8
0
10
182.75
20
51.25
11
182.75
21
36.75
0
LINE
8
0
10
182.75
20
55.75
11
197.25
21
55.75
0
LINE
8
0
10
197.25
20
55.75
11
197.25
21
70.25
0
LINE
8
0
10
197.25
20
70.25
11
182.75
21
70.25
0
LINE
8
0
10
182.75
20
70.25
11
182.75
21
55.75
0
LINE
8
0
10
182.75
20
74.75
11
197.25
21
74.75
0
LINE
8
0
10
197.25
20
74.75
11
197.25
21
89.25
0
LINE
8
0
10
197.25
20
89.25
11
182.75
21
89.25
0
LINE
8
0
10
182.75
20
89.25
11
182.75
21
74.75
0
LINE
8
0
10
163.75
20
-4.25
11
178.25
21
-4.25
0
LINE
8
0
10
178.25
20
-4.25
11
178.25
21
10.25
0
LINE
8
0
10
178.25
20
10.25
11
163.75
21
10.25
0
LINE
8
0
10
163.75
20
10.25
11
163.75
21
-4.25
0
LINE
8
0
10
163.75
20
14.75
11
178.25
21
14.75
0
LINE
8
0
10
178.25
20
14.75
11
178.25
21
29.25
0
LINE
8
0
10
178.25
20
29.25
11
163.75
21
29.25
0
LINE
8
0
10
163.75
20
29.25
11
163.75
21
14.75
0
LINE
8
0
10
163.75
20
33.75
11
178.25
21
33.75
0
LINE
8
0
10
178.25
20
33.75
11
178.25
21
48.25
0
LINE
8
0
10
178.25
20
48.25
11
163.75
21
48.25
0
LINE
8
0
10
163.75
20
48.25
11
163.75
21
33.75
0
LINE
8
0
10
163.75
20
52.75
11
178.25
21
52.75
0
LINE
8
0
10
178.25
20
52.75
11
178.25
21
67.25
0
LINE
8
0
10
178.25
20
67.25
11
163.75
21
67.25
0
LINE
8
0
10
163.75
20
67.25
11
163.75
21
52.75
0
LINE
8
0
10
163.75
20
71.75
11
178.25
21
71.75
0
LINE
8
0
10
178.25
20
71.75
11
178.25
21
86.25
0
LINE
8
0
10
178.25
20
86.25
11
163.75
21
86.25
0
LINE
8
0
10
163.75
20
86.25
11
163.75
21
71.75
0
LINE
8
0
10
161.9168745
20
-28.1424175
11
175.5424175
21
-23.1831255
0
LINE
8
0
10
175.5424175
20
-23.1831255
11
170.5831255
21
-9.5575825
0
LINE
8
0
10
170.5831255
20
-9.5575825
11
156.9575825
21
-14.5168745
0
LINE
8
0
10
156.9575825
20
-14.5168745
11
161.9168745
21
-28.1424175
0
LINE
8
0
10
144.712553
20
-36.4262162
11
158.338096
21
-31.4669242
0
LINE
8
0
10
158.338096
20
-31.4669242
11
153.378804
21
-17.8413812
0
LINE
8
0
10
153.378804
20
-17.8413812
11
139.753261
21
-22.8006732
0
LINE
8
0
10
139.753261
20
-22.8006732
11
144.712553
21
-36.4262162
0
ENDSEC
0
EOF