0
SECTION
2
HEADER
9
$INSUNITS
70
4
0
ENDSEC
0
SECTION
2
TABLES
0
TABLE
2
LTYPE
0
LTYPE
72
65
70
64
2
CONTINUOUS
3
______
73
0
40
0
0
ENDTAB
0
TABLE
2
LAYER
0
ENDTAB
0
ENDSEC
0
SECTION
2
ENTITIES
0
LINE
8
0
10
279.5
20
-11
11
279.5
21
87
0
LINE
8
0
10
277.5
20
89
11
244.2345908
21
89
0
LINE
8
0
10
242.2546918
20
90.7171572
11
241.7453082
21
94.2828428
0
LINE
8
0
10
239.7654092
20
96
11
225.1396079
21
96
0
LINE
8
0
10
223.1784464
20
97.6077678
11
222.8215536
21
99.3922322
0
LINE
8
0
10
220.8603921
20
101
11
197.1942541
21
101
0
LINE
8
0
10
195.2214663
20
99.328798
11
194.7785337
21
96.671202
0
LINE
8
0
10
192.8057459
20
95
11
177.7915027
21
95
0
LINE
8
0
10
175.968627
20
93.8228756
11
175.6771244
21
93.1771244
0
LINE
8
0
10
173.8542487
20
92
11
159.5
21
92
0
LINE
8
0
10
157.5
20
90
11
157.5
21
-4.8179295
0
LINE
8
0
10
157.4671227
20
-5.1790779
11
157.0771701
21
-7.303093
0
LINE
8
0
10
155.7940876
20
-8.8213299
11
149.8171067
21
-10.996773
0
LINE
8
0
10
148.7550459
20
-11.9008986
11
148.0632442
21
-13.1394975
0
LINE
8
0
10
147.0011834
20
-14.0436231
11
133.7929516
21
-18.8510263
0
LINE
8
0
10
132.5976066
20
-21.4144517
11
140.1220497
21
-42.0876894
0
LINE
8
0
10
142.6854751
20
-43.2830344
11
165.4785718
21
-34.9870257
0
LINE
8
0
10
166.5406326
20
-34.0829001
11
167.2324343
21
-32.8443012
0
LINE
8
0
10
168.2944951
20
-31.9401756
11
181.5027269
21
-27.1327724
0
LINE
8
0
10
182.698072
20
-24.569347
11
179.0965989
21
-14.674381
0
LINE
8
0
10
179.6591879
20
-12.4850011
11
182.4497708
21
-10.043938
0
LINE
8
0
10
182.5471881
20
-9.9528119
11
184.9142136
21
-7.5857864
0
LINE
8
0
10
186.3284272
20
-7
11
201.8057459
21
-7
0
LINE
8
0
10
203.7785337
20
-5.328798
11
204.2214663
21
-2.671202
0
LINE
8
0
10
206.1942541
20
-1
11
211.8603921
21
-1
0
LINE
8
0
10
213.8215536
20
-2.6077678
11
214.1784464
21
-4.3922322
0
LINE
8
0
10
216.1396079
20
-6
11
230.7654092
21
-6
0
LINE
8
0
10
232.7453082
20
-7.7171572
11
233.2546918
21
-11.2828428
0
LINE
8
0
10
235.2345908
20
-13
11
277.5
21
-13
0
ARC
8
0
10
277.5
20
87
40
2
50
0
51
90
0
ARC
8
0
10
244.2345908
20
91
40
2
50
188.1301048
51
270
0
ARC
8
0
10
239.7654092
20
94
40
2
50
8.1301048
51
90
0
ARC
8
0
10
225.1396079
20
98
40
2
50
191.3099302
51
270
0
ARC
8
0
10
220.8603921
20
99
40
2
50
11.3099302
51
90
0
ARC
8
0
10
197.1942541
20
99
40
2
50
90
51
170.5376769
0
ARC
8
0
10
192.8057459
20
97
40
2
50
270
51
350.5376769
0
ARC
8
0
10
177.7915027
20
93
40
2
50
90
51
155.7048119
0
ARC
8
0
10
173.8542487
20
94
40
2
50
270
51
335.7048119
0
ARC
8
0
10
159.5
20
90
40
2
50
90
51
180
0
ARC
8
0
10
155.5
20
-4.8179295
40
2
50
349.5967933
51
0
0
ARC
8
0
10
155.1100474
20
-6.9419446
40
2
50
289.9999981
51
349.5967933
0
ARC
8
0
10
150.5011469
20
-12.8761583
40
2
50
109.9999981
51
150.8150861
0
ARC
8
0
10
146.3171432
20
-12.1642378
40
2
50
289.9999981
51
330.8150861
0
ARC
8
0
10
134.4769918
20
-20.7304115
40
2
50
109.9999981
51
199.9999981
0
ARC
8
0
10
142.0014349
20
-41.4036492
40
2
50
199.9999981
51
289.9999981
0
ARC
8
0
10
164.7945316
20
-33.1076404
40
2
50
289.9999981
51
330.8150861
0
ARC
8
0
10
168.9785353
20
-33.8195609
40
2
50
109.9999981
51
150.8150861
0
ARC
8
0
10
180.8186867
20
-25.2533872
40
2
50
289.9999981
51
19.9999981
0
ARC
8
0
10
180.9759842
20
-13.9903408
40
2
50
131.1778198
51
199.9999981
0
ARC
8
0
10
181.1329745
20
-8.5385983
40
2
50
311.1778198
51
315
0
ARC
8
0
10
186.3284272
20
-9
40
2
50
90
51
135
0
ARC
8
0
10
201.8057459
20
-5
40
2
50
270
51
350.5376769
0
ARC
8
0
10
206.1942541
20
-3
40
2
50
90
51
170.5376769
0
ARC
8
0
10
211.8603921
20
-3
40
2
50
11.3099302
51
90
0
ARC
8
0
10
216.1396079
20
-4
40
2
50
191.3099302
51
270
0
ARC
8
0
10
230.7654092
20
-8
40
2
50
8.1301048
51
90
0
ARC
8
0
10
235.2345908
20
-11
40
2
50
188.1301048
51
270
0
ARC
8
0
10
277.5
20
-11
40
2
50
270
51
0
0
LINE
8
0
10
277.5
20
-9
11
277.5
21
85
0
LINE
8
0
10
275.5
20
87
11
242.2345908
21
87
0
LINE
8
0
10
240.2546918
20
88.7171572
11
239.7453082
21
92.2828428
0
LINE
8
0
10
237.7654092
20
94
11
223.1396079
21
94
0
LINE
8
0
10
221.1784464
20
95.6077678
11
220.8215536
21
97.3922322
0
LINE
8
0
10
218.8603921
20
99
11
199.1942541
21
99
0
LINE
8
0
10
197.2214663
20
97.328798
11
196.7785337
21
94.671202
0
LINE
8
0
10
194.8057459
20
93
11
179.7915027
21
93
0
LINE
8
0
10
177.968627
20
91.8228756
11
177.6771244
21
91.1771244
0
LINE
8
0
10
175.8542487
20
90
11
161.5
21
90
0
LINE
8
0
10
159.5
20
88
11
159.5
21
-6.9747775
0
LINE
8
0
10
159.4993638
20
-7.0252177
11
159.4681563
21
-8.2622273
0
LINE
8
0
10
158.1528327
20
-10.0911723
11
152.3805322
21
-12.1921179
0
LINE
8
0
10
151.3184714
20
-13.0962435
11
150.6266697
21
-14.3348424
0
LINE
8
0
10
149.5646089
20
-15.238968
11
136.3563771
21
-20.0463712
0
LINE
8
0
10
135.161032
20
-22.6097966
11
141.3173946
21
-39.5242639
0
LINE
8
0
10
143.8808201
20
-40.7196089
11
162.9151463
21
-33.7916808
0
LINE
8
0
10
163.9772071
20
-32.8875552
11
164.6690088
21
-31.6489563
0
LINE
8
0
10
165.7310696
20
-30.7448307
11
178.9393014
21
-25.9374275
0
LINE
8
0
10
180.1346464
20
-23.3740021
11
176.5140936
21
-13.4266148
0
LINE
8
0
10
177.019768
20
-11.2889864
11
180.4794676
21
-8.0194041
0
LINE
8
0
10
180.5199704
20
-7.9800296
11
182.9142136
21
-5.5857864
0
LINE
8
0
10
184.3284272
20
-5
11
199.8057459
21
-5
0
LINE
8
0
10
201.7785337
20
-3.328798
11
202.2214663
21
-0.671202
0
LINE
8
0
10
204.1942541
20
1
11
213.8603921
21
1
0
LINE
8
0
10
215.8215536
20
-0.6077678
11
216.1784464
21
-2.3922322
0
LINE
8
0
10
218.1396079
20
-4
11
232.7654092
21
-4
0
LINE
8
0
10
234.7453082
20
-5.7171572
11
235.2546918
21
-9.2828428
0
LINE
8
0
10
237.2345908
20
-11
11
275.5
21
-11
0
ARC
8
0
10
275.5
20
85
40
2
50
0
51
90
0
ARC
8
0
10
242.2345908
20
89
40
2
50
188.1301048
51
270
0
ARC
8
0
10
237.7654092
20
92
40
2
50
8.1301048
51
90
0
ARC
8
0
10
223.1396079
20
96
40
2
50
191.3099302
51
270
0
ARC
8
0
10
218.8603921
20
97
40
2
50
11.3099302
51
90
0
ARC
8
0
10
199.1942541
20
97
40
2
50
90
51
170.5376769
0
ARC
8
0
10
194.8057459
20
95
40
2
50
270
51
350.5376769
0
ARC
8
0
10
179.7915027
20
91
40
2
50
90
51
155.7048119
0
ARC
8
0
10
175.8542487
20
92
40
2
50
270
51
335.7048119
0
ARC
8
0
10
161.5
20
88
40
2
50
90
51
180
0
ARC
8
0
10
157.5
20
-6.9747775
40
2
50
358.5548415
51
0
0
ARC
8
0
10
157.4687925
20
-8.2117871
40
2
50
289.9999981
51
358.5548415
0
ARC
8
0
10
153.0645724
20
-14.0715032
40
2
50
109.9999981
51
150.8150861
0
ARC
8
0
10
148.8805687
20
-13.3595827
40
2
50
289.9999981
51
330.8150861
0
ARC
8
0
10
137.0404173
20
-21.9257564
40
2
50
109.9999981
51
199.9999981
0
ARC
8
0
10
143.1967798
20
-38.8402237
40
2
50
199.9999981
51
289.9999981
0
ARC
8
0
10
162.2311061
20
-31.9122955
40
2
50
289.9999981
51
330.8150861
0
ARC
8
0
10
166.4151098
20
-32.624216
40
2
50
109.9999981
51
150.8150861
0
ARC
8
0
10
178.2552612
20
-24.0580423
40
2
50
289.9999981
51
19.9999981
0
ARC
8
0
10
178.3934788
20
-12.7425746
40
2
50
133.381699
51
199.9999981
0
ARC
8
0
10
179.1057568
20
-6.565816
40
2
50
313.381699
51
315
0
ARC
8
0
10
184.3284272
20
-7
40
2
50
90
51
135
0
ARC
8
0
10
199.8057459
20
-3
40
2
50
270
51
350.5376769
0
ARC
8
0
10
204.1942541
20
-1
40
2
50
90
51
170.5376769
0
ARC
8
0
10
213.8603921
20
-1
40
2
50
11.3099302
51
90
0
ARC
8
0
10
218.1396079
20
-2
40
2
50
191.3099302
51
270
0
ARC
8
0
10
232.7654092
20
-6
40
2
50
8.1301048
51
90
0
ARC
8
0
10
237.2345908
20
-9
40
2
50
188.1301048
51
270
0
ARC
8
0
10
275.5
20
-9
40
2
50
270
51
0
0
ENDSEC
0
EOF