0
SECTION
2
HEADER
9
$INSUNITS
70
4
0
ENDSEC
0
SECTION
2
TABLES
0
TABLE
2
LTYPE
0
LTYPE
72
65
70
64
2
CONTINUOUS
3
______
73
0
40
0
0
ENDTAB
0
TABLE
2
LAYER
0
ENDTAB
0
ENDSEC
0
SECTION
2
ENTITIES
0
LINE
8
0
10
-13.5
20
-11
11
-13.5
21
87
0
LINE
8
0
10
-11.5
20
89
11
21.7654092
21
89
0
LINE
8
0
10
23.7453082
20
90.7171572
11
24.2546918
21
94.2828428
0
LINE
8
0
10
26.2345908
20
96
11
40.8603921
21
96
0
LINE
8
0
10
42.8215536
20
97.6077678
11
43.1784464
21
99.3922322
0
LINE
8
0
10
45.1396079
20
101
11
68.8057459
21
101
0
LINE
8
0
10
70.7785337
20
99.328798
11
71.2214663
21
96.671202
0
LINE
8
0
10
73.1942541
20
95
11
88.2084973
21
95
0
LINE
8
0
10
90.031373
20
93.8228756
11
90.3228756
21
93.1771244
0
LINE
8
0
10
92.1457513
20
92
11
106.5
21
92
0
LINE
8
0
10
108.5
20
90
11
108.5
21
-4.8179295
0
LINE
8
0
10
108.5328773
20
-5.1790779
11
108.9228299
21
-7.303093
0
LINE
8
0
10
110.2059124
20
-8.8213299
11
116.1828933
21
-10.996773
0
LINE
8
0
10
117.2449541
20
-11.9008986
11
117.9367558
21
-13.1394975
0
LINE
8
0
10
118.9988166
20
-14.0436231
11
132.2070484
21
-18.8510263
0
LINE
8
0
10
133.4023934
20
-21.4144517
11
125.8779503
21
-42.0876894
0
LINE
8
0
10
123.3145249
20
-43.2830344
11
100.5214282
21
-34.9870257
0
LINE
8
0
10
99.4593674
20
-34.0829001
11
98.7675657
21
-32.8443012
0
LINE
8
0
10
97.7055049
20
-31.9401756
11
84.4972731
21
-27.1327724
0
LINE
8
0
10
83.301928
20
-24.569347
11
86.9034011
21
-14.674381
0
LINE
8
0
10
86.3408121
20
-12.4850011
11
83.5502292
21
-10.043938
0
LINE
8
0
10
83.4528119
20
-9.9528119
11
81.0857864
21
-7.5857864
0
LINE
8
0
10
79.6715728
20
-7
11
64.1942541
21
-7
0
LINE
8
0
10
62.2214663
20
-5.328798
11
61.7785337
21
-2.671202
0
LINE
8
0
10
59.8057459
20
-1
11
54.1396079
21
-1
0
LINE
8
0
10
52.1784464
20
-2.6077678
11
51.8215536
21
-4.3922322
0
LINE
8
0
10
49.8603921
20
-6
11
35.2345908
21
-6
0
LINE
8
0
10
33.2546918
20
-7.7171572
11
32.7453082
21
-11.2828428
0
LINE
8
0
10
-11.5
20
-13
11
30.7654092
21
-13
0
ARC
8
0
10
-11.5
20
87
40
2
50
90
51
180
0
ARC
8
0
10
21.7654092
20
91
40
2
50
270
51
351.8698952
0
ARC
8
0
10
26.2345908
20
94
40
2
50
90
51
171.8698952
0
ARC
8
0
10
40.8603921
20
98
40
2
50
270
51
348.6900698
0
ARC
8
0
10
45.1396079
20
99
40
2
50
90
51
168.6900698
0
ARC
8
0
10
68.8057459
20
99
40
2
50
9.4623231
51
90
0
ARC
8
0
10
73.1942541
20
97
40
2
50
189.4623231
51
270
0
ARC
8
0
10
88.2084973
20
93
40
2
50
24.2951881
51
90
0
ARC
8
0
10
92.1457513
20
94
40
2
50
204.2951881
51
270
0
ARC
8
0
10
106.5
20
90
40
2
50
0
51
90
0
ARC
8
0
10
110.5
20
-4.8179295
40
2
50
180
51
190.4032067
0
ARC
8
0
10
110.8899526
20
-6.9419446
40
2
50
190.4032067
51
250.0000019
0
ARC
8
0
10
115.4988531
20
-12.8761583
40
2
50
29.1849139
51
70.0000019
0
ARC
8
0
10
119.6828568
20
-12.1642378
40
2
50
209.1849139
51
250.0000019
0
ARC
8
0
10
131.5230082
20
-20.7304115
40
2
50
340.0000019
51
70.0000019
0
ARC
8
0
10
123.9985651
20
-41.4036492
40
2
50
250.0000019
51
340.0000019
0
ARC
8
0
10
101.2054684
20
-33.1076404
40
2
50
209.1849139
51
250.0000019
0
ARC
8
0
10
97.0214647
20
-33.8195609
40
2
50
29.1849139
51
70.0000019
0
ARC
8
0
10
85.1813133
20
-25.2533872
40
2
50
160.0000019
51
250.0000019
0
ARC
8
0
10
85.0240158
20
-13.9903408
40
2
50
340.0000019
51
48.8221802
0
ARC
8
0
10
84.8670255
20
-8.5385983
40
2
50
225
51
228.8221802
0
ARC
8
0
10
79.6715728
20
-9
40
2
50
45
51
90
0
ARC
8
0
10
64.1942541
20
-5
40
2
50
189.4623231
51
270
0
ARC
8
0
10
59.8057459
20
-3
40
2
50
9.4623231
51
90
0
ARC
8
0
10
54.1396079
20
-3
40
2
50
90
51
168.6900698
0
ARC
8
0
10
49.8603921
20
-4
40
2
50
270
51
348.6900698
0
ARC
8
0
10
35.2345908
20
-8
40
2
50
90
51
171.8698952
0
ARC
8
0
10
30.7654092
20
-11
40
2
50
270
51
351.8698952
0
ARC
8
0
10
-11.5
20
-11
40
2
50
180
51
270
0
LINE
8
0
10
-11.5
20
-9
11
-11.5
21
85
0
LINE
8
0
10
-9.5
20
87
11
23.7654092
21
87
0
LINE
8
0
10
25.7453082
20
88.7171572
11
26.2546918
21
92.2828428
0
LINE
8
0
10
28.2345908
20
94
11
42.8603921
21
94
0
LINE
8
0
10
44.8215536
20
95.6077678
11
45.1784464
21
97.3922322
0
LINE
8
0
10
47.1396079
20
99
11
66.8057459
21
99
0
LINE
8
0
10
68.7785337
20
97.328798
11
69.2214663
21
94.671202
0
LINE
8
0
10
71.1942541
20
93
11
86.2084973
21
93
0
LINE
8
0
10
88.031373
20
91.8228756
11
88.3228756
21
91.1771244
0
LINE
8
0
10
90.1457513
20
90
11
104.5
21
90
0
LINE
8
0
10
106.5
20
88
11
106.5
21
-6.9747775
0
LINE
8
0
10
106.5006362
20
-7.0252177
11
106.5318437
21
-8.2622273
0
LINE
8
0
10
107.8471673
20
-10.0911723
11
113.6194678
21
-12.1921179
0
LINE
8
0
10
114.6815286
20
-13.0962435
11
115.3733303
21
-14.3348424
0
LINE
8
0
10
116.4353911
20
-15.238968
11
129.6436229
21
-20.0463712
0
LINE
8
0
10
130.838968
20
-22.6097966
11
124.6826054
21
-39.5242639
0
LINE
8
0
10
122.1191799
20
-40.7196089
11
103.0848537
21
-33.7916808
0
LINE
8
0
10
102.0227929
20
-32.8875552
11
101.3309912
21
-31.6489563
0
LINE
8
0
10
100.2689304
20
-30.7448307
11
87.0606986
21
-25.9374275
0
LINE
8
0
10
85.8653536
20
-23.3740021
11
89.4859064
21
-13.4266148
0
LINE
8
0
10
88.980232
20
-11.2889864
11
85.5205324
21
-8.0194041
0
LINE
8
0
10
85.4800296
20
-7.9800296
11
83.0857864
21
-5.5857864
0
LINE
8
0
10
81.6715728
20
-5
11
66.1942541
21
-5
0
LINE
8
0
10
64.2214663
20
-3.328798
11
63.7785337
21
-0.671202
0
LINE
8
0
10
61.8057459
20
1
11
52.1396079
21
1
0
LINE
8
0
10
50.1784464
20
-0.6077678
11
49.8215536
21
-2.3922322
0
LINE
8
0
10
47.8603921
20
-4
11
33.2345908
21
-4
0
LINE
8
0
10
31.2546918
20
-5.7171572
11
30.7453082
21
-9.2828428
0
LINE
8
0
10
-9.5
20
-11
11
28.7654092
21
-11
0
ARC
8
0
10
-9.5
20
85
40
2
50
90
51
180
0
ARC
8
0
10
23.7654092
20
89
40
2
50
270
51
351.8698952
0
ARC
8
0
10
28.2345908
20
92
40
2
50
90
51
171.8698952
0
ARC
8
0
10
42.8603921
20
96
40
2
50
270
51
348.6900698
0
ARC
8
0
10
47.1396079
20
97
40
2
50
90
51
168.6900698
0
ARC
8
0
10
66.8057459
20
97
40
2
50
9.4623231
51
90
0
ARC
8
0
10
71.1942541
20
95
40
2
50
189.4623231
51
270
0
ARC
8
0
10
86.2084973
20
91
40
2
50
24.2951881
51
90
0
ARC
8
0
10
90.1457513
20
92
40
2
50
204.2951881
51
270
0
ARC
8
0
10
104.5
20
88
40
2
50
0
51
90
0
ARC
8
0
10
108.5
20
-6.9747775
40
2
50
180
51
181.4451585
0
ARC
8
0
10
108.5312075
20
-8.2117871
40
2
50
181.4451585
51
250.0000019
0
ARC
8
0
10
112.9354276
20
-14.0715032
40
2
50
29.1849139
51
70.0000019
0
ARC
8
0
10
117.1194313
20
-13.3595827
40
2
50
209.1849139
51
250.0000019
0
ARC
8
0
10
128.9595827
20
-21.9257564
40
2
50
340.0000019
51
70.0000019
0
ARC
8
0
10
122.8032202
20
-38.8402237
40
2
50
250.0000019
51
340.0000019
0
ARC
8
0
10
103.7688939
20
-31.9122955
40
2
50
209.1849139
51
250.0000019
0
ARC
8
0
10
99.5848902
20
-32.624216
40
2
50
29.1849139
51
70.0000019
0
ARC
8
0
10
87.7447388
20
-24.0580423
40
2
50
160.0000019
51
250.0000019
0
ARC
8
0
10
87.6065212
20
-12.7425746
40
2
50
340.0000019
51
46.618301
0
ARC
8
0
10
86.8942432
20
-6.565816
40
2
50
225
51
226.618301
0
ARC
8
0
10
81.6715728
20
-7
40
2
50
45
51
90
0
ARC
8
0
10
66.1942541
20
-3
40
2
50
189.4623231
51
270
0
ARC
8
0
10
61.8057459
20
-1
40
2
50
9.4623231
51
90
0
ARC
8
0
10
52.1396079
20
-1
40
2
50
90
51
168.6900698
0
ARC
8
0
10
47.8603921
20
-2
40
2
50
270
51
348.6900698
0
ARC
8
0
10
33.2345908
20
-6
40
2
50
90
51
171.8698952
0
ARC
8
0
10
28.7654092
20
-9
40
2
50
270
51
351.8698952
0
ARC
8
0
10
-9.5
20
-9
40
2
50
180
51
270
0
ENDSEC
0
EOF